{"glyphs":{"0":{"ha":897,"x_min":60,"x_max":892,"o":"m 401 -11 q 204 45 284 -11 q 92 204 123 100 q 87 450 60 307 l 110 564 q 203 807 138 707 q 358 959 267 907 q 559 1011 450 1011 q 750 957 671 1011 q 861 800 829 903 q 864 553 892 697 l 839 430 q 681 103 797 216 q 401 -11 564 -11 m 410 178 q 502 206 461 178 q 573 286 543 233 q 617 414 602 338 l 656 602 q 662 724 672 676 q 621 794 652 771 q 543 817 589 817 q 447 790 489 817 q 376 711 405 763 q 332 582 347 659 l 295 393 q 291 272 280 320 q 333 201 302 224 q 410 178 364 178 z "},"1":{"ha":580,"x_min":120,"x_max":597,"o":"m 175 0 l 334 802 l 362 735 l 120 648 l 161 858 l 528 1000 l 597 1000 l 397 0 l 175 0 z "},"2":{"ha":814,"x_min":1,"x_max":810,"o":"m 1 0 l 7 47 l 344 405 q 414 475 372 435 q 496 560 456 515 q 565 648 537 604 q 592 729 592 692 q 565 791 592 765 q 486 817 537 817 q 413 798 445 817 q 361 745 381 779 q 335 668 341 711 l 117 688 q 179 859 130 787 q 309 971 229 931 q 493 1011 389 1011 q 655 981 583 1011 q 768 893 726 950 q 810 753 810 836 q 783 631 810 687 q 714 525 757 575 q 619 425 671 474 q 516 321 567 375 l 393 193 l 389 188 l 527 193 l 710 193 l 673 0 l 1 0 z "},"3":{"ha":814,"x_min":16,"x_max":775,"o":"m 364 -11 q 184 27 264 -11 q 60 134 104 66 q 25 292 16 202 l 241 273 q 259 216 240 239 q 308 181 278 193 q 372 170 338 170 q 452 190 418 170 q 506 244 487 210 q 526 317 526 277 q 513 372 526 351 q 479 405 500 393 q 433 422 458 417 q 382 427 408 427 l 326 427 l 361 593 l 413 593 q 489 614 455 593 q 544 669 524 635 q 564 739 564 703 q 535 805 564 785 q 465 826 507 826 q 403 811 429 826 q 362 772 377 797 q 343 718 347 747 l 138 736 q 199 882 150 821 q 323 978 249 944 q 484 1011 397 1011 q 633 980 567 1011 q 737 893 699 949 q 775 762 775 838 q 749 649 775 701 q 678 559 724 597 q 573 500 633 522 q 446 480 514 479 l 446 541 q 605 511 540 543 q 703 423 669 479 q 736 296 736 367 q 685 136 736 205 q 550 28 634 66 q 364 -11 465 -11 z "},"4":{"ha":840,"x_min":-6,"x_max":823,"o":"m 413 0 l 524 555 l 557 720 l 554 720 l 450 596 l 260 382 l 260 377 l 808 377 l 774 198 l -6 198 l 19 321 l 629 1000 l 823 1000 l 623 0 l 413 0 z "},"5":{"ha":801,"x_min":40,"x_max":793,"o":"m 377 -11 q 215 22 288 -11 q 97 107 143 55 q 40 215 52 159 l 243 282 q 273 232 253 256 q 322 195 293 209 q 385 180 351 180 q 462 201 427 180 q 520 257 498 221 q 543 340 543 293 q 507 434 543 397 q 401 471 470 471 q 319 453 352 471 q 268 414 286 436 l 121 454 l 233 1000 l 793 1000 l 755 810 l 398 810 l 338 516 l 321 587 q 383 625 346 612 q 470 637 420 637 q 612 604 549 637 q 710 508 674 570 q 746 355 746 445 q 699 171 746 254 q 569 38 652 87 q 377 -11 486 -11 z "},"6":{"ha":802,"x_min":35,"x_max":752,"o":"m 367 -11 q 187 33 262 -11 q 74 145 113 76 q 35 290 35 214 q 57 410 35 353 q 113 515 79 466 q 180 606 147 565 l 489 1000 l 743 1000 l 431 598 l 401 614 q 424 630 410 625 q 466 635 438 635 q 616 597 551 635 q 716 495 680 559 q 752 346 752 430 q 701 164 752 245 q 563 36 650 83 q 367 -11 475 -11 m 374 176 q 463 198 425 176 q 523 257 501 220 q 545 337 545 294 q 531 399 545 371 q 488 446 517 428 q 414 463 458 463 q 326 441 365 463 q 264 383 286 419 q 241 302 241 347 q 257 239 241 267 q 302 193 272 210 q 374 176 332 176 z "},"7":{"ha":753,"x_min":58,"x_max":854,"o":"m 58 0 l 594 911 l 642 806 l 112 806 l 151 1000 l 854 1000 l 847 962 l 293 0 l 58 0 z "},"8":{"ha":854,"x_min":43,"x_max":817,"o":"m 385 -11 q 210 25 288 -11 q 87 122 132 60 q 43 263 43 184 q 76 389 43 332 q 168 488 110 446 q 301 553 227 530 q 456 576 375 576 q 631 541 559 576 q 742 445 703 505 q 780 310 780 385 q 748 182 780 241 q 662 80 717 123 q 535 13 606 37 q 385 -11 465 -11 m 394 165 q 487 188 449 165 q 546 246 526 211 q 566 315 566 281 q 530 393 566 360 q 431 426 494 426 q 338 402 377 426 q 277 343 298 378 q 256 273 256 309 q 274 217 256 242 q 322 179 291 193 q 394 165 353 165 m 460 453 q 310 486 373 453 q 213 577 247 519 q 178 706 178 634 q 225 863 178 794 q 352 971 273 932 q 527 1011 431 1011 q 679 979 613 1011 q 781 890 744 947 q 817 760 817 833 q 768 604 817 673 q 638 494 720 534 q 460 453 557 453 m 473 596 q 554 618 519 596 q 607 674 588 640 q 625 745 625 709 q 591 818 625 794 q 514 842 557 842 q 437 822 472 842 q 383 769 403 802 q 363 697 363 736 q 394 623 363 650 q 473 596 425 596 z "},"9":{"ha":802,"x_min":104,"x_max":821,"o":"m 489 1011 q 669 968 595 1011 q 782 856 743 924 q 821 710 821 787 q 799 591 821 648 q 743 485 777 534 q 676 394 710 436 l 367 1 l 113 1 l 425 402 l 454 386 q 432 371 446 376 q 390 366 418 366 q 241 403 305 366 q 140 506 176 441 q 104 654 104 571 q 155 837 104 756 q 294 964 206 917 q 489 1011 381 1011 m 481 824 q 393 802 432 824 q 333 743 355 780 q 311 663 311 707 q 325 601 311 629 q 369 555 340 572 q 442 537 398 537 q 531 559 492 537 q 592 618 570 581 q 614 698 614 654 q 599 762 614 733 q 554 807 584 790 q 481 824 525 824 z "},"A":{"ha":1002,"x_min":-68,"x_max":926,"o":"m -68 0 l 534 1000 l 725 1000 l 926 0 l 700 0 l 659 256 l 656 342 l 590 739 l 585 739 l 370 342 l 333 256 l 187 0 l -68 0 m 202 201 l 241 385 l 777 385 l 739 201 l 202 201 z "},"Á":{"ha":1002,"x_min":-68,"x_max":926,"o":"m -68 0 l 534 1000 l 725 1000 l 926 0 l 700 0 l 659 256 l 656 342 l 590 739 l 585 739 l 370 342 l 333 256 l 187 0 l -68 0 m 202 201 l 241 385 l 777 385 l 739 201 l 202 201 m 652 1048 l 544 1136 l 736 1344 l 865 1213 l 652 1048 z "},"Ă":{"ha":1002,"x_min":-68,"x_max":948,"o":"m -68 0 l 534 1000 l 725 1000 l 926 0 l 700 0 l 659 256 l 656 342 l 590 739 l 585 739 l 370 342 l 333 256 l 187 0 l -68 0 m 202 201 l 241 385 l 777 385 l 739 201 l 202 201 m 650 1062 q 524 1089 578 1062 q 443 1168 469 1117 q 433 1290 418 1219 l 555 1270 q 563 1214 549 1234 q 603 1184 576 1193 q 661 1175 630 1175 q 765 1205 718 1175 q 823 1290 812 1235 l 948 1270 q 888 1153 935 1200 q 779 1084 842 1107 q 650 1062 715 1062 z "},"Ắ":{"ha":1002,"x_min":-68,"x_max":928,"o":"m -68 0 l 534 1000 l 725 1000 l 926 0 l 700 0 l 659 256 l 656 342 l 590 739 l 585 739 l 370 342 l 333 256 l 187 0 l -68 0 m 202 201 l 241 385 l 777 385 l 739 201 l 202 201 m 661 1234 l 557 1310 l 714 1535 l 847 1423 l 661 1234 m 642 1060 q 514 1085 571 1060 q 429 1160 457 1111 q 414 1280 400 1210 l 536 1270 q 546 1213 531 1235 q 587 1181 560 1192 q 645 1171 614 1171 q 745 1201 701 1171 q 798 1285 789 1231 l 928 1275 q 872 1156 915 1204 q 770 1084 830 1108 q 642 1060 710 1060 z "},"Ặ":{"ha":1002,"x_min":-68,"x_max":948,"o":"m -68 0 l 534 1000 l 725 1000 l 926 0 l 700 0 l 659 256 l 656 342 l 590 739 l 585 739 l 370 342 l 333 256 l 187 0 l -68 0 m 202 201 l 241 385 l 777 385 l 739 201 l 202 201 m 406 -336 q 313 -298 351 -336 q 275 -205 275 -260 q 313 -113 275 -151 q 406 -75 351 -75 q 498 -113 460 -75 q 536 -205 536 -151 q 498 -298 536 -260 q 406 -336 460 -336 m 650 1063 q 524 1090 578 1063 q 443 1169 469 1118 q 433 1291 418 1220 l 555 1271 q 563 1214 549 1235 q 603 1185 576 1194 q 661 1176 630 1176 q 765 1206 718 1176 q 823 1291 812 1236 l 948 1271 q 888 1154 935 1200 q 779 1085 842 1107 q 650 1063 715 1063 z "},"Ằ":{"ha":1002,"x_min":-68,"x_max":928,"o":"m -68 0 l 534 1000 l 725 1000 l 926 0 l 700 0 l 659 256 l 656 342 l 590 739 l 585 739 l 370 342 l 333 256 l 187 0 l -68 0 m 202 201 l 241 385 l 777 385 l 739 201 l 202 201 m 677 1237 l 453 1400 l 570 1529 l 768 1335 l 677 1237 m 641 1060 q 513 1085 570 1060 q 427 1160 456 1111 q 412 1280 399 1210 l 535 1270 q 544 1213 530 1235 q 586 1181 559 1192 q 644 1171 613 1171 q 743 1201 699 1171 q 797 1285 787 1231 l 927 1275 q 871 1156 913 1204 q 769 1084 829 1108 q 641 1060 709 1060 z "},"Ẳ":{"ha":1002,"x_min":-68,"x_max":951,"o":"m -68 0 l 534 1000 l 725 1000 l 926 0 l 700 0 l 659 256 l 656 342 l 590 739 l 585 739 l 370 342 l 333 256 l 187 0 l -68 0 m 202 201 l 241 385 l 777 385 l 739 201 l 202 201 m 666 1059 q 537 1085 595 1059 q 452 1160 480 1110 q 437 1280 423 1209 l 560 1269 q 569 1213 554 1234 q 611 1180 584 1191 q 669 1170 637 1170 q 768 1200 724 1170 q 822 1284 812 1230 l 952 1274 q 896 1155 939 1203 q 794 1083 854 1107 q 666 1059 734 1059 m 675 1214 l 610 1296 q 654 1327 637 1310 q 676 1363 671 1343 q 669 1389 680 1379 q 625 1398 658 1398 q 578 1394 604 1398 q 534 1384 553 1390 l 551 1515 q 591 1523 570 1520 q 638 1526 612 1526 q 777 1486 736 1526 q 805 1379 818 1446 q 758 1283 794 1324 q 675 1214 722 1242 z "},"Ẵ":{"ha":1002,"x_min":-68,"x_max":986,"o":"m -68 0 l 534 1000 l 725 1000 l 926 0 l 700 0 l 659 256 l 656 342 l 590 739 l 585 739 l 370 342 l 333 256 l 187 0 l -68 0 m 202 201 l 241 385 l 777 385 l 739 201 l 202 201 m 549 1321 l 414 1335 q 485 1474 433 1421 q 609 1526 538 1526 q 670 1513 646 1526 q 713 1484 694 1501 q 748 1455 732 1468 q 783 1442 764 1442 q 827 1473 809 1442 q 851 1540 844 1503 l 986 1527 q 947 1423 975 1471 q 878 1347 918 1376 q 789 1318 838 1318 q 730 1331 754 1318 q 688 1359 706 1343 q 652 1388 669 1375 q 615 1400 635 1400 q 573 1381 590 1400 q 549 1321 557 1361 m 633 1060 q 505 1085 562 1060 q 419 1160 448 1111 q 404 1280 391 1210 l 527 1270 q 536 1213 522 1235 q 578 1181 551 1192 q 636 1171 605 1171 q 735 1201 692 1171 q 789 1285 779 1231 l 920 1275 q 864 1156 906 1204 q 761 1084 821 1108 q 633 1060 701 1060 z "},"Ǎ":{"ha":1002,"x_min":-68,"x_max":933,"o":"m -68 0 l 534 1000 l 725 1000 l 926 0 l 700 0 l 659 256 l 656 342 l 590 739 l 585 739 l 370 342 l 333 256 l 187 0 l -68 0 m 202 201 l 241 385 l 777 385 l 739 201 l 202 201 m 618 1050 l 404 1219 l 509 1316 l 654 1191 l 661 1191 l 850 1316 l 933 1219 l 661 1050 l 618 1050 z "},"Â":{"ha":1002,"x_min":-68,"x_max":928,"o":"m -68 0 l 534 1000 l 725 1000 l 926 0 l 700 0 l 659 256 l 656 342 l 590 739 l 585 739 l 370 342 l 333 256 l 187 0 l -68 0 m 202 201 l 241 385 l 777 385 l 739 201 l 202 201 m 482 1050 l 399 1148 l 672 1316 l 713 1316 l 928 1148 l 823 1050 l 677 1177 l 671 1177 l 482 1050 z "},"Ấ":{"ha":1002,"x_min":-68,"x_max":1133,"o":"m -68 0 l 534 1000 l 725 1000 l 926 0 l 700 0 l 659 256 l 656 342 l 590 739 l 585 739 l 370 342 l 333 256 l 187 0 l -68 0 m 202 201 l 241 385 l 777 385 l 739 201 l 202 201 m 875 1234 l 793 1301 l 1056 1527 l 1133 1392 l 875 1234 m 475 1040 l 392 1137 l 665 1304 l 706 1304 l 921 1137 l 816 1040 l 665 1165 l 667 1165 l 475 1040 z "},"Ậ":{"ha":1002,"x_min":-68,"x_max":928,"o":"m -68 0 l 534 1000 l 725 1000 l 926 0 l 700 0 l 659 256 l 656 342 l 590 739 l 585 739 l 370 342 l 333 256 l 187 0 l -68 0 m 202 201 l 241 385 l 777 385 l 739 201 l 202 201 m 406 -336 q 313 -298 351 -336 q 275 -205 275 -260 q 313 -113 275 -151 q 406 -75 351 -75 q 498 -113 460 -75 q 536 -205 536 -151 q 498 -298 536 -260 q 406 -336 460 -336 m 482 1050 l 399 1149 l 672 1317 l 713 1317 l 928 1149 l 823 1050 l 677 1177 l 671 1177 l 482 1050 z "},"Ầ":{"ha":1002,"x_min":-68,"x_max":926,"o":"m -68 0 l 534 1000 l 725 1000 l 926 0 l 700 0 l 659 256 l 656 342 l 590 739 l 585 739 l 370 342 l 333 256 l 187 0 l -68 0 m 202 201 l 241 385 l 777 385 l 739 201 l 202 201 m 396 1235 l 210 1438 l 340 1542 l 500 1301 l 396 1235 m 424 1042 l 341 1140 l 614 1307 l 655 1307 l 870 1140 l 765 1042 l 614 1168 l 616 1168 l 424 1042 z "},"Ẩ":{"ha":1002,"x_min":-68,"x_max":1005,"o":"m -68 0 l 534 1000 l 725 1000 l 926 0 l 700 0 l 659 256 l 656 342 l 590 739 l 585 739 l 370 342 l 333 256 l 187 0 l -68 0 m 202 201 l 241 385 l 777 385 l 739 201 l 202 201 m 886 1224 l 794 1299 q 843 1335 825 1316 q 863 1369 860 1354 q 857 1392 867 1384 q 817 1400 848 1400 q 773 1397 797 1400 q 730 1387 749 1394 l 747 1516 q 784 1525 764 1522 q 829 1528 804 1528 q 966 1488 926 1528 q 993 1381 1005 1449 q 953 1290 984 1330 q 886 1224 922 1249 m 474 1040 l 391 1137 l 664 1304 l 705 1304 l 920 1137 l 815 1040 l 665 1165 l 666 1165 l 474 1040 z "},"Ẫ":{"ha":1002,"x_min":-68,"x_max":987,"o":"m -68 0 l 534 1000 l 725 1000 l 926 0 l 700 0 l 659 256 l 656 342 l 590 739 l 585 739 l 370 342 l 333 256 l 187 0 l -68 0 m 202 201 l 241 385 l 777 385 l 739 201 l 202 201 m 549 1321 l 414 1335 q 486 1474 433 1421 q 610 1526 539 1526 q 671 1513 647 1526 q 714 1484 696 1501 q 749 1455 733 1468 q 785 1442 766 1442 q 828 1473 810 1442 q 852 1540 846 1503 l 987 1527 q 948 1423 977 1471 q 879 1347 920 1376 q 791 1318 839 1318 q 731 1331 755 1318 q 689 1359 707 1343 q 654 1388 671 1375 q 616 1400 637 1400 q 574 1381 591 1400 q 549 1321 557 1361 m 476 1040 l 393 1137 l 666 1304 l 707 1304 l 922 1137 l 817 1040 l 667 1165 l 668 1165 l 476 1040 z "},"Ȁ":{"ha":1002,"x_min":-68,"x_max":926,"o":"m -68 0 l 534 1000 l 725 1000 l 926 0 l 700 0 l 659 256 l 656 342 l 590 739 l 585 739 l 370 342 l 333 256 l 187 0 l -68 0 m 202 201 l 241 385 l 777 385 l 739 201 l 202 201 m 467 1059 l 332 1278 l 482 1355 l 580 1111 l 467 1059 m 735 1059 l 604 1278 l 754 1355 l 849 1111 l 735 1059 z "},"Ä":{"ha":1002,"x_min":-68,"x_max":954,"o":"m -68 0 l 534 1000 l 725 1000 l 926 0 l 700 0 l 659 256 l 656 342 l 590 739 l 585 739 l 370 342 l 333 256 l 187 0 l -68 0 m 202 201 l 241 385 l 777 385 l 739 201 l 202 201 m 840 1049 q 751 1084 787 1049 q 715 1171 715 1120 q 749 1255 715 1221 q 832 1289 783 1289 q 916 1255 881 1289 q 953 1168 951 1222 q 921 1082 954 1114 q 840 1049 887 1049 m 506 1049 q 419 1084 454 1049 q 384 1171 384 1120 q 416 1255 384 1221 q 498 1289 449 1289 q 585 1252 550 1289 q 621 1164 621 1215 q 588 1083 621 1116 q 506 1049 555 1049 z "},"Ȧ":{"ha":1002,"x_min":-68,"x_max":926,"o":"m -68 0 l 534 1000 l 725 1000 l 926 0 l 700 0 l 659 256 l 656 342 l 590 739 l 585 739 l 370 342 l 333 256 l 187 0 l -68 0 m 202 201 l 241 385 l 777 385 l 739 201 l 202 201 m 679 1060 q 586 1098 623 1060 q 548 1191 548 1136 q 586 1283 548 1246 q 679 1321 623 1321 q 771 1283 733 1321 q 809 1191 809 1246 q 771 1098 809 1136 q 679 1060 733 1060 z "},"Ạ":{"ha":1002,"x_min":-68,"x_max":926,"o":"m -68 0 l 534 1000 l 725 1000 l 926 0 l 700 0 l 659 256 l 656 342 l 590 739 l 585 739 l 370 342 l 333 256 l 187 0 l -68 0 m 202 201 l 241 385 l 777 385 l 739 201 l 202 201 m 406 -336 q 313 -298 351 -336 q 275 -205 275 -260 q 313 -113 275 -151 q 406 -75 351 -75 q 498 -113 460 -75 q 536 -205 536 -151 q 498 -298 536 -260 q 406 -336 460 -336 z "},"À":{"ha":1002,"x_min":-68,"x_max":926,"o":"m -68 0 l 534 1000 l 725 1000 l 926 0 l 700 0 l 659 256 l 656 342 l 590 739 l 585 739 l 370 342 l 333 256 l 187 0 l -68 0 m 202 201 l 241 385 l 777 385 l 739 201 l 202 201 m 645 1048 l 425 1213 l 545 1344 l 748 1136 l 645 1048 z "},"Ả":{"ha":1002,"x_min":-68,"x_max":926,"o":"m -68 0 l 534 1000 l 725 1000 l 926 0 l 700 0 l 659 256 l 656 342 l 590 739 l 585 739 l 370 342 l 333 256 l 187 0 l -68 0 m 202 201 l 241 385 l 777 385 l 739 201 l 202 201 m 673 1047 l 608 1129 q 653 1160 636 1143 q 675 1196 670 1177 q 667 1222 678 1213 q 623 1232 656 1232 q 577 1227 602 1232 q 532 1217 551 1223 l 549 1348 q 589 1356 568 1354 q 637 1359 610 1359 q 775 1319 734 1359 q 804 1213 817 1279 q 756 1116 793 1158 q 673 1047 720 1075 z "},"Ȃ":{"ha":1002,"x_min":-68,"x_max":926,"o":"m -68 0 l 534 1000 l 725 1000 l 926 0 l 700 0 l 659 256 l 656 342 l 590 739 l 585 739 l 370 342 l 333 256 l 187 0 l -68 0 m 202 201 l 241 385 l 777 385 l 739 201 l 202 201 m 901 1045 l 776 1065 q 755 1136 785 1105 q 665 1167 725 1167 q 563 1137 604 1167 q 511 1055 522 1107 l 387 1074 q 444 1193 399 1147 q 549 1261 488 1239 q 673 1283 610 1283 q 805 1252 748 1283 q 889 1168 862 1221 q 901 1045 917 1114 z "},"Ā":{"ha":1002,"x_min":-68,"x_max":950,"o":"m -68 0 l 534 1000 l 725 1000 l 926 0 l 700 0 l 659 256 l 656 342 l 590 739 l 585 739 l 370 342 l 333 256 l 187 0 l -68 0 m 202 201 l 241 385 l 777 385 l 739 201 l 202 201 m 382 1097 l 408 1237 l 950 1237 l 924 1097 l 382 1097 z "},"Ą":{"ha":1002,"x_min":-68,"x_max":926,"o":"m -68 0 l 534 1000 l 725 1000 l 926 0 l 700 0 l 659 256 l 656 342 l 590 739 l 585 739 l 370 342 l 333 256 l 187 0 l -68 0 m 202 201 l 241 385 l 777 385 l 739 201 l 202 201 m 770 -292 q 660 -248 696 -292 q 636 -136 623 -203 q 694 -43 647 -84 q 818 39 741 -3 l 925 0 q 854 -43 889 -20 q 796 -89 820 -66 q 767 -133 772 -112 q 774 -161 764 -150 q 810 -172 783 -172 q 858 -165 834 -172 q 894 -151 882 -157 l 880 -277 q 824 -289 857 -286 q 770 -292 790 -292 z "},"Å":{"ha":1002,"x_min":-68,"x_max":926,"o":"m -68 0 l 534 1000 l 725 1000 l 926 0 l 700 0 l 659 256 l 656 342 l 590 739 l 585 739 l 370 342 l 333 256 l 187 0 l -68 0 m 202 201 l 241 385 l 777 385 l 739 201 l 202 201 m 653 1044 q 559 1069 600 1044 q 499 1140 518 1095 q 492 1246 481 1185 q 567 1366 506 1319 q 706 1413 628 1413 q 803 1384 764 1413 q 859 1310 842 1356 q 864 1208 876 1263 q 825 1124 855 1161 q 750 1065 794 1086 q 653 1044 705 1044 m 653 1158 q 715 1184 688 1158 q 752 1248 743 1210 q 744 1282 756 1267 q 703 1297 732 1297 q 642 1271 669 1297 q 604 1206 614 1245 q 614 1172 600 1186 q 653 1158 629 1158 z "},"Ǻ":{"ha":1002,"x_min":-68,"x_max":978,"o":"m 666 1088 q 577 1112 615 1088 q 522 1174 540 1135 q 513 1262 504 1213 q 578 1368 526 1328 q 697 1408 631 1408 q 787 1384 749 1408 q 842 1320 825 1360 q 850 1234 859 1281 q 787 1132 838 1175 q 666 1088 736 1088 m 673 1183 q 719 1200 699 1183 q 745 1245 740 1218 q 735 1292 749 1271 q 691 1313 722 1313 q 645 1297 666 1313 q 618 1255 624 1281 q 628 1205 612 1227 q 673 1183 644 1183 m 766 1442 l 657 1531 l 850 1739 l 978 1607 l 766 1442 m -68 0 l 534 1000 l 725 1000 l 926 0 l 700 0 l 659 256 l 656 342 l 590 739 l 585 739 l 370 342 l 333 256 l 187 0 l -68 0 m 202 201 l 241 385 l 777 385 l 739 201 l 202 201 z "},"Ã":{"ha":1002,"x_min":-68,"x_max":947,"o":"m -68 0 l 534 1000 l 725 1000 l 926 0 l 700 0 l 659 256 l 656 342 l 590 739 l 585 739 l 370 342 l 333 256 l 187 0 l -68 0 m 202 201 l 241 385 l 777 385 l 739 201 l 202 201 m 513 1056 l 389 1076 q 457 1217 408 1164 q 577 1270 507 1270 q 645 1259 620 1270 q 684 1232 669 1247 q 711 1205 699 1217 q 741 1194 724 1194 q 793 1220 770 1194 q 823 1281 817 1247 l 947 1261 q 879 1120 930 1174 q 754 1066 828 1066 q 690 1078 714 1066 q 652 1106 667 1090 q 624 1134 637 1122 q 592 1145 611 1145 q 543 1121 565 1145 q 513 1056 522 1096 z "},"Æ":{"ha":1244,"x_min":-75,"x_max":1303,"o":"m -75 0 l 573 1000 l 726 1000 l 695 802 l 680 802 l 471 457 l 173 0 l -75 0 m 246 209 l 279 380 l 785 380 l 765 209 l 246 209 m 575 0 l 652 669 l 714 1000 l 1303 1000 l 1263 802 l 878 802 l 812 198 l 1141 198 l 1101 0 l 575 0 m 810 410 l 835 598 l 1165 598 l 1127 410 l 810 410 z "},"Ǽ":{"ha":1244,"x_min":-75,"x_max":1303,"o":"m -75 0 l 573 1000 l 726 1000 l 695 802 l 680 802 l 471 457 l 173 0 l -75 0 m 246 209 l 279 380 l 785 380 l 765 209 l 246 209 m 575 0 l 652 669 l 714 1000 l 1303 1000 l 1263 802 l 878 802 l 812 198 l 1141 198 l 1101 0 l 575 0 m 810 410 l 835 598 l 1165 598 l 1127 410 l 810 410 m 913 1048 l 806 1136 l 998 1344 l 1126 1213 l 913 1048 z "},"B":{"ha":889,"x_min":27,"x_max":836,"o":"m 231 0 l 270 194 l 476 194 q 547 213 516 194 q 594 262 577 232 q 611 329 611 293 q 599 380 611 359 q 563 412 587 401 q 505 423 538 423 l 313 423 l 347 590 l 494 590 q 557 610 530 590 q 600 659 585 629 q 615 720 615 689 q 602 768 615 749 q 562 796 588 787 q 499 806 536 806 l 389 806 l 429 1000 l 519 1000 q 684 971 612 1000 q 795 889 755 942 q 836 762 836 836 q 807 646 836 701 q 730 549 779 591 q 621 485 682 507 l 626 540 q 727 505 680 531 q 803 431 774 478 q 832 313 832 385 q 787 154 832 224 q 664 41 742 83 q 488 0 586 0 l 231 0 m 27 0 l 228 1000 l 454 1000 l 253 0 l 27 0 z "},"C":{"ha":909,"x_min":71,"x_max":952,"o":"m 539 -11 q 292 49 397 -11 q 129 212 186 109 q 71 446 71 315 q 115 662 71 560 q 238 842 159 764 q 419 966 316 921 q 641 1010 522 1010 q 805 987 724 1010 q 952 923 886 964 l 832 734 q 743 788 797 768 q 631 808 690 808 q 499 779 560 808 q 392 701 437 751 q 320 589 346 652 q 294 456 294 526 q 326 319 294 378 q 415 225 358 259 q 545 192 472 192 q 668 215 606 192 q 769 279 729 237 l 820 64 q 689 8 761 27 q 539 -11 616 -11 z "},"Ć":{"ha":909,"x_min":71,"x_max":952,"o":"m 539 -11 q 292 49 397 -11 q 129 212 186 109 q 71 446 71 315 q 115 662 71 560 q 238 842 159 764 q 419 966 316 921 q 641 1010 522 1010 q 805 987 724 1010 q 952 923 886 964 l 832 734 q 743 788 797 768 q 631 808 690 808 q 499 779 560 808 q 392 701 437 751 q 320 589 346 652 q 294 456 294 526 q 326 319 294 378 q 415 225 358 259 q 545 192 472 192 q 668 215 606 192 q 769 279 729 237 l 820 64 q 689 8 761 27 q 539 -11 616 -11 m 684 1048 l 576 1136 l 768 1344 l 897 1213 l 684 1048 z "},"Č":{"ha":909,"x_min":71,"x_max":966,"o":"m 539 -11 q 292 49 397 -11 q 129 212 186 109 q 71 446 71 315 q 115 662 71 560 q 238 842 159 764 q 419 966 316 921 q 641 1010 522 1010 q 805 987 724 1010 q 952 923 886 964 l 832 734 q 743 788 797 768 q 631 808 690 808 q 499 779 560 808 q 392 701 437 751 q 320 589 346 652 q 294 456 294 526 q 326 319 294 378 q 415 225 358 259 q 545 192 472 192 q 668 215 606 192 q 769 279 729 237 l 820 64 q 689 8 761 27 q 539 -11 616 -11 m 651 1050 l 436 1219 l 541 1316 l 687 1191 l 694 1191 l 883 1316 l 966 1219 l 693 1050 l 651 1050 z "},"Ç":{"ha":909,"x_min":71,"x_max":952,"o":"m 539 -11 q 292 49 397 -11 q 129 212 186 109 q 71 446 71 315 q 115 662 71 560 q 238 842 159 764 q 419 966 316 921 q 641 1010 522 1010 q 805 987 724 1010 q 952 923 886 964 l 832 734 q 743 788 797 768 q 631 808 690 808 q 499 779 560 808 q 392 701 437 751 q 320 589 346 652 q 294 456 294 526 q 326 319 294 378 q 415 225 358 259 q 545 192 472 192 q 668 215 606 192 q 769 279 729 237 l 820 64 q 689 8 761 27 q 539 -11 616 -11 m 305 -347 l 316 -243 q 427 -226 387 -245 q 473 -182 468 -207 q 456 -150 477 -161 q 383 -136 434 -139 l 450 0 l 547 0 l 484 -111 l 477 -64 q 544 -81 513 -64 q 589 -130 574 -98 q 595 -208 604 -162 q 551 -287 585 -256 q 457 -333 517 -318 q 305 -347 396 -347 z "},"Ḉ":{"ha":909,"x_min":71,"x_max":952,"o":"m 539 -11 q 292 49 397 -11 q 129 212 186 109 q 71 446 71 315 q 115 662 71 560 q 238 842 159 764 q 419 966 316 921 q 641 1010 522 1010 q 805 987 724 1010 q 952 923 886 964 l 832 734 q 743 788 797 768 q 631 808 690 808 q 499 779 560 808 q 392 701 437 751 q 320 589 346 652 q 294 456 294 526 q 326 319 294 378 q 415 225 358 259 q 545 192 472 192 q 668 215 606 192 q 769 279 729 237 l 820 64 q 689 8 761 27 q 539 -11 616 -11 m 305 -347 l 316 -243 q 427 -226 387 -245 q 473 -182 468 -207 q 456 -150 477 -161 q 383 -136 434 -139 l 450 0 l 547 0 l 484 -111 l 477 -64 q 544 -81 513 -64 q 589 -130 574 -98 q 595 -208 604 -162 q 551 -287 585 -256 q 457 -333 517 -318 q 305 -347 396 -347 m 684 1048 l 576 1136 l 768 1344 l 897 1213 l 684 1048 z "},"Ĉ":{"ha":909,"x_min":71,"x_max":960,"o":"m 539 -11 q 292 49 397 -11 q 129 212 186 109 q 71 446 71 315 q 115 662 71 560 q 238 842 159 764 q 419 966 316 921 q 641 1010 522 1010 q 805 987 724 1010 q 952 923 886 964 l 832 734 q 743 788 797 768 q 631 808 690 808 q 499 779 560 808 q 392 701 437 751 q 320 589 346 652 q 294 456 294 526 q 326 319 294 378 q 415 225 358 259 q 545 192 472 192 q 668 215 606 192 q 769 279 729 237 l 820 64 q 689 8 761 27 q 539 -11 616 -11 m 515 1050 l 431 1148 l 705 1316 l 746 1316 l 960 1148 l 855 1050 l 710 1177 l 704 1177 l 515 1050 z "},"Ċ":{"ha":909,"x_min":71,"x_max":952,"o":"m 539 -11 q 292 49 397 -11 q 129 212 186 109 q 71 446 71 315 q 115 662 71 560 q 238 842 159 764 q 419 966 316 921 q 641 1010 522 1010 q 805 987 724 1010 q 952 923 886 964 l 832 734 q 743 788 797 768 q 631 808 690 808 q 499 779 560 808 q 392 701 437 751 q 320 589 346 652 q 294 456 294 526 q 326 319 294 378 q 415 225 358 259 q 545 192 472 192 q 668 215 606 192 q 769 279 729 237 l 820 64 q 689 8 761 27 q 539 -11 616 -11 m 711 1060 q 618 1098 656 1060 q 581 1191 581 1136 q 618 1283 581 1246 q 711 1321 656 1321 q 804 1283 766 1321 q 842 1191 842 1246 q 804 1098 842 1136 q 711 1060 766 1060 z "},"D":{"ha":972,"x_min":27,"x_max":953,"o":"m 27 0 l 228 1000 l 521 1000 q 748 940 651 1000 q 899 778 845 880 q 953 545 953 675 q 913 332 953 431 q 800 159 873 233 q 628 42 727 84 q 412 0 530 0 l 27 0 m 293 198 l 439 198 q 558 228 505 198 q 651 307 612 257 q 711 420 690 357 q 732 550 732 483 q 705 679 732 623 q 628 769 679 736 q 506 802 578 802 l 415 802 l 293 198 z "},"Ǆ":{"ha":1775,"x_min":27,"x_max":1837,"o":"m 27 0 l 228 1000 l 521 1000 q 748 940 651 1000 q 899 778 845 880 q 953 545 953 675 q 913 332 953 431 q 800 159 873 233 q 628 42 727 84 q 412 0 530 0 l 27 0 m 293 198 l 439 198 q 558 228 505 198 q 651 307 612 257 q 711 420 690 357 q 732 550 732 483 q 705 679 732 623 q 628 769 679 736 q 506 802 578 802 l 415 802 l 293 198 m 916 0 l 922 33 l 1462 800 l 1462 804 l 1099 804 l 1138 1000 l 1837 1000 l 1830 965 l 1289 200 l 1289 195 l 1692 195 l 1653 0 l 916 0 m 1472 1050 l 1257 1219 l 1362 1316 l 1508 1191 l 1514 1191 l 1704 1316 l 1786 1219 l 1514 1050 l 1472 1050 z "},"Ď":{"ha":972,"x_min":27,"x_max":953,"o":"m 27 0 l 228 1000 l 521 1000 q 748 940 651 1000 q 899 778 845 880 q 953 545 953 675 q 913 332 953 431 q 800 159 873 233 q 628 42 727 84 q 412 0 530 0 l 27 0 m 293 198 l 439 198 q 558 228 505 198 q 651 307 612 257 q 711 420 690 357 q 732 550 732 483 q 705 679 732 623 q 628 769 679 736 q 506 802 578 802 l 415 802 l 293 198 m 581 1050 l 366 1219 l 471 1316 l 617 1191 l 624 1191 l 813 1316 l 896 1219 l 623 1050 l 581 1050 z "},"Đ":{"ha":1002,"x_min":50,"x_max":983,"o":"m 57 0 l 258 1000 l 551 1000 q 778 940 681 1000 q 929 778 875 880 q 983 545 983 675 q 943 332 983 431 q 830 159 903 233 q 658 42 757 84 q 441 0 559 0 l 57 0 m 323 198 l 469 198 q 588 228 534 198 q 681 307 642 257 q 741 420 720 357 q 762 550 762 483 q 735 679 762 623 q 658 769 709 736 q 536 802 608 802 l 445 802 l 323 198 m 50 445 l 72 554 l 511 554 l 488 445 l 50 445 z "},"Ḍ":{"ha":972,"x_min":27,"x_max":953,"o":"m 27 0 l 228 1000 l 521 1000 q 748 940 651 1000 q 899 778 845 880 q 953 545 953 675 q 913 332 953 431 q 800 159 873 233 q 628 42 727 84 q 412 0 530 0 l 27 0 m 293 198 l 439 198 q 558 228 505 198 q 651 307 612 257 q 711 420 690 357 q 732 550 732 483 q 705 679 732 623 q 628 769 679 736 q 506 802 578 802 l 415 802 l 293 198 m 351 -336 q 257 -298 295 -336 q 220 -205 220 -260 q 257 -113 220 -151 q 351 -75 295 -75 q 443 -113 405 -75 q 481 -205 481 -151 q 443 -298 481 -260 q 351 -336 405 -336 z "},"Ḏ":{"ha":972,"x_min":27,"x_max":953,"o":"m 27 0 l 228 1000 l 521 1000 q 748 940 651 1000 q 899 778 845 880 q 953 545 953 675 q 913 332 953 431 q 800 159 873 233 q 628 42 727 84 q 412 0 530 0 l 27 0 m 293 198 l 439 198 q 558 228 505 198 q 651 307 612 257 q 711 420 690 357 q 732 550 732 483 q 705 679 732 623 q 628 769 679 736 q 506 802 578 802 l 415 802 l 293 198 m 48 -281 l 74 -152 l 648 -152 l 623 -281 l 48 -281 z "},"ǅ":{"ha":1636,"x_min":27,"x_max":1675,"o":"m 27 0 l 228 1000 l 521 1000 q 748 940 651 1000 q 899 778 845 880 q 953 545 953 675 q 913 332 953 431 q 800 159 873 233 q 628 42 727 84 q 412 0 530 0 l 27 0 m 293 198 l 439 198 q 558 228 505 198 q 651 307 612 257 q 711 420 690 357 q 732 550 732 483 q 705 679 732 623 q 628 769 679 736 q 506 802 578 802 l 415 802 l 293 198 m 916 0 l 922 43 l 1310 538 l 1310 546 l 1050 546 l 1086 730 l 1666 730 l 1657 686 l 1270 190 l 1270 184 l 1554 184 l 1517 0 l 916 0 m 1356 777 l 1147 983 l 1237 1083 l 1394 926 l 1399 926 l 1602 1083 l 1675 983 l 1397 777 l 1356 777 z "},"Ð":{"ha":1002,"x_min":50,"x_max":983,"o":"m 57 0 l 258 1000 l 551 1000 q 778 940 681 1000 q 929 778 875 880 q 983 545 983 675 q 943 332 983 431 q 830 159 903 233 q 658 42 757 84 q 441 0 559 0 l 57 0 m 323 198 l 469 198 q 588 228 534 198 q 681 307 642 257 q 741 420 720 357 q 762 550 762 483 q 735 679 762 623 q 658 769 709 736 q 536 802 608 802 l 445 802 l 323 198 m 50 445 l 72 554 l 511 554 l 488 445 l 50 445 z "},"E":{"ha":736,"x_min":27,"x_max":795,"o":"m 27 0 l 228 1000 l 795 1000 l 753 802 l 414 802 l 374 602 l 659 602 l 620 410 l 336 410 l 295 198 l 634 198 l 594 0 l 27 0 z "},"É":{"ha":736,"x_min":27,"x_max":795,"o":"m 27 0 l 228 1000 l 795 1000 l 753 802 l 414 802 l 374 602 l 659 602 l 620 410 l 336 410 l 295 198 l 634 198 l 594 0 l 27 0 m 541 1048 l 433 1136 l 625 1344 l 754 1213 l 541 1048 z "},"Ĕ":{"ha":736,"x_min":27,"x_max":838,"o":"m 27 0 l 228 1000 l 795 1000 l 753 802 l 414 802 l 374 602 l 659 602 l 620 410 l 336 410 l 295 198 l 634 198 l 594 0 l 27 0 m 540 1062 q 413 1089 468 1062 q 333 1168 358 1117 q 322 1290 307 1219 l 445 1270 q 452 1214 438 1234 q 493 1184 466 1193 q 550 1175 519 1175 q 654 1205 608 1175 q 712 1290 701 1235 l 838 1270 q 778 1153 824 1200 q 668 1084 731 1107 q 540 1062 605 1062 z "},"Ě":{"ha":736,"x_min":27,"x_max":823,"o":"m 27 0 l 228 1000 l 795 1000 l 753 802 l 414 802 l 374 602 l 659 602 l 620 410 l 336 410 l 295 198 l 634 198 l 594 0 l 27 0 m 508 1050 l 293 1219 l 398 1316 l 544 1191 l 551 1191 l 740 1316 l 823 1219 l 550 1050 l 508 1050 z "},"Ḝ":{"ha":736,"x_min":27,"x_max":838,"o":"m 27 0 l 228 1000 l 795 1000 l 753 802 l 414 802 l 374 602 l 659 602 l 620 410 l 336 410 l 295 198 l 634 198 l 594 0 l 27 0 m 142 -347 l 153 -243 q 264 -226 224 -245 q 310 -182 305 -207 q 293 -150 315 -161 q 220 -136 271 -139 l 287 0 l 385 0 l 321 -111 l 314 -64 q 381 -81 351 -64 q 426 -130 411 -98 q 432 -208 441 -162 q 389 -287 422 -256 q 294 -333 355 -318 q 142 -347 233 -347 m 540 1062 q 413 1089 468 1062 q 333 1168 358 1117 q 322 1290 307 1219 l 445 1270 q 452 1214 438 1234 q 493 1184 466 1193 q 550 1175 519 1175 q 654 1205 608 1175 q 712 1290 701 1235 l 838 1270 q 778 1153 824 1200 q 668 1084 731 1107 q 540 1062 605 1062 z "},"Ê":{"ha":736,"x_min":27,"x_max":817,"o":"m 27 0 l 228 1000 l 795 1000 l 753 802 l 414 802 l 374 602 l 659 602 l 620 410 l 336 410 l 295 198 l 634 198 l 594 0 l 27 0 m 371 1050 l 288 1148 l 561 1316 l 602 1316 l 817 1148 l 711 1050 l 566 1177 l 560 1177 l 371 1050 z "},"Ế":{"ha":736,"x_min":27,"x_max":1023,"o":"m 27 0 l 228 1000 l 795 1000 l 753 802 l 414 802 l 374 602 l 659 602 l 620 410 l 336 410 l 295 198 l 634 198 l 594 0 l 27 0 m 764 1234 l 683 1301 l 945 1527 l 1022 1392 l 764 1234 m 364 1040 l 281 1137 l 554 1304 l 595 1304 l 810 1137 l 705 1040 l 555 1165 l 556 1165 l 364 1040 z "},"Ệ":{"ha":736,"x_min":27,"x_max":835,"o":"m 27 0 l 228 1000 l 795 1000 l 753 802 l 414 802 l 374 602 l 659 602 l 620 410 l 336 410 l 295 198 l 634 198 l 594 0 l 27 0 m 313 -336 q 220 -298 258 -336 q 182 -205 182 -260 q 220 -113 182 -151 q 313 -75 258 -75 q 406 -113 368 -75 q 444 -205 444 -151 q 406 -298 444 -260 q 313 -336 368 -336 m 389 1050 l 306 1149 l 579 1317 l 621 1317 l 835 1149 l 730 1050 l 585 1177 l 578 1177 l 389 1050 z "},"Ề":{"ha":736,"x_min":27,"x_max":795,"o":"m 27 0 l 228 1000 l 795 1000 l 753 802 l 414 802 l 374 602 l 659 602 l 620 410 l 336 410 l 295 198 l 634 198 l 594 0 l 27 0 m 286 1235 l 100 1438 l 230 1542 l 390 1301 l 286 1235 m 313 1042 l 231 1140 l 503 1307 l 545 1307 l 760 1140 l 654 1042 l 504 1168 l 505 1168 l 313 1042 z "},"Ể":{"ha":736,"x_min":27,"x_max":895,"o":"m 27 0 l 228 1000 l 795 1000 l 753 802 l 414 802 l 374 602 l 659 602 l 620 410 l 336 410 l 295 198 l 634 198 l 594 0 l 27 0 m 774 1224 l 683 1299 q 731 1335 714 1316 q 752 1369 749 1354 q 746 1392 755 1384 q 705 1400 736 1400 q 662 1397 686 1400 q 619 1387 638 1394 l 635 1516 q 673 1525 653 1522 q 718 1528 692 1528 q 854 1488 815 1528 q 882 1381 894 1449 q 842 1290 873 1330 q 774 1224 811 1249 m 363 1040 l 280 1137 l 553 1304 l 594 1304 l 809 1137 l 704 1040 l 553 1165 l 555 1165 l 363 1040 z "},"Ễ":{"ha":736,"x_min":27,"x_max":877,"o":"m 27 0 l 228 1000 l 795 1000 l 753 802 l 414 802 l 374 602 l 659 602 l 620 410 l 336 410 l 295 198 l 634 198 l 594 0 l 27 0 m 438 1321 l 303 1335 q 375 1474 321 1421 q 499 1526 428 1526 q 560 1513 536 1526 q 603 1484 585 1501 q 638 1455 622 1468 q 673 1442 654 1442 q 717 1473 699 1442 q 741 1540 734 1503 l 876 1527 q 837 1423 865 1471 q 768 1347 808 1376 q 680 1318 728 1318 q 620 1331 644 1318 q 578 1359 596 1343 q 543 1388 559 1375 q 505 1400 526 1400 q 463 1381 480 1400 q 438 1321 446 1361 m 365 1040 l 282 1137 l 555 1304 l 596 1304 l 811 1137 l 706 1040 l 555 1165 l 557 1165 l 365 1040 z "},"Ȅ":{"ha":736,"x_min":27,"x_max":795,"o":"m 27 0 l 228 1000 l 795 1000 l 753 802 l 414 802 l 374 602 l 659 602 l 620 410 l 336 410 l 295 198 l 634 198 l 594 0 l 27 0 m 356 1059 l 221 1278 l 372 1355 l 469 1111 l 356 1059 m 625 1059 l 493 1278 l 644 1355 l 739 1111 l 625 1059 z "},"Ë":{"ha":736,"x_min":27,"x_max":844,"o":"m 27 0 l 228 1000 l 795 1000 l 753 802 l 414 802 l 374 602 l 659 602 l 620 410 l 336 410 l 295 198 l 634 198 l 594 0 l 27 0 m 730 1049 q 641 1084 677 1049 q 605 1171 605 1120 q 638 1255 605 1221 q 722 1289 672 1289 q 806 1255 770 1289 q 842 1168 841 1222 q 810 1082 844 1114 q 730 1049 777 1049 m 395 1049 q 309 1084 344 1049 q 273 1171 273 1120 q 306 1255 273 1221 q 387 1289 338 1289 q 475 1252 439 1289 q 510 1164 510 1215 q 477 1083 510 1116 q 395 1049 444 1049 z "},"Ė":{"ha":736,"x_min":27,"x_max":795,"o":"m 27 0 l 228 1000 l 795 1000 l 753 802 l 414 802 l 374 602 l 659 602 l 620 410 l 336 410 l 295 198 l 634 198 l 594 0 l 27 0 m 568 1060 q 475 1098 513 1060 q 437 1191 437 1136 q 475 1283 437 1246 q 568 1321 513 1321 q 661 1283 623 1321 q 699 1191 699 1246 q 661 1098 699 1136 q 568 1060 623 1060 z "},"Ẹ":{"ha":736,"x_min":27,"x_max":795,"o":"m 27 0 l 228 1000 l 795 1000 l 753 802 l 414 802 l 374 602 l 659 602 l 620 410 l 336 410 l 295 198 l 634 198 l 594 0 l 27 0 m 298 -336 q 204 -298 242 -336 q 167 -205 167 -260 q 204 -113 167 -151 q 298 -75 242 -75 q 390 -113 352 -75 q 428 -205 428 -151 q 390 -298 428 -260 q 298 -336 352 -336 z "},"È":{"ha":736,"x_min":27,"x_max":795,"o":"m 27 0 l 228 1000 l 795 1000 l 753 802 l 414 802 l 374 602 l 659 602 l 620 410 l 336 410 l 295 198 l 634 198 l 594 0 l 27 0 m 534 1048 l 313 1213 l 433 1344 l 637 1136 l 534 1048 z "},"Ẻ":{"ha":736,"x_min":27,"x_max":795,"o":"m 27 0 l 228 1000 l 795 1000 l 753 802 l 414 802 l 374 602 l 659 602 l 620 410 l 336 410 l 295 198 l 634 198 l 594 0 l 27 0 m 563 1047 l 498 1129 q 543 1160 526 1143 q 564 1196 559 1177 q 557 1222 568 1213 q 513 1232 546 1232 q 466 1227 492 1232 q 422 1217 441 1223 l 439 1348 q 479 1356 458 1354 q 526 1359 500 1359 q 665 1319 624 1359 q 693 1213 706 1279 q 646 1116 682 1158 q 563 1047 610 1075 z "},"Ȇ":{"ha":736,"x_min":27,"x_max":806,"o":"m 27 0 l 228 1000 l 795 1000 l 753 802 l 414 802 l 374 602 l 659 602 l 620 410 l 336 410 l 295 198 l 634 198 l 594 0 l 27 0 m 791 1045 l 665 1065 q 644 1136 674 1105 q 554 1167 614 1167 q 452 1137 493 1167 q 401 1055 412 1107 l 276 1074 q 333 1193 289 1147 q 439 1261 378 1239 q 562 1283 500 1283 q 694 1252 637 1283 q 779 1168 751 1221 q 791 1045 806 1114 z "},"Ē":{"ha":736,"x_min":27,"x_max":840,"o":"m 27 0 l 228 1000 l 795 1000 l 753 802 l 414 802 l 374 602 l 659 602 l 620 410 l 336 410 l 295 198 l 634 198 l 594 0 l 27 0 m 271 1097 l 298 1237 l 840 1237 l 813 1097 l 271 1097 z "},"Ḗ":{"ha":736,"x_min":27,"x_max":840,"o":"m 27 0 l 228 1000 l 795 1000 l 753 802 l 414 802 l 374 602 l 659 602 l 620 410 l 336 410 l 295 198 l 634 198 l 594 0 l 27 0 m 271 1097 l 298 1237 l 840 1237 l 813 1097 l 271 1097 m 587 1286 l 479 1374 l 671 1582 l 800 1451 l 587 1286 z "},"Ḕ":{"ha":736,"x_min":27,"x_max":840,"o":"m 27 0 l 228 1000 l 795 1000 l 753 802 l 414 802 l 374 602 l 659 602 l 620 410 l 336 410 l 295 198 l 634 198 l 594 0 l 27 0 m 271 1097 l 298 1237 l 840 1237 l 813 1097 l 271 1097 m 580 1286 l 359 1451 l 479 1582 l 683 1374 l 580 1286 z "},"Ę":{"ha":736,"x_min":27,"x_max":795,"o":"m 27 0 l 228 1000 l 795 1000 l 753 802 l 414 802 l 374 602 l 659 602 l 620 410 l 336 410 l 295 198 l 634 198 l 594 0 l 27 0 m 439 -292 q 328 -248 365 -292 q 304 -136 291 -203 q 362 -43 315 -84 q 486 39 410 -3 l 593 0 q 523 -43 557 -20 q 465 -89 488 -66 q 435 -133 441 -112 q 442 -161 433 -150 q 478 -172 452 -172 q 527 -165 503 -172 q 562 -151 551 -157 l 548 -277 q 492 -289 526 -286 q 439 -292 458 -292 z "},"Ẽ":{"ha":736,"x_min":27,"x_max":837,"o":"m 27 0 l 228 1000 l 795 1000 l 753 802 l 414 802 l 374 602 l 659 602 l 620 410 l 336 410 l 295 198 l 634 198 l 594 0 l 27 0 m 402 1056 l 279 1076 q 347 1217 297 1164 q 467 1270 396 1270 q 534 1259 509 1270 q 574 1232 559 1247 q 601 1205 589 1217 q 630 1194 613 1194 q 683 1220 659 1194 q 713 1281 706 1247 l 837 1261 q 769 1120 820 1174 q 644 1066 718 1066 q 580 1078 604 1066 q 541 1106 556 1090 q 513 1134 526 1122 q 481 1145 500 1145 q 433 1121 454 1145 q 402 1056 411 1096 z "},"Ə":{"ha":1026,"x_min":54,"x_max":1015,"o":"m 446 -12 q 238 35 326 -12 q 102 163 150 81 q 54 357 54 246 q 62 450 54 397 q 86 572 70 503 l 860 572 l 827 392 l 260 392 q 257 372 258 382 q 256 353 256 361 q 315 227 256 276 q 461 178 373 178 q 598 214 537 178 q 703 308 659 249 q 770 440 747 367 q 793 590 793 514 q 741 758 793 700 q 594 817 689 817 q 450 780 513 817 q 344 690 387 743 l 165 790 q 359 952 244 894 q 608 1010 475 1010 q 819 962 727 1010 q 963 821 911 913 q 1015 596 1015 728 q 973 366 1015 475 q 854 172 931 256 q 673 38 778 87 q 446 -12 569 -12 z "},"F":{"ha":707,"x_min":27,"x_max":793,"o":"m 27 0 l 228 1000 l 793 1000 l 753 802 l 414 802 l 368 572 l 650 572 l 610 374 l 329 374 l 254 0 l 27 0 z "},"G":{"ha":1031,"x_min":71,"x_max":1021,"o":"m 511 -11 q 331 24 412 -11 q 192 122 250 60 q 102 267 134 184 q 71 444 71 349 q 115 664 71 562 q 238 845 159 767 q 421 967 317 923 q 646 1010 526 1010 q 825 985 744 1010 q 958 922 906 959 l 838 732 q 758 786 816 764 q 634 808 700 808 q 500 779 562 808 q 392 700 438 751 q 320 585 346 650 q 294 447 294 519 q 322 316 294 375 q 402 222 350 257 q 527 188 454 188 q 649 218 595 188 q 736 304 703 249 q 777 435 770 359 l 873 392 l 519 392 l 555 572 l 1021 572 l 987 397 q 899 190 964 282 q 734 43 833 97 q 511 -11 635 -11 z "},"Ğ":{"ha":1031,"x_min":71,"x_max":1021,"o":"m 511 -11 q 331 24 412 -11 q 192 122 250 60 q 102 267 134 184 q 71 444 71 349 q 115 664 71 562 q 238 845 159 767 q 421 967 317 923 q 646 1010 526 1010 q 825 985 744 1010 q 958 922 906 959 l 838 732 q 758 786 816 764 q 634 808 700 808 q 500 779 562 808 q 392 700 438 751 q 320 585 346 650 q 294 447 294 519 q 322 316 294 375 q 402 222 350 257 q 527 188 454 188 q 649 218 595 188 q 736 304 703 249 q 777 435 770 359 l 873 392 l 519 392 l 555 572 l 1021 572 l 987 397 q 899 190 964 282 q 734 43 833 97 q 511 -11 635 -11 m 669 1062 q 542 1089 597 1062 q 461 1168 487 1117 q 451 1290 436 1219 l 574 1270 q 581 1214 567 1234 q 622 1184 595 1193 q 679 1175 648 1175 q 783 1205 736 1175 q 841 1290 830 1235 l 966 1270 q 906 1153 953 1200 q 797 1084 860 1107 q 669 1062 734 1062 z "},"Ǧ":{"ha":1031,"x_min":71,"x_max":1021,"o":"m 511 -11 q 331 24 412 -11 q 192 122 250 60 q 102 267 134 184 q 71 444 71 349 q 115 664 71 562 q 238 845 159 767 q 421 967 317 923 q 646 1010 526 1010 q 825 985 744 1010 q 958 922 906 959 l 838 732 q 758 786 816 764 q 634 808 700 808 q 500 779 562 808 q 392 700 438 751 q 320 585 346 650 q 294 447 294 519 q 322 316 294 375 q 402 222 350 257 q 527 188 454 188 q 649 218 595 188 q 736 304 703 249 q 777 435 770 359 l 873 392 l 519 392 l 555 572 l 1021 572 l 987 397 q 899 190 964 282 q 734 43 833 97 q 511 -11 635 -11 m 637 1050 l 422 1219 l 528 1316 l 673 1191 l 680 1191 l 869 1316 l 952 1219 l 680 1050 l 637 1050 z "},"Ĝ":{"ha":1031,"x_min":71,"x_max":1021,"o":"m 511 -11 q 331 24 412 -11 q 192 122 250 60 q 102 267 134 184 q 71 444 71 349 q 115 664 71 562 q 238 845 159 767 q 421 967 317 923 q 646 1010 526 1010 q 825 985 744 1010 q 958 922 906 959 l 838 732 q 758 786 816 764 q 634 808 700 808 q 500 779 562 808 q 392 700 438 751 q 320 585 346 650 q 294 447 294 519 q 322 316 294 375 q 402 222 350 257 q 527 188 454 188 q 649 218 595 188 q 736 304 703 249 q 777 435 770 359 l 873 392 l 519 392 l 555 572 l 1021 572 l 987 397 q 899 190 964 282 q 734 43 833 97 q 511 -11 635 -11 m 500 1050 l 417 1148 l 690 1316 l 732 1316 l 946 1148 l 841 1050 l 696 1177 l 690 1177 l 500 1050 z "},"Ģ":{"ha":1031,"x_min":71,"x_max":1021,"o":"m 511 -11 q 331 24 412 -11 q 192 122 250 60 q 102 267 134 184 q 71 444 71 349 q 115 664 71 562 q 238 845 159 767 q 421 967 317 923 q 646 1010 526 1010 q 825 985 744 1010 q 958 922 906 959 l 838 732 q 758 786 816 764 q 634 808 700 808 q 500 779 562 808 q 392 700 438 751 q 320 585 346 650 q 294 447 294 519 q 322 316 294 375 q 402 222 350 257 q 527 188 454 188 q 649 218 595 188 q 736 304 703 249 q 777 435 770 359 l 873 392 l 519 392 l 555 572 l 1021 572 l 987 397 q 899 190 964 282 q 734 43 833 97 q 511 -11 635 -11 m 338 -393 l 302 -337 l 385 -289 q 415 -271 395 -282 q 450 -242 435 -260 q 465 -197 466 -224 l 480 -197 q 473 -230 484 -212 q 433 -248 463 -248 q 371 -222 401 -248 q 341 -155 341 -195 q 369 -93 341 -118 q 435 -67 396 -67 q 503 -95 472 -67 q 533 -178 533 -123 q 502 -276 533 -240 q 428 -337 471 -311 l 338 -393 z "},"Ġ":{"ha":1031,"x_min":71,"x_max":1021,"o":"m 511 -11 q 331 24 412 -11 q 192 122 250 60 q 102 267 134 184 q 71 444 71 349 q 115 664 71 562 q 238 845 159 767 q 421 967 317 923 q 646 1010 526 1010 q 825 985 744 1010 q 958 922 906 959 l 838 732 q 758 786 816 764 q 634 808 700 808 q 500 779 562 808 q 392 700 438 751 q 320 585 346 650 q 294 447 294 519 q 322 316 294 375 q 402 222 350 257 q 527 188 454 188 q 649 218 595 188 q 736 304 703 249 q 777 435 770 359 l 873 392 l 519 392 l 555 572 l 1021 572 l 987 397 q 899 190 964 282 q 734 43 833 97 q 511 -11 635 -11 m 697 1060 q 604 1098 642 1060 q 566 1191 566 1136 q 604 1283 566 1246 q 697 1321 642 1321 q 789 1283 751 1321 q 827 1191 827 1246 q 789 1098 827 1136 q 697 1060 751 1060 z "},"Ḡ":{"ha":1031,"x_min":71,"x_max":1021,"o":"m 511 -11 q 331 24 412 -11 q 192 122 250 60 q 102 267 134 184 q 71 444 71 349 q 115 664 71 562 q 238 845 159 767 q 421 967 317 923 q 646 1010 526 1010 q 825 985 744 1010 q 958 922 906 959 l 838 732 q 758 786 816 764 q 634 808 700 808 q 500 779 562 808 q 392 700 438 751 q 320 585 346 650 q 294 447 294 519 q 322 316 294 375 q 402 222 350 257 q 527 188 454 188 q 649 218 595 188 q 736 304 703 249 q 777 435 770 359 l 873 392 l 519 392 l 555 572 l 1021 572 l 987 397 q 899 190 964 282 q 734 43 833 97 q 511 -11 635 -11 m 400 1097 l 427 1237 l 968 1237 l 942 1097 l 400 1097 z "},"H":{"ha":1021,"x_min":27,"x_max":1048,"o":"m 27 0 l 227 1000 l 454 1000 l 374 604 l 743 604 l 822 1000 l 1048 1000 l 848 0 l 623 0 l 703 406 l 335 406 l 253 0 l 27 0 z "},"Ħ":{"ha":1143,"x_min":28,"x_max":1152,"o":"m 39 734 l 65 852 l 1152 852 l 1127 734 l 39 734 m 28 0 l 229 1000 l 455 1000 l 376 604 l 744 604 l 823 1000 l 1049 1000 l 850 0 l 624 0 l 705 406 l 336 406 l 255 0 l 28 0 z "},"Ḫ":{"ha":1021,"x_min":27,"x_max":1048,"o":"m 27 0 l 227 1000 l 454 1000 l 374 604 l 743 604 l 822 1000 l 1048 1000 l 848 0 l 623 0 l 703 406 l 335 406 l 253 0 l 27 0 m 395 -313 q 266 -279 321 -313 q 185 -191 211 -245 q 171 -71 159 -136 l 299 -90 q 318 -168 290 -138 q 397 -197 347 -197 q 472 -179 436 -197 q 533 -132 508 -161 q 564 -71 557 -103 l 692 -90 q 635 -205 679 -155 q 529 -284 591 -256 q 395 -313 467 -313 z "},"Ĥ":{"ha":1021,"x_min":27,"x_max":1048,"o":"m 27 0 l 227 1000 l 454 1000 l 374 604 l 743 604 l 822 1000 l 1048 1000 l 848 0 l 623 0 l 703 406 l 335 406 l 253 0 l 27 0 m 486 1050 l 402 1148 l 675 1316 l 717 1316 l 931 1148 l 826 1050 l 681 1177 l 675 1177 l 486 1050 z "},"Ḥ":{"ha":1021,"x_min":27,"x_max":1048,"o":"m 27 0 l 227 1000 l 454 1000 l 374 604 l 743 604 l 822 1000 l 1048 1000 l 848 0 l 623 0 l 703 406 l 335 406 l 253 0 l 27 0 m 397 -336 q 303 -298 341 -336 q 266 -205 266 -260 q 303 -113 266 -151 q 397 -75 341 -75 q 489 -113 451 -75 q 527 -205 527 -151 q 489 -298 527 -260 q 397 -336 451 -336 z "},"I":{"ha":448,"x_min":38,"x_max":465,"o":"m 38 0 l 238 1000 l 465 1000 l 264 0 l 38 0 z "},"Í":{"ha":448,"x_min":38,"x_max":583,"o":"m 38 0 l 238 1000 l 465 1000 l 264 0 l 38 0 m 370 1048 l 262 1136 l 454 1344 l 583 1213 l 370 1048 z "},"Ĭ":{"ha":470,"x_min":49,"x_max":677,"o":"m 49 0 l 249 1000 l 475 1000 l 275 0 l 49 0 m 379 1062 q 252 1089 307 1062 q 172 1168 197 1117 q 161 1290 146 1219 l 284 1270 q 291 1214 277 1234 q 332 1184 305 1193 q 389 1175 359 1175 q 494 1205 447 1175 q 551 1290 541 1235 l 677 1270 q 617 1153 663 1200 q 507 1084 570 1107 q 379 1062 444 1062 z "},"Ǐ":{"ha":470,"x_min":49,"x_max":663,"o":"m 49 0 l 249 1000 l 475 1000 l 275 0 l 49 0 m 348 1050 l 133 1219 l 238 1316 l 384 1191 l 391 1191 l 580 1316 l 663 1219 l 390 1050 l 348 1050 z "},"Î":{"ha":470,"x_min":49,"x_max":656,"o":"m 49 0 l 249 1000 l 475 1000 l 275 0 l 49 0 m 211 1050 l 127 1148 l 401 1316 l 442 1316 l 656 1148 l 551 1050 l 406 1177 l 400 1177 l 211 1050 z "},"Ȉ":{"ha":470,"x_min":49,"x_max":578,"o":"m 49 0 l 249 1000 l 475 1000 l 275 0 l 49 0 m 196 1059 l 61 1278 l 212 1355 l 309 1111 l 196 1059 m 465 1059 l 333 1278 l 484 1355 l 578 1111 l 465 1059 z "},"Ï":{"ha":517,"x_min":73,"x_max":707,"o":"m 73 0 l 273 1000 l 499 1000 l 299 0 l 73 0 m 593 1049 q 504 1084 540 1049 q 468 1171 468 1120 q 502 1255 468 1221 q 585 1289 535 1289 q 669 1255 633 1289 q 705 1168 704 1222 q 673 1082 707 1114 q 593 1049 640 1049 m 258 1049 q 172 1084 207 1049 q 136 1171 136 1120 q 169 1255 136 1221 q 250 1289 201 1289 q 338 1252 302 1289 q 373 1164 373 1215 q 340 1083 373 1116 q 258 1049 307 1049 z "},"Ḯ":{"ha":517,"x_min":73,"x_max":707,"o":"m 73 0 l 273 1000 l 499 1000 l 299 0 l 73 0 m 593 1049 q 504 1084 540 1049 q 468 1171 468 1120 q 502 1255 468 1221 q 585 1289 535 1289 q 669 1255 633 1289 q 705 1168 704 1222 q 673 1082 707 1114 q 593 1049 640 1049 m 258 1049 q 172 1084 207 1049 q 136 1171 136 1120 q 169 1255 136 1221 q 250 1289 201 1289 q 338 1252 302 1289 q 373 1164 373 1215 q 340 1083 373 1116 q 258 1049 307 1049 m 453 1288 l 345 1376 l 537 1584 l 666 1453 l 453 1288 z "},"İ":{"ha":448,"x_min":38,"x_max":528,"o":"m 38 0 l 238 1000 l 465 1000 l 264 0 l 38 0 m 397 1060 q 303 1098 341 1060 q 266 1191 266 1136 q 303 1283 266 1246 q 397 1321 341 1321 q 489 1283 451 1321 q 527 1191 527 1246 q 489 1098 527 1136 q 397 1060 451 1060 z "},"Ị":{"ha":448,"x_min":-20,"x_max":465,"o":"m 38 0 l 238 1000 l 465 1000 l 264 0 l 38 0 m 111 -336 q 17 -298 55 -336 q -20 -205 -20 -260 q 17 -113 -20 -151 q 111 -75 55 -75 q 203 -113 165 -75 q 241 -205 241 -151 q 203 -298 241 -260 q 111 -336 165 -336 z "},"Ì":{"ha":448,"x_min":38,"x_max":466,"o":"m 38 0 l 238 1000 l 465 1000 l 264 0 l 38 0 m 363 1048 l 142 1213 l 262 1344 l 466 1136 l 363 1048 z "},"Ỉ":{"ha":448,"x_min":38,"x_max":534,"o":"m 38 0 l 238 1000 l 465 1000 l 264 0 l 38 0 m 391 1047 l 326 1129 q 371 1160 354 1143 q 393 1196 388 1177 q 385 1222 396 1213 q 341 1232 374 1232 q 295 1227 320 1232 q 250 1217 269 1223 l 267 1348 q 307 1356 286 1354 q 355 1359 328 1359 q 493 1319 452 1359 q 522 1213 534 1279 q 474 1116 511 1158 q 391 1047 438 1075 z "},"Ȋ":{"ha":517,"x_min":73,"x_max":669,"o":"m 73 0 l 273 1000 l 499 1000 l 299 0 l 73 0 m 654 1045 l 528 1065 q 507 1136 537 1105 q 417 1167 477 1167 q 315 1137 356 1167 q 264 1055 275 1107 l 139 1074 q 196 1193 152 1147 q 302 1261 241 1239 q 425 1283 363 1283 q 557 1252 500 1283 q 642 1168 614 1221 q 654 1045 669 1114 z "},"Ī":{"ha":517,"x_min":73,"x_max":703,"o":"m 73 0 l 273 1000 l 499 1000 l 299 0 l 73 0 m 135 1097 l 161 1237 l 703 1237 l 677 1097 l 135 1097 z "},"Į":{"ha":448,"x_min":-39,"x_max":465,"o":"m 38 0 l 238 1000 l 465 1000 l 264 0 l 38 0 m 109 -292 q -2 -248 35 -292 q -25 -136 -39 -203 q 33 -43 -14 -84 q 157 39 80 -3 l 264 0 q 193 -43 228 -20 q 135 -89 159 -66 q 106 -133 111 -112 q 113 -161 103 -150 q 149 -172 122 -172 q 197 -165 173 -172 q 233 -151 221 -157 l 218 -277 q 162 -289 196 -286 q 109 -292 129 -292 z "},"Ĩ":{"ha":528,"x_min":78,"x_max":705,"o":"m 78 0 l 278 1000 l 505 1000 l 304 0 l 78 0 m 271 1056 l 147 1076 q 215 1217 165 1164 q 335 1270 264 1270 q 402 1259 378 1270 q 442 1232 427 1247 q 469 1205 457 1217 q 498 1194 481 1194 q 551 1220 528 1194 q 581 1281 574 1247 l 705 1261 q 637 1120 688 1174 q 512 1066 586 1066 q 448 1078 472 1066 q 410 1106 425 1090 q 382 1134 395 1122 q 350 1145 369 1145 q 301 1121 323 1145 q 271 1056 279 1096 z "},"J":{"ha":739,"x_min":-15,"x_max":766,"o":"m 283 -11 q 121 28 192 -11 q 18 142 51 66 q 7 328 -15 218 l 218 308 q 216 243 210 271 q 242 202 223 216 q 291 187 262 187 q 352 209 329 187 q 386 263 374 231 q 404 323 398 295 l 540 1000 l 766 1000 l 627 307 q 509 72 597 155 q 283 -11 421 -11 z "},"Ĵ":{"ha":750,"x_min":-15,"x_max":945,"o":"m 283 -11 q 121 28 192 -11 q 18 142 51 66 q 7 328 -15 218 l 218 308 q 216 243 210 271 q 242 202 223 216 q 291 187 262 187 q 352 209 329 187 q 386 263 374 231 q 404 323 398 295 l 540 1000 l 766 1000 l 627 307 q 509 72 597 155 q 283 -11 421 -11 m 500 1050 l 416 1148 l 690 1316 l 731 1316 l 945 1148 l 840 1050 l 695 1177 l 689 1177 l 500 1050 z "},"K":{"ha":928,"x_min":27,"x_max":1038,"o":"m 27 0 l 227 1000 l 454 1000 l 363 549 l 416 549 l 347 521 l 758 1000 l 1038 1000 l 517 421 l 516 553 l 842 0 l 593 0 l 324 475 l 391 434 l 340 434 l 254 0 l 27 0 z "},"Ķ":{"ha":928,"x_min":27,"x_max":1038,"o":"m 27 0 l 227 1000 l 454 1000 l 363 549 l 416 549 l 347 521 l 758 1000 l 1038 1000 l 517 421 l 516 553 l 842 0 l 593 0 l 324 475 l 391 434 l 340 434 l 254 0 l 27 0 m 281 -393 l 246 -337 l 328 -289 q 359 -271 339 -282 q 394 -242 378 -260 q 409 -197 410 -224 l 424 -197 q 417 -230 427 -212 q 377 -248 406 -248 q 315 -222 345 -248 q 285 -155 285 -195 q 312 -93 285 -118 q 378 -67 340 -67 q 446 -95 416 -67 q 477 -178 477 -123 q 446 -276 477 -240 q 372 -337 414 -311 l 281 -393 z "},"L":{"ha":679,"x_min":27,"x_max":623,"o":"m 27 0 l 227 1000 l 454 1000 l 293 198 l 623 198 l 583 0 l 27 0 z "},"Ǉ":{"ha":1417,"x_min":27,"x_max":1444,"o":"m 27 0 l 227 1000 l 454 1000 l 293 198 l 623 198 l 583 0 l 27 0 m 962 -11 q 800 28 871 -11 q 697 142 730 66 q 686 328 664 218 l 897 308 q 895 243 888 271 q 921 202 902 216 q 970 187 941 187 q 1030 209 1008 187 q 1065 263 1053 231 q 1082 323 1077 295 l 1219 1000 l 1444 1000 l 1305 307 q 1188 72 1276 155 q 962 -11 1100 -11 z "},"Ĺ":{"ha":679,"x_min":27,"x_max":623,"o":"m 27 0 l 227 1000 l 454 1000 l 293 198 l 623 198 l 583 0 l 27 0 m 364 1048 l 256 1136 l 448 1344 l 577 1213 l 364 1048 z "},"Ľ":{"ha":679,"x_min":27,"x_max":818,"o":"m 27 0 l 227 1000 l 454 1000 l 293 198 l 623 198 l 583 0 l 27 0 m 574 652 l 646 1000 l 819 1000 l 724 652 l 574 652 z "},"Ļ":{"ha":679,"x_min":27,"x_max":623,"o":"m 27 0 l 227 1000 l 454 1000 l 293 198 l 623 198 l 583 0 l 27 0 m 186 -393 l 151 -337 l 233 -289 q 263 -271 243 -282 q 298 -242 283 -260 q 313 -197 314 -224 l 328 -197 q 321 -230 332 -212 q 281 -248 311 -248 q 219 -222 249 -248 q 189 -155 189 -195 q 217 -93 189 -118 q 283 -67 244 -67 q 351 -95 320 -67 q 381 -178 381 -123 q 350 -276 381 -240 q 276 -337 319 -311 l 186 -393 z "},"Ŀ":{"ha":780,"x_min":27,"x_max":760,"o":"m 27 0 l 227 1000 l 454 1000 l 293 198 l 623 198 l 583 0 l 27 0 m 633 376 q 543 414 580 376 q 505 504 505 451 q 543 594 505 557 q 633 631 580 631 q 723 594 686 631 q 760 504 760 557 q 723 414 760 451 q 633 376 686 376 z "},"Ḷ":{"ha":679,"x_min":27,"x_max":623,"o":"m 27 0 l 227 1000 l 454 1000 l 293 198 l 623 198 l 583 0 l 27 0 m 272 -336 q 179 -298 216 -336 q 141 -205 141 -260 q 179 -113 141 -151 q 272 -75 216 -75 q 364 -113 326 -75 q 402 -205 402 -151 q 364 -298 402 -260 q 272 -336 326 -336 z "},"ǈ":{"ha":1076,"x_min":27,"x_max":1131,"o":"m 27 0 l 227 1000 l 454 1000 l 293 198 l 623 198 l 583 0 l 27 0 m 620 -301 q 564 -297 591 -301 q 513 -288 536 -293 l 551 -104 q 577 -110 561 -109 q 602 -111 593 -111 q 669 -85 643 -111 q 702 -27 695 -60 l 852 730 l 1066 730 l 914 -37 q 860 -175 899 -115 q 762 -268 822 -234 q 620 -301 702 -301 m 1000 814 q 906 852 944 814 q 869 945 869 890 q 906 1037 869 1000 q 1000 1075 944 1075 q 1092 1037 1054 1075 q 1130 945 1130 1000 q 1092 852 1130 890 q 1000 814 1054 814 z "},"Ḻ":{"ha":679,"x_min":-31,"x_max":623,"o":"m 27 0 l 227 1000 l 454 1000 l 293 198 l 623 198 l 583 0 l 27 0 m -31 -281 l -5 -152 l 570 -152 l 544 -281 l -31 -281 z "},"Ł":{"ha":713,"x_min":-11,"x_max":657,"o":"m 28 328 l -11 430 l 186 543 l 378 616 l 522 697 l 559 596 l 335 477 l 144 401 l 28 328 m 62 0 l 262 1000 l 488 1000 l 328 198 l 657 198 l 617 0 l 62 0 z "},"M":{"ha":1204,"x_min":27,"x_max":1231,"o":"m 27 0 l 228 1000 l 380 1000 l 605 515 l 610 515 l 1046 1000 l 1231 1000 l 1031 0 l 805 0 l 871 331 l 944 618 l 939 618 l 583 205 l 539 205 l 368 593 l 360 593 l 317 331 l 254 0 l 27 0 z "},"Ṃ":{"ha":1204,"x_min":27,"x_max":1231,"o":"m 27 0 l 228 1000 l 380 1000 l 605 515 l 610 515 l 1046 1000 l 1231 1000 l 1031 0 l 805 0 l 871 331 l 944 618 l 939 618 l 583 205 l 539 205 l 368 593 l 360 593 l 317 331 l 254 0 l 27 0 m 503 -336 q 410 -298 448 -336 q 372 -205 372 -260 q 410 -113 372 -151 q 503 -75 448 -75 q 595 -113 557 -75 q 633 -205 633 -151 q 595 -298 633 -260 q 503 -336 557 -336 z "},"N":{"ha":1039,"x_min":27,"x_max":1066,"o":"m 27 0 l 228 1000 l 391 1000 l 667 491 l 718 389 l 724 389 l 762 610 l 840 1000 l 1066 1000 l 865 0 l 699 0 l 422 516 l 370 621 l 365 621 l 331 391 l 257 0 l 27 0 z "},"Ǌ":{"ha":1778,"x_min":27,"x_max":1805,"o":"m 27 0 l 228 1000 l 391 1000 l 667 491 l 718 389 l 724 389 l 762 610 l 840 1000 l 1066 1000 l 865 0 l 699 0 l 422 516 l 370 621 l 365 621 l 331 391 l 257 0 l 27 0 m 1322 -11 q 1160 28 1231 -11 q 1057 142 1090 66 q 1046 328 1024 218 l 1257 308 q 1255 243 1249 271 q 1281 202 1262 216 q 1330 187 1301 187 q 1391 209 1368 187 q 1425 263 1413 231 q 1442 323 1437 295 l 1579 1000 l 1805 1000 l 1666 307 q 1548 72 1636 155 q 1322 -11 1460 -11 z "},"Ń":{"ha":1039,"x_min":27,"x_max":1066,"o":"m 27 0 l 228 1000 l 391 1000 l 667 491 l 718 389 l 724 389 l 762 610 l 840 1000 l 1066 1000 l 865 0 l 699 0 l 422 516 l 370 621 l 365 621 l 331 391 l 257 0 l 27 0 m 665 1048 l 557 1136 l 749 1344 l 878 1213 l 665 1048 z "},"Ň":{"ha":1039,"x_min":27,"x_max":1066,"o":"m 27 0 l 228 1000 l 391 1000 l 667 491 l 718 389 l 724 389 l 762 610 l 840 1000 l 1066 1000 l 865 0 l 699 0 l 422 516 l 370 621 l 365 621 l 331 391 l 257 0 l 27 0 m 633 1050 l 418 1219 l 523 1316 l 669 1191 l 675 1191 l 865 1316 l 947 1219 l 675 1050 l 633 1050 z "},"Ņ":{"ha":1039,"x_min":27,"x_max":1066,"o":"m 27 0 l 228 1000 l 391 1000 l 667 491 l 718 389 l 724 389 l 762 610 l 840 1000 l 1066 1000 l 865 0 l 699 0 l 422 516 l 370 621 l 365 621 l 331 391 l 257 0 l 27 0 m 315 -393 l 280 -337 l 362 -289 q 393 -271 373 -282 q 428 -242 412 -260 q 443 -197 444 -224 l 458 -197 q 451 -230 461 -212 q 411 -248 440 -248 q 349 -222 378 -248 q 319 -155 319 -195 q 346 -93 319 -118 q 412 -67 374 -67 q 480 -95 450 -67 q 511 -178 511 -123 q 479 -276 511 -240 q 406 -337 448 -311 l 315 -393 z "},"Ṅ":{"ha":1039,"x_min":27,"x_max":1066,"o":"m 27 0 l 228 1000 l 391 1000 l 667 491 l 718 389 l 724 389 l 762 610 l 840 1000 l 1066 1000 l 865 0 l 699 0 l 422 516 l 370 621 l 365 621 l 331 391 l 257 0 l 27 0 m 692 1060 q 599 1098 637 1060 q 562 1191 562 1136 q 599 1283 562 1246 q 692 1321 637 1321 q 785 1283 747 1321 q 823 1191 823 1246 q 785 1098 823 1136 q 692 1060 747 1060 z "},"Ṇ":{"ha":1039,"x_min":27,"x_max":1066,"o":"m 27 0 l 228 1000 l 391 1000 l 667 491 l 718 389 l 724 389 l 762 610 l 840 1000 l 1066 1000 l 865 0 l 699 0 l 422 516 l 370 621 l 365 621 l 331 391 l 257 0 l 27 0 m 401 -336 q 308 -298 346 -336 q 271 -205 271 -260 q 308 -113 271 -151 q 401 -75 346 -75 q 494 -113 456 -75 q 532 -205 532 -151 q 494 -298 532 -260 q 401 -336 456 -336 z "},"ǋ":{"ha":1436,"x_min":27,"x_max":1491,"o":"m 27 0 l 228 1000 l 391 1000 l 667 491 l 718 389 l 724 389 l 762 610 l 840 1000 l 1066 1000 l 865 0 l 699 0 l 422 516 l 370 621 l 365 621 l 331 391 l 257 0 l 27 0 m 980 -301 q 924 -297 951 -301 q 873 -288 897 -293 l 911 -104 q 937 -110 921 -109 q 962 -111 954 -111 q 1029 -85 1003 -111 q 1062 -27 1055 -60 l 1212 730 l 1426 730 l 1274 -37 q 1220 -175 1259 -115 q 1122 -268 1182 -234 q 980 -301 1062 -301 m 1360 814 q 1267 852 1305 814 q 1230 945 1230 890 q 1267 1037 1230 1000 q 1360 1075 1305 1075 q 1453 1037 1415 1075 q 1491 945 1491 1000 q 1453 852 1491 890 q 1360 814 1415 814 z "},"Ṉ":{"ha":1039,"x_min":27,"x_max":1066,"o":"m 27 0 l 228 1000 l 391 1000 l 667 491 l 718 389 l 724 389 l 762 610 l 840 1000 l 1066 1000 l 865 0 l 699 0 l 422 516 l 370 621 l 365 621 l 331 391 l 257 0 l 27 0 m 99 -281 l 125 -152 l 699 -152 l 673 -281 l 99 -281 z "},"Ñ":{"ha":1039,"x_min":27,"x_max":1066,"o":"m 27 0 l 228 1000 l 391 1000 l 667 491 l 718 389 l 724 389 l 762 610 l 840 1000 l 1066 1000 l 865 0 l 699 0 l 422 516 l 370 621 l 365 621 l 331 391 l 257 0 l 27 0 m 526 1056 l 403 1076 q 471 1217 421 1164 q 591 1270 520 1270 q 658 1259 633 1270 q 698 1232 683 1247 q 725 1205 713 1217 q 754 1194 737 1194 q 807 1220 783 1194 q 837 1281 830 1247 l 961 1261 q 893 1120 944 1174 q 768 1066 842 1066 q 704 1078 728 1066 q 665 1106 680 1090 q 637 1134 650 1122 q 606 1145 625 1145 q 557 1121 578 1145 q 526 1056 535 1096 z "},"Ŋ":{"ha":1039,"x_min":27,"x_max":1066,"o":"m 536 -302 q 451 -293 491 -302 q 380 -271 410 -284 l 437 -94 q 480 -111 462 -106 q 519 -116 499 -116 q 603 -88 569 -116 q 645 -24 637 -60 l 666 73 l 865 0 l 859 -29 q 753 -227 833 -152 q 536 -302 672 -302 m 27 0 l 228 1000 l 391 1000 l 667 491 l 718 389 l 724 389 l 762 610 l 840 1000 l 1066 1000 l 865 0 l 699 0 l 422 516 l 370 621 l 365 621 l 331 391 l 257 0 l 27 0 z "},"O":{"ha":1083,"x_min":73,"x_max":1065,"o":"m 522 -10 q 287 50 388 -10 q 129 215 185 110 q 73 453 73 319 q 114 667 73 566 q 228 845 155 768 q 401 967 302 922 q 616 1011 500 1011 q 802 977 720 1011 q 944 880 885 942 q 1034 733 1002 817 q 1065 551 1065 650 q 1023 335 1065 436 q 908 156 982 233 q 736 34 834 78 q 522 -10 637 -10 m 533 192 q 658 221 602 192 q 756 301 715 251 q 819 414 797 351 q 842 545 842 477 q 813 681 842 621 q 732 774 785 740 q 606 808 680 808 q 480 779 537 808 q 382 700 424 749 q 319 587 341 650 q 297 456 297 524 q 326 321 297 380 q 407 227 354 261 q 533 192 460 192 z "},"Ó":{"ha":1083,"x_min":73,"x_max":1065,"o":"m 522 -10 q 287 50 388 -10 q 129 215 185 110 q 73 453 73 319 q 114 667 73 566 q 228 845 155 768 q 401 967 302 922 q 616 1011 500 1011 q 802 977 720 1011 q 944 880 885 942 q 1034 733 1002 817 q 1065 551 1065 650 q 1023 335 1065 436 q 908 156 982 233 q 736 34 834 78 q 522 -10 637 -10 m 533 192 q 658 221 602 192 q 756 301 715 251 q 819 414 797 351 q 842 545 842 477 q 813 681 842 621 q 732 774 785 740 q 606 808 680 808 q 480 779 537 808 q 382 700 424 749 q 319 587 341 650 q 297 456 297 524 q 326 321 297 380 q 407 227 354 261 q 533 192 460 192 m 665 1048 l 557 1136 l 749 1344 l 878 1213 l 665 1048 z "},"Ŏ":{"ha":1083,"x_min":73,"x_max":1065,"o":"m 522 -10 q 287 50 388 -10 q 129 215 185 110 q 73 453 73 319 q 114 667 73 566 q 228 845 155 768 q 401 967 302 922 q 616 1011 500 1011 q 802 977 720 1011 q 944 880 885 942 q 1034 733 1002 817 q 1065 551 1065 650 q 1023 335 1065 436 q 908 156 982 233 q 736 34 834 78 q 522 -10 637 -10 m 533 192 q 658 221 602 192 q 756 301 715 251 q 819 414 797 351 q 842 545 842 477 q 813 681 842 621 q 732 774 785 740 q 606 808 680 808 q 480 779 537 808 q 382 700 424 749 q 319 587 341 650 q 297 456 297 524 q 326 321 297 380 q 407 227 354 261 q 533 192 460 192 m 664 1062 q 537 1089 592 1062 q 457 1168 482 1117 q 446 1290 431 1219 l 569 1270 q 576 1214 562 1234 q 617 1184 590 1193 q 674 1175 644 1175 q 779 1205 732 1175 q 836 1290 825 1235 l 962 1270 q 902 1153 948 1200 q 792 1084 855 1107 q 664 1062 729 1062 z "},"Ô":{"ha":1083,"x_min":73,"x_max":1065,"o":"m 522 -10 q 287 50 388 -10 q 129 215 185 110 q 73 453 73 319 q 114 667 73 566 q 228 845 155 768 q 401 967 302 922 q 616 1011 500 1011 q 802 977 720 1011 q 944 880 885 942 q 1034 733 1002 817 q 1065 551 1065 650 q 1023 335 1065 436 q 908 156 982 233 q 736 34 834 78 q 522 -10 637 -10 m 533 192 q 658 221 602 192 q 756 301 715 251 q 819 414 797 351 q 842 545 842 477 q 813 681 842 621 q 732 774 785 740 q 606 808 680 808 q 480 779 537 808 q 382 700 424 749 q 319 587 341 650 q 297 456 297 524 q 326 321 297 380 q 407 227 354 261 q 533 192 460 192 m 495 1050 l 412 1148 l 685 1316 l 726 1316 l 941 1148 l 836 1050 l 690 1177 l 684 1177 l 495 1050 z "},"Ố":{"ha":1083,"x_min":73,"x_max":1146,"o":"m 522 -10 q 287 50 388 -10 q 129 215 185 110 q 73 453 73 319 q 114 667 73 566 q 228 845 155 768 q 401 967 302 922 q 616 1011 500 1011 q 802 977 720 1011 q 944 880 885 942 q 1034 733 1002 817 q 1065 551 1065 650 q 1023 335 1065 436 q 908 156 982 233 q 736 34 834 78 q 522 -10 637 -10 m 533 192 q 658 221 602 192 q 756 301 715 251 q 819 414 797 351 q 842 545 842 477 q 813 681 842 621 q 732 774 785 740 q 606 808 680 808 q 480 779 537 808 q 382 700 424 749 q 319 587 341 650 q 297 456 297 524 q 326 321 297 380 q 407 227 354 261 q 533 192 460 192 m 888 1234 l 807 1301 l 1069 1527 l 1146 1392 l 888 1234 m 488 1040 l 406 1137 l 678 1304 l 720 1304 l 935 1137 l 829 1040 l 679 1165 l 680 1165 l 488 1040 z "},"Ộ":{"ha":1083,"x_min":73,"x_max":1065,"o":"m 522 -10 q 287 50 388 -10 q 129 215 185 110 q 73 453 73 319 q 114 667 73 566 q 228 845 155 768 q 401 967 302 922 q 616 1011 500 1011 q 802 977 720 1011 q 944 880 885 942 q 1034 733 1002 817 q 1065 551 1065 650 q 1023 335 1065 436 q 908 156 982 233 q 736 34 834 78 q 522 -10 637 -10 m 533 192 q 658 221 602 192 q 756 301 715 251 q 819 414 797 351 q 842 545 842 477 q 813 681 842 621 q 732 774 785 740 q 606 808 680 808 q 480 779 537 808 q 382 700 424 749 q 319 587 341 650 q 297 456 297 524 q 326 321 297 380 q 407 227 354 261 q 533 192 460 192 m 469 -336 q 375 -298 413 -336 q 338 -205 338 -260 q 375 -113 338 -151 q 469 -75 413 -75 q 561 -113 523 -75 q 599 -205 599 -151 q 561 -298 599 -260 q 469 -336 523 -336 m 545 1050 l 461 1149 l 734 1317 l 776 1317 l 990 1149 l 885 1050 l 740 1177 l 734 1177 l 545 1050 z "},"Ồ":{"ha":1083,"x_min":73,"x_max":1065,"o":"m 522 -10 q 287 50 388 -10 q 129 215 185 110 q 73 453 73 319 q 114 667 73 566 q 228 845 155 768 q 401 967 302 922 q 616 1011 500 1011 q 802 977 720 1011 q 944 880 885 942 q 1034 733 1002 817 q 1065 551 1065 650 q 1023 335 1065 436 q 908 156 982 233 q 736 34 834 78 q 522 -10 637 -10 m 533 192 q 658 221 602 192 q 756 301 715 251 q 819 414 797 351 q 842 545 842 477 q 813 681 842 621 q 732 774 785 740 q 606 808 680 808 q 480 779 537 808 q 382 700 424 749 q 319 587 341 650 q 297 456 297 524 q 326 321 297 380 q 407 227 354 261 q 533 192 460 192 m 410 1235 l 224 1438 l 354 1542 l 514 1301 l 410 1235 m 437 1042 l 355 1140 l 627 1307 l 669 1307 l 884 1140 l 779 1042 l 628 1168 l 629 1168 l 437 1042 z "},"Ổ":{"ha":1083,"x_min":73,"x_max":1065,"o":"m 522 -10 q 287 50 388 -10 q 129 215 185 110 q 73 453 73 319 q 114 667 73 566 q 228 845 155 768 q 401 967 302 922 q 616 1011 500 1011 q 802 977 720 1011 q 944 880 885 942 q 1034 733 1002 817 q 1065 551 1065 650 q 1023 335 1065 436 q 908 156 982 233 q 736 34 834 78 q 522 -10 637 -10 m 533 192 q 658 221 602 192 q 756 301 715 251 q 819 414 797 351 q 842 545 842 477 q 813 681 842 621 q 732 774 785 740 q 606 808 680 808 q 480 779 537 808 q 382 700 424 749 q 319 587 341 650 q 297 456 297 524 q 326 321 297 380 q 407 227 354 261 q 533 192 460 192 m 899 1224 l 807 1299 q 856 1335 838 1316 q 876 1369 873 1354 q 870 1392 880 1384 q 829 1400 861 1400 q 786 1397 810 1400 q 743 1387 762 1394 l 760 1516 q 797 1525 777 1522 q 842 1528 817 1528 q 979 1488 939 1528 q 1006 1381 1018 1449 q 966 1290 997 1330 q 899 1224 935 1249 m 487 1040 l 404 1137 l 677 1304 l 718 1304 l 933 1137 l 828 1040 l 677 1165 l 679 1165 l 487 1040 z "},"Ỗ":{"ha":1083,"x_min":73,"x_max":1065,"o":"m 522 -10 q 287 50 388 -10 q 129 215 185 110 q 73 453 73 319 q 114 667 73 566 q 228 845 155 768 q 401 967 302 922 q 616 1011 500 1011 q 802 977 720 1011 q 944 880 885 942 q 1034 733 1002 817 q 1065 551 1065 650 q 1023 335 1065 436 q 908 156 982 233 q 736 34 834 78 q 522 -10 637 -10 m 533 192 q 658 221 602 192 q 756 301 715 251 q 819 414 797 351 q 842 545 842 477 q 813 681 842 621 q 732 774 785 740 q 606 808 680 808 q 480 779 537 808 q 382 700 424 749 q 319 587 341 650 q 297 456 297 524 q 326 321 297 380 q 407 227 354 261 q 533 192 460 192 m 562 1321 l 427 1335 q 499 1474 446 1421 q 623 1526 552 1526 q 684 1513 660 1526 q 727 1484 709 1501 q 762 1455 746 1468 q 798 1442 779 1442 q 841 1473 823 1442 q 865 1540 859 1503 l 1000 1527 q 961 1423 989 1471 q 892 1347 932 1376 q 804 1318 852 1318 q 744 1331 768 1318 q 702 1359 720 1343 q 667 1388 684 1375 q 629 1400 650 1400 q 587 1381 604 1400 q 562 1321 570 1361 m 489 1040 l 406 1137 l 679 1304 l 720 1304 l 935 1137 l 830 1040 l 680 1165 l 681 1165 l 489 1040 z "},"Ȍ":{"ha":1083,"x_min":73,"x_max":1065,"o":"m 522 -10 q 287 50 388 -10 q 129 215 185 110 q 73 453 73 319 q 114 667 73 566 q 228 845 155 768 q 401 967 302 922 q 616 1011 500 1011 q 802 977 720 1011 q 944 880 885 942 q 1034 733 1002 817 q 1065 551 1065 650 q 1023 335 1065 436 q 908 156 982 233 q 736 34 834 78 q 522 -10 637 -10 m 533 192 q 658 221 602 192 q 756 301 715 251 q 819 414 797 351 q 842 545 842 477 q 813 681 842 621 q 732 774 785 740 q 606 808 680 808 q 480 779 537 808 q 382 700 424 749 q 319 587 341 650 q 297 456 297 524 q 326 321 297 380 q 407 227 354 261 q 533 192 460 192 m 480 1059 l 345 1278 l 496 1355 l 593 1111 l 480 1059 m 749 1059 l 617 1278 l 768 1355 l 863 1111 l 749 1059 z "},"Ö":{"ha":1083,"x_min":73,"x_max":1065,"o":"m 522 -10 q 287 50 388 -10 q 129 215 185 110 q 73 453 73 319 q 114 667 73 566 q 228 845 155 768 q 401 967 302 922 q 616 1011 500 1011 q 802 977 720 1011 q 944 880 885 942 q 1034 733 1002 817 q 1065 551 1065 650 q 1023 335 1065 436 q 908 156 982 233 q 736 34 834 78 q 522 -10 637 -10 m 533 192 q 658 221 602 192 q 756 301 715 251 q 819 414 797 351 q 842 545 842 477 q 813 681 842 621 q 732 774 785 740 q 606 808 680 808 q 480 779 537 808 q 382 700 424 749 q 319 587 341 650 q 297 456 297 524 q 326 321 297 380 q 407 227 354 261 q 533 192 460 192 m 854 1049 q 765 1084 801 1049 q 729 1171 729 1120 q 763 1255 729 1221 q 846 1289 796 1289 q 930 1255 895 1289 q 966 1168 965 1222 q 934 1082 968 1114 q 854 1049 901 1049 m 519 1049 q 433 1084 468 1049 q 397 1171 397 1120 q 430 1255 397 1221 q 511 1289 463 1289 q 599 1252 564 1289 q 634 1164 634 1215 q 601 1083 634 1116 q 519 1049 568 1049 z "},"Ȫ":{"ha":1083,"x_min":73,"x_max":1065,"o":"m 522 -10 q 287 50 388 -10 q 129 215 185 110 q 73 453 73 319 q 114 667 73 566 q 228 845 155 768 q 401 967 302 922 q 616 1011 500 1011 q 802 977 720 1011 q 944 880 885 942 q 1034 733 1002 817 q 1065 551 1065 650 q 1023 335 1065 436 q 908 156 982 233 q 736 34 834 78 q 522 -10 637 -10 m 533 192 q 658 221 602 192 q 756 301 715 251 q 819 414 797 351 q 842 545 842 477 q 813 681 842 621 q 732 774 785 740 q 606 808 680 808 q 480 779 537 808 q 382 700 424 749 q 319 587 341 650 q 297 456 297 524 q 326 321 297 380 q 407 227 354 261 q 533 192 460 192 m 854 1049 q 765 1084 801 1049 q 729 1171 729 1120 q 763 1255 729 1221 q 846 1289 796 1289 q 930 1255 895 1289 q 966 1168 965 1222 q 934 1082 968 1114 q 854 1049 901 1049 m 519 1049 q 433 1084 468 1049 q 397 1171 397 1120 q 430 1255 397 1221 q 511 1289 463 1289 q 599 1252 564 1289 q 634 1164 634 1215 q 601 1083 634 1116 q 519 1049 568 1049 m 444 1339 l 471 1478 l 1013 1478 l 986 1339 l 444 1339 z "},"Ȱ":{"ha":1083,"x_min":73,"x_max":1065,"o":"m 522 -10 q 287 50 388 -10 q 129 215 185 110 q 73 453 73 319 q 114 667 73 566 q 228 845 155 768 q 401 967 302 922 q 616 1011 500 1011 q 802 977 720 1011 q 944 880 885 942 q 1034 733 1002 817 q 1065 551 1065 650 q 1023 335 1065 436 q 908 156 982 233 q 736 34 834 78 q 522 -10 637 -10 m 533 192 q 658 221 602 192 q 756 301 715 251 q 819 414 797 351 q 842 545 842 477 q 813 681 842 621 q 732 774 785 740 q 606 808 680 808 q 480 779 537 808 q 382 700 424 749 q 319 587 341 650 q 297 456 297 524 q 326 321 297 380 q 407 227 354 261 q 533 192 460 192 m 692 1060 q 599 1098 637 1060 q 562 1191 562 1136 q 599 1283 562 1246 q 692 1321 637 1321 q 785 1283 747 1321 q 823 1191 823 1246 q 785 1098 823 1136 q 692 1060 747 1060 m 456 1366 l 483 1506 l 1025 1506 l 998 1366 l 456 1366 z "},"Ọ":{"ha":1083,"x_min":73,"x_max":1065,"o":"m 522 -10 q 287 50 388 -10 q 129 215 185 110 q 73 453 73 319 q 114 667 73 566 q 228 845 155 768 q 401 967 302 922 q 616 1011 500 1011 q 802 977 720 1011 q 944 880 885 942 q 1034 733 1002 817 q 1065 551 1065 650 q 1023 335 1065 436 q 908 156 982 233 q 736 34 834 78 q 522 -10 637 -10 m 533 192 q 658 221 602 192 q 756 301 715 251 q 819 414 797 351 q 842 545 842 477 q 813 681 842 621 q 732 774 785 740 q 606 808 680 808 q 480 779 537 808 q 382 700 424 749 q 319 587 341 650 q 297 456 297 524 q 326 321 297 380 q 407 227 354 261 q 533 192 460 192 m 453 -336 q 360 -298 397 -336 q 322 -205 322 -260 q 360 -113 322 -151 q 453 -75 397 -75 q 545 -113 507 -75 q 583 -205 583 -151 q 545 -298 583 -260 q 453 -336 507 -336 z "},"Ò":{"ha":1083,"x_min":73,"x_max":1065,"o":"m 522 -10 q 287 50 388 -10 q 129 215 185 110 q 73 453 73 319 q 114 667 73 566 q 228 845 155 768 q 401 967 302 922 q 616 1011 500 1011 q 802 977 720 1011 q 944 880 885 942 q 1034 733 1002 817 q 1065 551 1065 650 q 1023 335 1065 436 q 908 156 982 233 q 736 34 834 78 q 522 -10 637 -10 m 533 192 q 658 221 602 192 q 756 301 715 251 q 819 414 797 351 q 842 545 842 477 q 813 681 842 621 q 732 774 785 740 q 606 808 680 808 q 480 779 537 808 q 382 700 424 749 q 319 587 341 650 q 297 456 297 524 q 326 321 297 380 q 407 227 354 261 q 533 192 460 192 m 658 1048 l 437 1213 l 557 1344 l 761 1136 l 658 1048 z "},"Ỏ":{"ha":1083,"x_min":73,"x_max":1065,"o":"m 522 -10 q 287 50 388 -10 q 129 215 185 110 q 73 453 73 319 q 114 667 73 566 q 228 845 155 768 q 401 967 302 922 q 616 1011 500 1011 q 802 977 720 1011 q 944 880 885 942 q 1034 733 1002 817 q 1065 551 1065 650 q 1023 335 1065 436 q 908 156 982 233 q 736 34 834 78 q 522 -10 637 -10 m 533 192 q 658 221 602 192 q 756 301 715 251 q 819 414 797 351 q 842 545 842 477 q 813 681 842 621 q 732 774 785 740 q 606 808 680 808 q 480 779 537 808 q 382 700 424 749 q 319 587 341 650 q 297 456 297 524 q 326 321 297 380 q 407 227 354 261 q 533 192 460 192 m 687 1047 l 622 1129 q 667 1160 650 1143 q 688 1196 684 1177 q 681 1222 692 1213 q 637 1232 670 1232 q 590 1227 616 1232 q 546 1217 565 1223 l 563 1348 q 603 1356 582 1354 q 650 1359 624 1359 q 789 1319 748 1359 q 817 1213 830 1279 q 770 1116 806 1158 q 687 1047 734 1075 z "},"Ơ":{"ha":1083,"x_min":73,"x_max":1147,"o":"m 522 -10 q 287 50 388 -10 q 129 215 185 110 q 73 453 73 319 q 114 667 73 566 q 228 845 155 768 q 401 967 302 922 q 616 1011 500 1011 q 802 977 720 1011 q 944 880 885 942 q 1034 733 1002 817 q 1065 551 1065 650 q 1023 335 1065 436 q 908 156 982 233 q 736 34 834 78 q 522 -10 637 -10 m 533 192 q 658 221 602 192 q 756 301 715 251 q 819 414 797 351 q 842 545 842 477 q 813 681 842 621 q 732 774 785 740 q 606 808 680 808 q 480 779 537 808 q 382 700 424 749 q 319 587 341 650 q 297 456 297 524 q 326 321 297 380 q 407 227 354 261 q 533 192 460 192 m 801 821 l 817 964 q 930 1001 889 964 q 986 1110 971 1038 q 990 1138 989 1120 q 991 1172 991 1155 l 1143 1180 q 1145 1123 1147 1155 q 1137 1061 1143 1090 q 1093 960 1126 1006 q 1012 882 1059 915 q 909 833 964 850 q 801 821 854 817 z "},"Ớ":{"ha":1083,"x_min":73,"x_max":1147,"o":"m 522 -10 q 287 50 388 -10 q 129 215 185 110 q 73 453 73 319 q 114 667 73 566 q 228 845 155 768 q 401 967 302 922 q 616 1011 500 1011 q 802 977 720 1011 q 944 880 885 942 q 1034 733 1002 817 q 1065 551 1065 650 q 1023 335 1065 436 q 908 156 982 233 q 736 34 834 78 q 522 -10 637 -10 m 533 192 q 658 221 602 192 q 756 301 715 251 q 819 414 797 351 q 842 545 842 477 q 813 681 842 621 q 732 774 785 740 q 606 808 680 808 q 480 779 537 808 q 382 700 424 749 q 319 587 341 650 q 297 456 297 524 q 326 321 297 380 q 407 227 354 261 q 533 192 460 192 m 801 821 l 817 964 q 930 1001 889 964 q 986 1110 971 1038 q 990 1138 989 1120 q 991 1172 991 1155 l 1143 1180 q 1145 1123 1147 1155 q 1137 1061 1143 1090 q 1093 960 1126 1006 q 1012 882 1059 915 q 909 833 964 850 q 801 821 854 817 m 665 1048 l 557 1136 l 749 1344 l 878 1213 l 665 1048 z "},"Ợ":{"ha":1083,"x_min":73,"x_max":1147,"o":"m 522 -10 q 287 50 388 -10 q 129 215 185 110 q 73 453 73 319 q 114 667 73 566 q 228 845 155 768 q 401 967 302 922 q 616 1011 500 1011 q 802 977 720 1011 q 944 880 885 942 q 1034 733 1002 817 q 1065 551 1065 650 q 1023 335 1065 436 q 908 156 982 233 q 736 34 834 78 q 522 -10 637 -10 m 533 192 q 658 221 602 192 q 756 301 715 251 q 819 414 797 351 q 842 545 842 477 q 813 681 842 621 q 732 774 785 740 q 606 808 680 808 q 480 779 537 808 q 382 700 424 749 q 319 587 341 650 q 297 456 297 524 q 326 321 297 380 q 407 227 354 261 q 533 192 460 192 m 801 821 l 817 964 q 930 1001 889 964 q 986 1110 971 1038 q 990 1138 989 1120 q 991 1172 991 1155 l 1143 1180 q 1145 1123 1147 1155 q 1137 1061 1143 1090 q 1093 960 1126 1006 q 1012 882 1059 915 q 909 833 964 850 q 801 821 854 817 m 469 -336 q 375 -298 413 -336 q 338 -205 338 -260 q 375 -113 338 -151 q 469 -75 413 -75 q 561 -113 523 -75 q 599 -205 599 -151 q 561 -298 599 -260 q 469 -336 523 -336 z "},"Ờ":{"ha":1083,"x_min":73,"x_max":1147,"o":"m 522 -10 q 287 50 388 -10 q 129 215 185 110 q 73 453 73 319 q 114 667 73 566 q 228 845 155 768 q 401 967 302 922 q 616 1011 500 1011 q 802 977 720 1011 q 944 880 885 942 q 1034 733 1002 817 q 1065 551 1065 650 q 1023 335 1065 436 q 908 156 982 233 q 736 34 834 78 q 522 -10 637 -10 m 533 192 q 658 221 602 192 q 756 301 715 251 q 819 414 797 351 q 842 545 842 477 q 813 681 842 621 q 732 774 785 740 q 606 808 680 808 q 480 779 537 808 q 382 700 424 749 q 319 587 341 650 q 297 456 297 524 q 326 321 297 380 q 407 227 354 261 q 533 192 460 192 m 801 821 l 817 964 q 930 1001 889 964 q 986 1110 971 1038 q 990 1138 989 1120 q 991 1172 991 1155 l 1143 1180 q 1145 1123 1147 1155 q 1137 1061 1143 1090 q 1093 960 1126 1006 q 1012 882 1059 915 q 909 833 964 850 q 801 821 854 817 m 658 1048 l 437 1213 l 557 1344 l 761 1136 l 658 1048 z "},"Ở":{"ha":1083,"x_min":73,"x_max":1147,"o":"m 522 -10 q 287 50 388 -10 q 129 215 185 110 q 73 453 73 319 q 114 667 73 566 q 228 845 155 768 q 401 967 302 922 q 616 1011 500 1011 q 802 977 720 1011 q 944 880 885 942 q 1034 733 1002 817 q 1065 551 1065 650 q 1023 335 1065 436 q 908 156 982 233 q 736 34 834 78 q 522 -10 637 -10 m 533 192 q 658 221 602 192 q 756 301 715 251 q 819 414 797 351 q 842 545 842 477 q 813 681 842 621 q 732 774 785 740 q 606 808 680 808 q 480 779 537 808 q 382 700 424 749 q 319 587 341 650 q 297 456 297 524 q 326 321 297 380 q 407 227 354 261 q 533 192 460 192 m 801 821 l 817 964 q 930 1001 889 964 q 986 1110 971 1038 q 990 1138 989 1120 q 991 1172 991 1155 l 1143 1180 q 1145 1123 1147 1155 q 1137 1061 1143 1090 q 1093 960 1126 1006 q 1012 882 1059 915 q 909 833 964 850 q 801 821 854 817 m 687 1047 l 622 1129 q 667 1160 650 1143 q 688 1196 684 1177 q 681 1222 692 1213 q 637 1232 670 1232 q 590 1227 616 1232 q 546 1217 565 1223 l 563 1348 q 603 1356 582 1354 q 650 1359 624 1359 q 789 1319 748 1359 q 817 1213 830 1279 q 770 1116 806 1158 q 687 1047 734 1075 z "},"Ỡ":{"ha":1083,"x_min":73,"x_max":1147,"o":"m 522 -10 q 287 50 388 -10 q 129 215 185 110 q 73 453 73 319 q 114 667 73 566 q 228 845 155 768 q 401 967 302 922 q 616 1011 500 1011 q 802 977 720 1011 q 944 880 885 942 q 1034 733 1002 817 q 1065 551 1065 650 q 1023 335 1065 436 q 908 156 982 233 q 736 34 834 78 q 522 -10 637 -10 m 533 192 q 658 221 602 192 q 756 301 715 251 q 819 414 797 351 q 842 545 842 477 q 813 681 842 621 q 732 774 785 740 q 606 808 680 808 q 480 779 537 808 q 382 700 424 749 q 319 587 341 650 q 297 456 297 524 q 326 321 297 380 q 407 227 354 261 q 533 192 460 192 m 801 821 l 817 964 q 930 1001 889 964 q 986 1110 971 1038 q 990 1138 989 1120 q 991 1172 991 1155 l 1143 1180 q 1145 1123 1147 1155 q 1137 1061 1143 1090 q 1093 960 1126 1006 q 1012 882 1059 915 q 909 833 964 850 q 801 821 854 817 m 526 1056 l 403 1076 q 471 1217 421 1164 q 591 1270 520 1270 q 658 1259 633 1270 q 698 1232 683 1247 q 725 1205 713 1217 q 754 1194 737 1194 q 807 1220 783 1194 q 837 1281 830 1247 l 961 1261 q 893 1120 944 1174 q 768 1066 842 1066 q 704 1078 728 1066 q 665 1106 680 1090 q 637 1134 650 1122 q 606 1145 625 1145 q 557 1121 578 1145 q 526 1056 535 1096 z "},"Ő":{"ha":1083,"x_min":73,"x_max":1065,"o":"m 522 -10 q 287 50 388 -10 q 129 215 185 110 q 73 453 73 319 q 114 667 73 566 q 228 845 155 768 q 401 967 302 922 q 616 1011 500 1011 q 802 977 720 1011 q 944 880 885 942 q 1034 733 1002 817 q 1065 551 1065 650 q 1023 335 1065 436 q 908 156 982 233 q 736 34 834 78 q 522 -10 637 -10 m 533 192 q 658 221 602 192 q 756 301 715 251 q 819 414 797 351 q 842 545 842 477 q 813 681 842 621 q 732 774 785 740 q 606 808 680 808 q 480 779 537 808 q 382 700 424 749 q 319 587 341 650 q 297 456 297 524 q 326 321 297 380 q 407 227 354 261 q 533 192 460 192 m 572 1059 l 471 1111 l 663 1355 l 789 1278 l 572 1059 m 843 1059 l 743 1111 l 930 1355 l 1059 1278 l 843 1059 z "},"Ȏ":{"ha":1083,"x_min":73,"x_max":1065,"o":"m 522 -10 q 287 50 388 -10 q 129 215 185 110 q 73 453 73 319 q 114 667 73 566 q 228 845 155 768 q 401 967 302 922 q 616 1011 500 1011 q 802 977 720 1011 q 944 880 885 942 q 1034 733 1002 817 q 1065 551 1065 650 q 1023 335 1065 436 q 908 156 982 233 q 736 34 834 78 q 522 -10 637 -10 m 533 192 q 658 221 602 192 q 756 301 715 251 q 819 414 797 351 q 842 545 842 477 q 813 681 842 621 q 732 774 785 740 q 606 808 680 808 q 480 779 537 808 q 382 700 424 749 q 319 587 341 650 q 297 456 297 524 q 326 321 297 380 q 407 227 354 261 q 533 192 460 192 m 915 1045 l 789 1065 q 768 1136 798 1105 q 678 1167 739 1167 q 576 1137 617 1167 q 525 1055 536 1107 l 400 1074 q 457 1193 413 1147 q 563 1261 502 1239 q 686 1283 624 1283 q 819 1252 762 1283 q 903 1168 876 1221 q 915 1045 930 1114 z "},"Ō":{"ha":1083,"x_min":73,"x_max":1065,"o":"m 522 -10 q 287 50 388 -10 q 129 215 185 110 q 73 453 73 319 q 114 667 73 566 q 228 845 155 768 q 401 967 302 922 q 616 1011 500 1011 q 802 977 720 1011 q 944 880 885 942 q 1034 733 1002 817 q 1065 551 1065 650 q 1023 335 1065 436 q 908 156 982 233 q 736 34 834 78 q 522 -10 637 -10 m 533 192 q 658 221 602 192 q 756 301 715 251 q 819 414 797 351 q 842 545 842 477 q 813 681 842 621 q 732 774 785 740 q 606 808 680 808 q 480 779 537 808 q 382 700 424 749 q 319 587 341 650 q 297 456 297 524 q 326 321 297 380 q 407 227 354 261 q 533 192 460 192 m 395 1097 l 422 1237 l 964 1237 l 937 1097 l 395 1097 z "},"Ṓ":{"ha":1083,"x_min":73,"x_max":1065,"o":"m 419 1097 l 446 1238 l 987 1238 l 961 1097 l 419 1097 m 735 1285 l 627 1374 l 819 1582 l 948 1451 l 735 1285 m 522 -10 q 287 50 388 -10 q 129 215 185 110 q 73 453 73 319 q 114 667 73 566 q 228 845 155 768 q 401 967 302 922 q 616 1011 500 1011 q 802 977 720 1011 q 944 880 885 942 q 1034 733 1002 817 q 1065 551 1065 650 q 1023 335 1065 436 q 908 156 982 233 q 736 34 834 78 q 522 -10 637 -10 m 533 192 q 658 221 602 192 q 756 301 715 251 q 819 414 797 351 q 842 545 842 477 q 813 681 842 621 q 732 774 785 740 q 606 808 680 808 q 480 779 537 808 q 382 700 424 749 q 319 587 341 650 q 297 456 297 524 q 326 321 297 380 q 407 227 354 261 q 533 192 460 192 z "},"Ṑ":{"ha":1083,"x_min":73,"x_max":1065,"o":"m 522 -10 q 287 50 388 -10 q 129 215 185 110 q 73 453 73 319 q 114 667 73 566 q 228 845 155 768 q 401 967 302 922 q 616 1011 500 1011 q 802 977 720 1011 q 944 880 885 942 q 1034 733 1002 817 q 1065 551 1065 650 q 1023 335 1065 436 q 908 156 982 233 q 736 34 834 78 q 522 -10 637 -10 m 533 192 q 658 221 602 192 q 756 301 715 251 q 819 414 797 351 q 842 545 842 477 q 813 681 842 621 q 732 774 785 740 q 606 808 680 808 q 480 779 537 808 q 382 700 424 749 q 319 587 341 650 q 297 456 297 524 q 326 321 297 380 q 407 227 354 261 q 533 192 460 192 m 395 1097 l 422 1237 l 964 1237 l 937 1097 l 395 1097 m 704 1286 l 484 1451 l 604 1582 l 807 1374 l 704 1286 z "},"Ǫ":{"ha":1083,"x_min":73,"x_max":1065,"o":"m 522 -10 q 287 50 388 -10 q 129 215 185 110 q 73 453 73 319 q 114 667 73 566 q 228 845 155 768 q 401 967 302 922 q 616 1011 500 1011 q 802 977 720 1011 q 944 880 885 942 q 1034 733 1002 817 q 1065 551 1065 650 q 1023 335 1065 436 q 908 156 982 233 q 736 34 834 78 q 522 -10 637 -10 m 533 192 q 658 221 602 192 q 756 301 715 251 q 819 414 797 351 q 842 545 842 477 q 813 681 842 621 q 732 774 785 740 q 606 808 680 808 q 480 779 537 808 q 382 700 424 749 q 319 587 341 650 q 297 456 297 524 q 326 321 297 380 q 407 227 354 261 q 533 192 460 192 m 466 -292 q 355 -248 392 -292 q 332 -136 318 -203 q 390 -43 342 -84 q 513 39 437 -3 l 621 0 q 550 -43 585 -20 q 492 -89 515 -66 q 463 -133 468 -112 q 469 -161 460 -150 q 505 -172 479 -172 q 554 -165 530 -172 q 589 -151 578 -157 l 575 -277 q 519 -289 553 -286 q 466 -292 486 -292 z "},"Ø":{"ha":1083,"x_min":28,"x_max":1117,"o":"m 522 -10 q 287 50 388 -10 q 129 215 185 110 q 73 453 73 319 q 114 667 73 566 q 228 845 155 768 q 401 967 302 922 q 616 1011 500 1011 q 802 977 720 1011 q 944 880 885 942 q 1034 733 1002 817 q 1065 551 1065 650 q 1023 335 1065 436 q 908 156 982 233 q 736 34 834 78 q 522 -10 637 -10 m 533 192 q 658 221 602 192 q 756 301 715 251 q 819 414 797 351 q 842 545 842 477 q 813 681 842 621 q 732 774 785 740 q 606 808 680 808 q 480 779 537 808 q 382 700 424 749 q 319 587 341 650 q 297 456 297 524 q 326 321 297 380 q 407 227 354 261 q 533 192 460 192 m 114 -29 l 28 66 l 1031 1016 l 1117 920 l 114 -29 z "},"Ǿ":{"ha":1083,"x_min":28,"x_max":1117,"o":"m 522 -10 q 287 50 388 -10 q 129 215 185 110 q 73 453 73 319 q 114 667 73 566 q 228 845 155 768 q 401 967 302 922 q 616 1011 500 1011 q 802 977 720 1011 q 944 880 885 942 q 1034 733 1002 817 q 1065 551 1065 650 q 1023 335 1065 436 q 908 156 982 233 q 736 34 834 78 q 522 -10 637 -10 m 533 192 q 658 221 602 192 q 756 301 715 251 q 819 414 797 351 q 842 545 842 477 q 813 681 842 621 q 732 774 785 740 q 606 808 680 808 q 480 779 537 808 q 382 700 424 749 q 319 587 341 650 q 297 456 297 524 q 326 321 297 380 q 407 227 354 261 q 533 192 460 192 m 114 -29 l 28 66 l 1031 1016 l 1117 920 l 114 -29 m 665 1048 l 557 1136 l 749 1344 l 878 1213 l 665 1048 z "},"Õ":{"ha":1083,"x_min":73,"x_max":1065,"o":"m 522 -10 q 287 50 388 -10 q 129 215 185 110 q 73 453 73 319 q 114 667 73 566 q 228 845 155 768 q 401 967 302 922 q 616 1011 500 1011 q 802 977 720 1011 q 944 880 885 942 q 1034 733 1002 817 q 1065 551 1065 650 q 1023 335 1065 436 q 908 156 982 233 q 736 34 834 78 q 522 -10 637 -10 m 533 192 q 658 221 602 192 q 756 301 715 251 q 819 414 797 351 q 842 545 842 477 q 813 681 842 621 q 732 774 785 740 q 606 808 680 808 q 480 779 537 808 q 382 700 424 749 q 319 587 341 650 q 297 456 297 524 q 326 321 297 380 q 407 227 354 261 q 533 192 460 192 m 526 1056 l 403 1076 q 471 1217 421 1164 q 591 1270 520 1270 q 658 1259 633 1270 q 698 1232 683 1247 q 725 1205 713 1217 q 754 1194 737 1194 q 807 1220 783 1194 q 837 1281 830 1247 l 961 1261 q 893 1120 944 1174 q 768 1066 842 1066 q 704 1078 728 1066 q 665 1106 680 1090 q 637 1134 650 1122 q 606 1145 625 1145 q 557 1121 578 1145 q 526 1056 535 1096 z "},"Ṍ":{"ha":1083,"x_min":73,"x_max":1065,"o":"m 522 -10 q 287 50 388 -10 q 129 215 185 110 q 73 453 73 319 q 114 667 73 566 q 228 845 155 768 q 401 967 302 922 q 616 1011 500 1011 q 802 977 720 1011 q 944 880 885 942 q 1034 733 1002 817 q 1065 551 1065 650 q 1023 335 1065 436 q 908 156 982 233 q 736 34 834 78 q 522 -10 637 -10 m 533 192 q 658 221 602 192 q 756 301 715 251 q 819 414 797 351 q 842 545 842 477 q 813 681 842 621 q 732 774 785 740 q 606 808 680 808 q 480 779 537 808 q 382 700 424 749 q 319 587 341 650 q 297 456 297 524 q 326 321 297 380 q 407 227 354 261 q 533 192 460 192 m 526 1056 l 403 1076 q 471 1217 421 1164 q 591 1270 520 1270 q 658 1259 633 1270 q 698 1232 683 1247 q 725 1205 713 1217 q 754 1194 737 1194 q 807 1220 783 1194 q 837 1281 830 1247 l 961 1261 q 893 1120 944 1174 q 768 1066 842 1066 q 704 1078 728 1066 q 665 1106 680 1090 q 637 1134 650 1122 q 606 1145 625 1145 q 557 1121 578 1145 q 526 1056 535 1096 m 720 1313 l 612 1401 l 804 1609 l 932 1478 l 720 1313 z "},"Ṏ":{"ha":1083,"x_min":73,"x_max":1065,"o":"m 522 -10 q 287 50 388 -10 q 129 215 185 110 q 73 453 73 319 q 114 667 73 566 q 228 845 155 768 q 401 967 302 922 q 616 1011 500 1011 q 802 977 720 1011 q 944 880 885 942 q 1034 733 1002 817 q 1065 551 1065 650 q 1023 335 1065 436 q 908 156 982 233 q 736 34 834 78 q 522 -10 637 -10 m 533 192 q 658 221 602 192 q 756 301 715 251 q 819 414 797 351 q 842 545 842 477 q 813 681 842 621 q 732 774 785 740 q 606 808 680 808 q 480 779 537 808 q 382 700 424 749 q 319 587 341 650 q 297 456 297 524 q 326 321 297 380 q 407 227 354 261 q 533 192 460 192 m 526 1056 l 403 1076 q 471 1217 421 1164 q 591 1270 520 1270 q 658 1259 633 1270 q 698 1232 683 1247 q 725 1205 713 1217 q 754 1194 737 1194 q 807 1220 783 1194 q 837 1281 830 1247 l 961 1261 q 893 1120 944 1174 q 768 1066 842 1066 q 704 1078 728 1066 q 665 1106 680 1090 q 637 1134 650 1122 q 606 1145 625 1145 q 557 1121 578 1145 q 526 1056 535 1096 m 908 1314 q 819 1350 855 1314 q 783 1436 783 1385 q 817 1520 783 1487 q 900 1554 850 1554 q 984 1520 949 1554 q 1021 1433 1019 1487 q 988 1347 1022 1379 q 908 1314 955 1314 m 574 1314 q 487 1350 522 1314 q 452 1436 452 1385 q 484 1520 452 1486 q 566 1554 517 1554 q 653 1517 618 1554 q 688 1429 688 1480 q 655 1348 688 1381 q 574 1314 623 1314 z "},"Ȭ":{"ha":1083,"x_min":73,"x_max":1065,"o":"m 522 -10 q 287 50 388 -10 q 129 215 185 110 q 73 453 73 319 q 114 667 73 566 q 228 845 155 768 q 401 967 302 922 q 616 1011 500 1011 q 802 977 720 1011 q 944 880 885 942 q 1034 733 1002 817 q 1065 551 1065 650 q 1023 335 1065 436 q 908 156 982 233 q 736 34 834 78 q 522 -10 637 -10 m 533 192 q 658 221 602 192 q 756 301 715 251 q 819 414 797 351 q 842 545 842 477 q 813 681 842 621 q 732 774 785 740 q 606 808 680 808 q 480 779 537 808 q 382 700 424 749 q 319 587 341 650 q 297 456 297 524 q 326 321 297 380 q 407 227 354 261 q 533 192 460 192 m 526 1056 l 403 1076 q 471 1217 421 1164 q 591 1270 520 1270 q 658 1259 633 1270 q 698 1232 683 1247 q 725 1205 713 1217 q 754 1194 737 1194 q 807 1220 783 1194 q 837 1281 830 1247 l 961 1261 q 893 1120 944 1174 q 768 1066 842 1066 q 704 1078 728 1066 q 665 1106 680 1090 q 637 1134 650 1122 q 606 1145 625 1145 q 557 1121 578 1145 q 526 1056 535 1096 m 450 1362 l 476 1502 l 1018 1502 l 991 1362 l 450 1362 z "},"Œ":{"ha":1425,"x_min":68,"x_max":1483,"o":"m 476 -11 q 308 24 383 -11 q 179 119 232 58 q 97 260 125 180 q 68 430 68 340 q 111 650 68 546 q 229 836 154 755 q 404 964 304 917 q 615 1010 503 1010 q 780 979 706 1010 q 904 893 854 948 q 969 768 954 838 l 889 777 l 930 1000 l 1483 1000 l 1444 802 l 1095 802 l 1055 601 l 1349 601 l 1310 410 l 1015 410 l 975 198 l 1324 198 l 1284 0 l 730 0 l 775 222 l 861 212 q 693 46 793 104 q 476 -11 594 -11 m 528 192 q 655 222 597 192 q 756 303 713 252 q 823 418 800 354 q 847 552 847 483 q 819 683 847 625 q 738 774 791 741 q 612 808 686 808 q 485 777 543 808 q 384 695 427 747 q 317 577 340 643 q 293 443 293 512 q 321 314 293 371 q 403 224 350 257 q 528 192 456 192 z "},"P":{"ha":852,"x_min":27,"x_max":867,"o":"m 269 326 l 309 520 l 489 520 q 570 542 534 520 q 627 600 606 564 q 648 680 648 635 q 629 747 648 720 q 581 788 611 774 q 515 802 551 802 l 353 802 l 393 1000 l 527 1000 q 704 963 627 1000 q 824 857 781 926 q 867 691 867 788 q 818 503 867 586 q 680 373 768 420 q 479 326 593 326 l 269 326 m 27 0 l 228 1000 l 454 1000 l 254 0 l 27 0 z "},"Þ":{"ha":854,"x_min":27,"x_max":841,"o":"m 231 165 l 271 363 l 460 363 q 540 388 505 363 q 594 451 575 412 q 614 534 614 490 q 582 613 614 586 q 484 640 550 640 l 327 640 l 366 839 l 522 839 q 756 765 671 839 q 841 557 841 692 q 789 360 841 449 q 647 218 737 271 q 441 165 556 165 l 231 165 m 27 0 l 228 1000 l 454 1000 l 254 0 l 27 0 z "},"Q":{"ha":1116,"x_min":73,"x_max":1066,"o":"m 845 0 l 741 134 l 651 202 l 470 421 l 699 421 l 805 284 l 916 195 l 1066 0 l 845 0 m 522 -10 q 287 50 388 -10 q 129 215 185 110 q 73 453 73 319 q 114 667 73 566 q 228 845 155 768 q 401 967 302 922 q 616 1011 500 1011 q 802 977 720 1011 q 944 880 885 942 q 1034 733 1002 817 q 1065 551 1065 650 q 1023 335 1065 436 q 908 156 982 233 q 736 34 834 78 q 522 -10 637 -10 m 533 192 q 658 221 602 192 q 756 301 715 251 q 819 414 797 351 q 842 545 842 477 q 813 681 842 621 q 732 774 785 740 q 606 808 680 808 q 480 779 537 808 q 382 700 424 749 q 319 587 341 650 q 297 456 297 524 q 326 321 297 380 q 407 227 354 261 q 533 192 460 192 z "},"R":{"ha":916,"x_min":27,"x_max":856,"o":"m 261 346 l 297 526 l 475 526 q 558 547 524 526 q 612 602 593 567 q 631 680 631 637 q 594 772 631 742 q 503 802 557 802 l 340 802 l 381 1000 l 515 1000 q 689 964 612 1000 q 811 860 766 928 q 856 694 856 792 q 805 513 856 591 q 666 390 755 434 q 464 346 577 346 l 261 346 m 27 0 l 227 1000 l 454 1000 l 254 0 l 27 0 m 566 0 l 397 377 l 574 498 l 806 0 l 566 0 z "},"Ŕ":{"ha":916,"x_min":27,"x_max":856,"o":"m 261 346 l 297 526 l 475 526 q 558 547 524 526 q 612 602 593 567 q 631 680 631 637 q 594 772 631 742 q 503 802 557 802 l 340 802 l 381 1000 l 515 1000 q 689 964 612 1000 q 811 860 766 928 q 856 694 856 792 q 805 513 856 591 q 666 390 755 434 q 464 346 577 346 l 261 346 m 27 0 l 227 1000 l 454 1000 l 254 0 l 27 0 m 566 0 l 397 377 l 574 498 l 806 0 l 566 0 m 553 1048 l 445 1136 l 637 1344 l 766 1213 l 553 1048 z "},"Ř":{"ha":916,"x_min":27,"x_max":856,"o":"m 261 346 l 297 526 l 475 526 q 558 547 524 526 q 612 602 593 567 q 631 680 631 637 q 594 772 631 742 q 503 802 557 802 l 340 802 l 381 1000 l 515 1000 q 689 964 612 1000 q 811 860 766 928 q 856 694 856 792 q 805 513 856 591 q 666 390 755 434 q 464 346 577 346 l 261 346 m 27 0 l 227 1000 l 454 1000 l 254 0 l 27 0 m 566 0 l 397 377 l 574 498 l 806 0 l 566 0 m 519 1050 l 304 1219 l 410 1316 l 555 1191 l 562 1191 l 751 1316 l 834 1219 l 562 1050 l 519 1050 z "},"Ŗ":{"ha":916,"x_min":27,"x_max":856,"o":"m 261 346 l 297 526 l 475 526 q 558 547 524 526 q 612 602 593 567 q 631 680 631 637 q 594 772 631 742 q 503 802 557 802 l 340 802 l 381 1000 l 515 1000 q 689 964 612 1000 q 811 860 766 928 q 856 694 856 792 q 805 513 856 591 q 666 390 755 434 q 464 346 577 346 l 261 346 m 27 0 l 227 1000 l 454 1000 l 254 0 l 27 0 m 566 0 l 397 377 l 574 498 l 806 0 l 566 0 m 264 -393 l 229 -337 l 311 -289 q 341 -271 321 -282 q 376 -242 361 -260 q 391 -197 392 -224 l 406 -197 q 399 -230 410 -212 q 359 -248 389 -248 q 297 -222 327 -248 q 267 -155 267 -195 q 295 -93 267 -118 q 361 -67 322 -67 q 429 -95 398 -67 q 459 -178 459 -123 q 428 -276 459 -240 q 354 -337 397 -311 l 264 -393 z "},"Ȑ":{"ha":916,"x_min":27,"x_max":856,"o":"m 261 346 l 297 526 l 475 526 q 558 547 524 526 q 612 602 593 567 q 631 680 631 637 q 594 772 631 742 q 503 802 557 802 l 340 802 l 381 1000 l 515 1000 q 689 964 612 1000 q 811 860 766 928 q 856 694 856 792 q 805 513 856 591 q 666 390 755 434 q 464 346 577 346 l 261 346 m 27 0 l 227 1000 l 454 1000 l 254 0 l 27 0 m 566 0 l 397 377 l 574 498 l 806 0 l 566 0 m 368 1059 l 233 1278 l 383 1355 l 481 1111 l 368 1059 m 636 1059 l 505 1278 l 655 1355 l 750 1111 l 636 1059 z "},"Ṛ":{"ha":916,"x_min":27,"x_max":856,"o":"m 261 346 l 297 526 l 475 526 q 558 547 524 526 q 612 602 593 567 q 631 680 631 637 q 594 772 631 742 q 503 802 557 802 l 340 802 l 381 1000 l 515 1000 q 689 964 612 1000 q 811 860 766 928 q 856 694 856 792 q 805 513 856 591 q 666 390 755 434 q 464 346 577 346 l 261 346 m 27 0 l 227 1000 l 454 1000 l 254 0 l 27 0 m 566 0 l 397 377 l 574 498 l 806 0 l 566 0 m 350 -336 q 257 -298 294 -336 q 219 -205 219 -260 q 257 -113 219 -151 q 350 -75 294 -75 q 442 -113 404 -75 q 480 -205 480 -151 q 442 -298 480 -260 q 350 -336 404 -336 z "},"Ȓ":{"ha":916,"x_min":27,"x_max":856,"o":"m 261 346 l 297 526 l 475 526 q 558 547 524 526 q 612 602 593 567 q 631 680 631 637 q 594 772 631 742 q 503 802 557 802 l 340 802 l 381 1000 l 515 1000 q 689 964 612 1000 q 811 860 766 928 q 856 694 856 792 q 805 513 856 591 q 666 390 755 434 q 464 346 577 346 l 261 346 m 27 0 l 227 1000 l 454 1000 l 254 0 l 27 0 m 566 0 l 397 377 l 574 498 l 806 0 l 566 0 m 802 1045 l 676 1065 q 655 1136 685 1105 q 565 1167 625 1167 q 463 1137 504 1167 q 412 1055 422 1107 l 287 1074 q 344 1193 300 1147 q 450 1261 389 1239 q 573 1283 511 1283 q 705 1252 648 1283 q 790 1168 762 1221 q 802 1045 817 1114 z "},"Ṟ":{"ha":916,"x_min":27,"x_max":856,"o":"m 261 346 l 297 526 l 475 526 q 558 547 524 526 q 612 602 593 567 q 631 680 631 637 q 594 772 631 742 q 503 802 557 802 l 340 802 l 381 1000 l 515 1000 q 689 964 612 1000 q 811 860 766 928 q 856 694 856 792 q 805 513 856 591 q 666 390 755 434 q 464 346 577 346 l 261 346 m 27 0 l 227 1000 l 454 1000 l 254 0 l 27 0 m 566 0 l 397 377 l 574 498 l 806 0 l 566 0 m 47 -281 l 73 -152 l 648 -152 l 622 -281 l 47 -281 z "},"S":{"ha":797,"x_min":26,"x_max":806,"o":"m 377 -11 q 210 22 283 -11 q 88 111 136 56 q 26 231 41 166 l 250 322 q 275 258 256 288 q 325 210 295 228 q 391 191 355 191 q 448 205 423 191 q 488 244 473 220 q 503 297 503 268 q 477 362 503 336 q 411 410 452 389 q 326 455 371 432 q 240 511 281 479 q 175 591 200 543 q 149 709 149 639 q 194 868 149 801 q 316 973 239 936 q 488 1010 393 1010 q 642 982 574 1010 q 752 907 709 954 q 806 802 795 859 l 593 715 q 573 761 588 739 q 533 795 558 782 q 475 808 509 808 q 422 797 445 808 q 386 765 399 785 q 372 718 372 745 q 398 656 372 682 q 464 609 423 630 q 549 564 504 587 q 634 508 594 541 q 700 426 675 475 q 726 305 726 377 q 681 141 726 212 q 557 30 635 70 q 377 -11 478 -11 z "},"Ś":{"ha":798,"x_min":26,"x_max":806,"o":"m 377 -11 q 210 22 283 -11 q 88 111 136 56 q 26 231 41 166 l 250 322 q 275 258 256 288 q 325 210 295 228 q 391 191 355 191 q 448 205 423 191 q 488 244 473 220 q 503 297 503 268 q 477 362 503 336 q 411 410 452 389 q 326 455 371 432 q 240 511 281 479 q 175 591 200 543 q 149 709 149 639 q 194 868 149 801 q 316 973 239 936 q 488 1010 393 1010 q 642 982 574 1010 q 752 907 709 954 q 806 802 795 859 l 593 715 q 573 761 588 739 q 533 795 558 782 q 475 808 509 808 q 422 797 445 808 q 386 765 399 785 q 372 718 372 745 q 398 656 372 682 q 464 609 423 630 q 549 564 504 587 q 634 508 594 541 q 700 426 675 475 q 726 305 726 377 q 681 141 726 212 q 557 30 635 70 q 377 -11 478 -11 m 536 1048 l 429 1136 l 621 1344 l 749 1213 l 536 1048 z "},"Ṥ":{"ha":798,"x_min":26,"x_max":903,"o":"m 377 -11 q 210 22 283 -11 q 88 111 136 56 q 26 231 41 166 l 250 322 q 275 258 256 288 q 325 210 295 228 q 391 191 355 191 q 448 205 423 191 q 488 244 473 220 q 503 297 503 268 q 477 362 503 336 q 411 410 452 389 q 326 455 371 432 q 240 511 281 479 q 175 591 200 543 q 149 709 149 639 q 194 868 149 801 q 316 973 239 936 q 488 1010 393 1010 q 642 982 574 1010 q 752 907 709 954 q 806 802 795 859 l 593 715 q 573 761 588 739 q 533 795 558 782 q 475 808 509 808 q 422 797 445 808 q 386 765 399 785 q 372 718 372 745 q 398 656 372 682 q 464 609 423 630 q 549 564 504 587 q 634 508 594 541 q 700 426 675 475 q 726 305 726 377 q 681 141 726 212 q 557 30 635 70 q 377 -11 478 -11 m 677 1054 l 581 1131 l 781 1388 l 903 1273 l 677 1054 m 406 1084 q 313 1122 351 1084 q 275 1215 275 1160 q 313 1307 275 1270 q 406 1345 351 1345 q 498 1307 460 1345 q 536 1215 536 1270 q 498 1122 536 1160 q 406 1084 460 1084 z "},"Š":{"ha":798,"x_min":26,"x_max":818,"o":"m 377 -11 q 210 22 283 -11 q 88 111 136 56 q 26 231 41 166 l 250 322 q 275 258 256 288 q 325 210 295 228 q 391 191 355 191 q 448 205 423 191 q 488 244 473 220 q 503 297 503 268 q 477 362 503 336 q 411 410 452 389 q 326 455 371 432 q 240 511 281 479 q 175 591 200 543 q 149 709 149 639 q 194 868 149 801 q 316 973 239 936 q 488 1010 393 1010 q 642 982 574 1010 q 752 907 709 954 q 806 802 795 859 l 593 715 q 573 761 588 739 q 533 795 558 782 q 475 808 509 808 q 422 797 445 808 q 386 765 399 785 q 372 718 372 745 q 398 656 372 682 q 464 609 423 630 q 549 564 504 587 q 634 508 594 541 q 700 426 675 475 q 726 305 726 377 q 681 141 726 212 q 557 30 635 70 q 377 -11 478 -11 m 503 1050 l 288 1219 l 393 1316 l 539 1191 l 546 1191 l 735 1316 l 818 1219 l 545 1050 l 503 1050 z "},"Ṧ":{"ha":798,"x_min":26,"x_max":818,"o":"m 377 -11 q 210 22 283 -11 q 88 111 136 56 q 26 231 41 166 l 250 322 q 275 258 256 288 q 325 210 295 228 q 391 191 355 191 q 448 205 423 191 q 488 244 473 220 q 503 297 503 268 q 477 362 503 336 q 411 410 452 389 q 326 455 371 432 q 240 511 281 479 q 175 591 200 543 q 149 709 149 639 q 194 868 149 801 q 316 973 239 936 q 488 1010 393 1010 q 642 982 574 1010 q 752 907 709 954 q 806 802 795 859 l 593 715 q 573 761 588 739 q 533 795 558 782 q 475 808 509 808 q 422 797 445 808 q 386 765 399 785 q 372 718 372 745 q 398 656 372 682 q 464 609 423 630 q 549 564 504 587 q 634 508 594 541 q 700 426 675 475 q 726 305 726 377 q 681 141 726 212 q 557 30 635 70 q 377 -11 478 -11 m 503 1050 l 288 1219 l 393 1316 l 539 1191 l 546 1191 l 735 1316 l 818 1219 l 545 1050 l 503 1050 m 593 1295 q 499 1333 537 1295 q 462 1426 462 1371 q 499 1518 462 1480 q 593 1556 537 1556 q 685 1518 647 1556 q 723 1426 723 1480 q 685 1333 723 1371 q 593 1295 647 1295 z "},"Ş":{"ha":798,"x_min":26,"x_max":806,"o":"m 377 -11 q 210 22 283 -11 q 88 111 136 56 q 26 231 41 166 l 250 322 q 275 258 256 288 q 325 210 295 228 q 391 191 355 191 q 448 205 423 191 q 488 244 473 220 q 503 297 503 268 q 477 362 503 336 q 411 410 452 389 q 326 455 371 432 q 240 511 281 479 q 175 591 200 543 q 149 709 149 639 q 194 868 149 801 q 316 973 239 936 q 488 1010 393 1010 q 642 982 574 1010 q 752 907 709 954 q 806 802 795 859 l 593 715 q 573 761 588 739 q 533 795 558 782 q 475 808 509 808 q 422 797 445 808 q 386 765 399 785 q 372 718 372 745 q 398 656 372 682 q 464 609 423 630 q 549 564 504 587 q 634 508 594 541 q 700 426 675 475 q 726 305 726 377 q 681 141 726 212 q 557 30 635 70 q 377 -11 478 -11 m 192 -347 l 203 -243 q 314 -226 273 -245 q 359 -182 355 -207 q 342 -150 364 -161 q 270 -136 321 -139 l 336 0 l 434 0 l 371 -111 l 363 -64 q 430 -81 400 -64 q 476 -130 460 -98 q 481 -208 491 -162 q 438 -287 472 -256 q 343 -333 404 -318 q 192 -347 283 -347 z "},"Ŝ":{"ha":798,"x_min":26,"x_max":812,"o":"m 377 -11 q 210 22 283 -11 q 88 111 136 56 q 26 231 41 166 l 250 322 q 275 258 256 288 q 325 210 295 228 q 391 191 355 191 q 448 205 423 191 q 488 244 473 220 q 503 297 503 268 q 477 362 503 336 q 411 410 452 389 q 326 455 371 432 q 240 511 281 479 q 175 591 200 543 q 149 709 149 639 q 194 868 149 801 q 316 973 239 936 q 488 1010 393 1010 q 642 982 574 1010 q 752 907 709 954 q 806 802 795 859 l 593 715 q 573 761 588 739 q 533 795 558 782 q 475 808 509 808 q 422 797 445 808 q 386 765 399 785 q 372 718 372 745 q 398 656 372 682 q 464 609 423 630 q 549 564 504 587 q 634 508 594 541 q 700 426 675 475 q 726 305 726 377 q 681 141 726 212 q 557 30 635 70 q 377 -11 478 -11 m 367 1050 l 283 1148 l 557 1316 l 598 1316 l 812 1148 l 707 1050 l 562 1177 l 556 1177 l 367 1050 z "},"Ș":{"ha":798,"x_min":26,"x_max":806,"o":"m 377 -11 q 210 22 283 -11 q 88 111 136 56 q 26 231 41 166 l 250 322 q 275 258 256 288 q 325 210 295 228 q 391 191 355 191 q 448 205 423 191 q 488 244 473 220 q 503 297 503 268 q 477 362 503 336 q 411 410 452 389 q 326 455 371 432 q 240 511 281 479 q 175 591 200 543 q 149 709 149 639 q 194 868 149 801 q 316 973 239 936 q 488 1010 393 1010 q 642 982 574 1010 q 752 907 709 954 q 806 802 795 859 l 593 715 q 573 761 588 739 q 533 795 558 782 q 475 808 509 808 q 422 797 445 808 q 386 765 399 785 q 372 718 372 745 q 398 656 372 682 q 464 609 423 630 q 549 564 504 587 q 634 508 594 541 q 700 426 675 475 q 726 305 726 377 q 681 141 726 212 q 557 30 635 70 q 377 -11 478 -11 m 208 -393 l 172 -337 l 254 -289 q 285 -271 265 -282 q 320 -242 304 -260 q 335 -197 336 -224 l 350 -197 q 343 -230 353 -212 q 303 -248 332 -248 q 241 -222 271 -248 q 211 -155 211 -195 q 238 -93 211 -118 q 304 -67 266 -67 q 372 -95 342 -67 q 403 -178 403 -123 q 372 -276 403 -240 q 298 -337 340 -311 l 208 -393 z "},"Ṡ":{"ha":798,"x_min":26,"x_max":806,"o":"m 377 -11 q 210 22 283 -11 q 88 111 136 56 q 26 231 41 166 l 250 322 q 275 258 256 288 q 325 210 295 228 q 391 191 355 191 q 448 205 423 191 q 488 244 473 220 q 503 297 503 268 q 477 362 503 336 q 411 410 452 389 q 326 455 371 432 q 240 511 281 479 q 175 591 200 543 q 149 709 149 639 q 194 868 149 801 q 316 973 239 936 q 488 1010 393 1010 q 642 982 574 1010 q 752 907 709 954 q 806 802 795 859 l 593 715 q 573 761 588 739 q 533 795 558 782 q 475 808 509 808 q 422 797 445 808 q 386 765 399 785 q 372 718 372 745 q 398 656 372 682 q 464 609 423 630 q 549 564 504 587 q 634 508 594 541 q 700 426 675 475 q 726 305 726 377 q 681 141 726 212 q 557 30 635 70 q 377 -11 478 -11 m 564 1060 q 470 1098 508 1060 q 433 1191 433 1136 q 470 1283 433 1246 q 564 1321 508 1321 q 656 1283 618 1321 q 694 1191 694 1246 q 656 1098 694 1136 q 564 1060 618 1060 z "},"Ṣ":{"ha":798,"x_min":26,"x_max":806,"o":"m 377 -11 q 210 22 283 -11 q 88 111 136 56 q 26 231 41 166 l 250 322 q 275 258 256 288 q 325 210 295 228 q 391 191 355 191 q 448 205 423 191 q 488 244 473 220 q 503 297 503 268 q 477 362 503 336 q 411 410 452 389 q 326 455 371 432 q 240 511 281 479 q 175 591 200 543 q 149 709 149 639 q 194 868 149 801 q 316 973 239 936 q 488 1010 393 1010 q 642 982 574 1010 q 752 907 709 954 q 806 802 795 859 l 593 715 q 573 761 588 739 q 533 795 558 782 q 475 808 509 808 q 422 797 445 808 q 386 765 399 785 q 372 718 372 745 q 398 656 372 682 q 464 609 423 630 q 549 564 504 587 q 634 508 594 541 q 700 426 675 475 q 726 305 726 377 q 681 141 726 212 q 557 30 635 70 q 377 -11 478 -11 m 294 -336 q 201 -298 239 -336 q 163 -205 163 -260 q 201 -113 163 -151 q 294 -75 239 -75 q 387 -113 349 -75 q 425 -205 425 -151 q 387 -298 425 -260 q 294 -336 349 -336 z "},"Ṩ":{"ha":798,"x_min":26,"x_max":806,"o":"m 377 -11 q 210 22 283 -11 q 88 111 136 56 q 26 231 41 166 l 250 322 q 275 258 256 288 q 325 210 295 228 q 391 191 355 191 q 448 205 423 191 q 488 244 473 220 q 503 297 503 268 q 477 362 503 336 q 411 410 452 389 q 326 455 371 432 q 240 511 281 479 q 175 591 200 543 q 149 709 149 639 q 194 868 149 801 q 316 973 239 936 q 488 1010 393 1010 q 642 982 574 1010 q 752 907 709 954 q 806 802 795 859 l 593 715 q 573 761 588 739 q 533 795 558 782 q 475 808 509 808 q 422 797 445 808 q 386 765 399 785 q 372 718 372 745 q 398 656 372 682 q 464 609 423 630 q 549 564 504 587 q 634 508 594 541 q 700 426 675 475 q 726 305 726 377 q 681 141 726 212 q 557 30 635 70 q 377 -11 478 -11 m 310 -336 q 217 -298 254 -336 q 179 -205 179 -260 q 217 -113 179 -151 q 310 -75 254 -75 q 402 -113 364 -75 q 440 -205 440 -151 q 402 -298 440 -260 q 310 -336 364 -336 m 583 1061 q 489 1099 527 1061 q 452 1192 452 1137 q 489 1284 452 1246 q 583 1322 527 1322 q 675 1284 637 1322 q 713 1192 713 1246 q 675 1099 713 1137 q 583 1061 637 1061 z "},"ẞ":{"ha":963,"x_min":18,"x_max":947,"o":"m 503 -12 q 428 -6 460 -12 q 382 3 395 -1 l 418 188 q 466 180 447 182 q 503 178 484 178 q 581 188 545 178 q 641 218 616 199 q 680 265 667 238 q 694 323 694 292 q 674 387 694 363 q 627 422 654 411 q 576 438 600 434 q 541 441 551 441 l 490 441 l 496 479 l 690 849 l 694 799 q 654 812 678 808 q 599 817 630 817 q 515 807 553 817 q 449 778 477 797 q 403 730 421 758 q 378 665 385 702 l 243 0 l 18 0 l 160 711 q 209 836 174 781 q 298 929 243 890 q 428 989 353 968 q 598 1010 503 1010 q 798 987 705 1010 q 945 933 892 964 l 947 914 l 724 492 l 653 577 q 794 549 736 578 q 883 467 852 520 q 913 341 913 414 q 881 201 913 266 q 793 89 849 136 q 662 15 736 41 q 503 -12 587 -12 z "},"T":{"ha":754,"x_min":122,"x_max":846,"o":"m 191 0 l 356 832 l 582 832 l 417 0 l 191 0 m 122 802 l 162 1000 l 846 1000 l 806 802 l 122 802 z "},"Ŧ":{"ha":754,"x_min":122,"x_max":846,"o":"m 191 0 l 356 832 l 582 832 l 417 0 l 191 0 m 122 802 l 162 1000 l 846 1000 l 806 802 l 122 802 m 161 406 l 183 515 l 623 515 l 600 406 l 161 406 z "},"Ť":{"ha":754,"x_min":122,"x_max":846,"o":"m 191 0 l 356 832 l 582 832 l 417 0 l 191 0 m 122 802 l 162 1000 l 846 1000 l 806 802 l 122 802 m 490 1050 l 275 1219 l 380 1316 l 526 1191 l 533 1191 l 722 1316 l 805 1219 l 532 1050 l 490 1050 z "},"Ţ":{"ha":754,"x_min":110,"x_max":846,"o":"m 191 0 l 356 832 l 582 832 l 417 0 l 191 0 m 122 802 l 162 1000 l 846 1000 l 806 802 l 122 802 m 110 -347 l 121 -243 q 232 -226 191 -245 q 277 -182 273 -207 q 260 -150 282 -161 q 188 -136 239 -139 l 254 0 l 352 0 l 289 -111 l 281 -64 q 348 -81 318 -64 q 394 -130 378 -98 q 399 -208 409 -162 q 356 -287 390 -256 q 261 -333 322 -318 q 110 -347 201 -347 z "},"Ț":{"ha":754,"x_min":122,"x_max":846,"o":"m 191 0 l 356 832 l 582 832 l 417 0 l 191 0 m 122 802 l 162 1000 l 846 1000 l 806 802 l 122 802 m 176 -393 l 140 -337 l 222 -289 q 253 -271 233 -282 q 288 -242 273 -260 q 303 -197 304 -224 l 318 -197 q 311 -230 321 -212 q 271 -248 300 -248 q 209 -222 239 -248 q 179 -155 179 -195 q 207 -93 179 -118 q 273 -67 234 -67 q 340 -95 310 -67 q 371 -178 371 -123 q 340 -276 371 -240 q 266 -337 309 -311 l 176 -393 z "},"Ṭ":{"ha":754,"x_min":122,"x_max":846,"o":"m 191 0 l 356 832 l 582 832 l 417 0 l 191 0 m 122 802 l 162 1000 l 846 1000 l 806 802 l 122 802 m 262 -336 q 169 -298 206 -336 q 131 -205 131 -260 q 169 -113 131 -151 q 262 -75 206 -75 q 354 -113 316 -75 q 392 -205 392 -151 q 354 -298 392 -260 q 262 -336 316 -336 z "},"Ṯ":{"ha":754,"x_min":-41,"x_max":846,"o":"m 191 0 l 356 832 l 582 832 l 417 0 l 191 0 m 122 802 l 162 1000 l 846 1000 l 806 802 l 122 802 m -41 -281 l -15 -152 l 559 -152 l 534 -281 l -41 -281 z "},"U":{"ha":972,"x_min":82,"x_max":998,"o":"m 445 -11 q 241 41 326 -11 q 119 185 157 93 q 106 398 82 277 l 226 1000 l 452 1000 l 325 360 q 328 268 315 307 q 375 208 342 229 q 456 187 408 187 q 582 241 532 187 q 649 380 632 294 l 772 1000 l 998 1000 l 874 373 q 728 91 838 192 q 445 -11 618 -11 z "},"Ú":{"ha":972,"x_min":82,"x_max":998,"o":"m 445 -11 q 241 41 326 -11 q 119 185 157 93 q 106 398 82 277 l 226 1000 l 452 1000 l 325 360 q 328 268 315 307 q 375 208 342 229 q 456 187 408 187 q 582 241 532 187 q 649 380 632 294 l 772 1000 l 998 1000 l 874 373 q 728 91 838 192 q 445 -11 618 -11 m 629 1048 l 522 1136 l 713 1344 l 842 1213 l 629 1048 z "},"Ŭ":{"ha":972,"x_min":82,"x_max":998,"o":"m 445 -11 q 241 41 326 -11 q 119 185 157 93 q 106 398 82 277 l 226 1000 l 452 1000 l 325 360 q 328 268 315 307 q 375 208 342 229 q 456 187 408 187 q 582 241 532 187 q 649 380 632 294 l 772 1000 l 998 1000 l 874 373 q 728 91 838 192 q 445 -11 618 -11 m 628 1062 q 501 1089 556 1062 q 421 1168 446 1117 q 410 1290 395 1219 l 533 1270 q 540 1214 526 1234 q 581 1184 554 1193 q 638 1175 608 1175 q 743 1205 696 1175 q 800 1290 789 1235 l 926 1270 q 866 1153 912 1200 q 756 1084 819 1107 q 628 1062 693 1062 z "},"Û":{"ha":972,"x_min":82,"x_max":998,"o":"m 445 -11 q 241 41 326 -11 q 119 185 157 93 q 106 398 82 277 l 226 1000 l 452 1000 l 325 360 q 328 268 315 307 q 375 208 342 229 q 456 187 408 187 q 582 241 532 187 q 649 380 632 294 l 772 1000 l 998 1000 l 874 373 q 728 91 838 192 q 445 -11 618 -11 m 459 1050 l 376 1148 l 649 1316 l 690 1316 l 905 1148 l 800 1050 l 654 1177 l 648 1177 l 459 1050 z "},"Ȕ":{"ha":972,"x_min":82,"x_max":998,"o":"m 445 -11 q 241 41 326 -11 q 119 185 157 93 q 106 398 82 277 l 226 1000 l 452 1000 l 325 360 q 328 268 315 307 q 375 208 342 229 q 456 187 408 187 q 582 241 532 187 q 649 380 632 294 l 772 1000 l 998 1000 l 874 373 q 728 91 838 192 q 445 -11 618 -11 m 444 1059 l 309 1278 l 460 1355 l 557 1111 l 444 1059 m 713 1059 l 581 1278 l 732 1355 l 827 1111 l 713 1059 z "},"Ü":{"ha":972,"x_min":82,"x_max":998,"o":"m 445 -11 q 241 41 326 -11 q 119 185 157 93 q 106 398 82 277 l 226 1000 l 452 1000 l 325 360 q 328 268 315 307 q 375 208 342 229 q 456 187 408 187 q 582 241 532 187 q 649 380 632 294 l 772 1000 l 998 1000 l 874 373 q 728 91 838 192 q 445 -11 618 -11 m 817 1049 q 728 1084 764 1049 q 692 1171 692 1120 q 726 1255 692 1221 q 809 1289 760 1289 q 893 1255 858 1289 q 930 1168 928 1222 q 898 1082 931 1114 q 817 1049 864 1049 m 483 1049 q 396 1084 431 1049 q 361 1171 361 1120 q 393 1255 361 1221 q 475 1289 426 1289 q 562 1252 527 1289 q 597 1164 597 1215 q 565 1083 597 1116 q 483 1049 532 1049 z "},"Ụ":{"ha":972,"x_min":82,"x_max":998,"o":"m 445 -11 q 241 41 326 -11 q 119 185 157 93 q 106 398 82 277 l 226 1000 l 452 1000 l 325 360 q 328 268 315 307 q 375 208 342 229 q 456 187 408 187 q 582 241 532 187 q 649 380 632 294 l 772 1000 l 998 1000 l 874 373 q 728 91 838 192 q 445 -11 618 -11 m 420 -336 q 327 -298 365 -336 q 290 -205 290 -260 q 327 -113 290 -151 q 420 -75 365 -75 q 513 -113 475 -75 q 551 -205 551 -151 q 513 -298 551 -260 q 420 -336 475 -336 z "},"Ù":{"ha":972,"x_min":82,"x_max":998,"o":"m 445 -11 q 241 41 326 -11 q 119 185 157 93 q 106 398 82 277 l 226 1000 l 452 1000 l 325 360 q 328 268 315 307 q 375 208 342 229 q 456 187 408 187 q 582 241 532 187 q 649 380 632 294 l 772 1000 l 998 1000 l 874 373 q 728 91 838 192 q 445 -11 618 -11 m 622 1048 l 401 1213 l 522 1344 l 725 1136 l 622 1048 z "},"Ủ":{"ha":972,"x_min":82,"x_max":998,"o":"m 445 -11 q 241 41 326 -11 q 119 185 157 93 q 106 398 82 277 l 226 1000 l 452 1000 l 325 360 q 328 268 315 307 q 375 208 342 229 q 456 187 408 187 q 582 241 532 187 q 649 380 632 294 l 772 1000 l 998 1000 l 874 373 q 728 91 838 192 q 445 -11 618 -11 m 651 1047 l 586 1129 q 631 1160 614 1143 q 652 1196 648 1177 q 645 1222 656 1213 q 601 1232 634 1232 q 554 1227 580 1232 q 510 1217 529 1223 l 527 1348 q 567 1356 546 1354 q 614 1359 588 1359 q 753 1319 712 1359 q 781 1213 794 1279 q 734 1116 770 1158 q 651 1047 698 1075 z "},"Ư":{"ha":1030,"x_min":82,"x_max":1258,"o":"m 445 -11 q 241 41 326 -11 q 119 185 157 93 q 106 398 82 277 l 226 1000 l 452 1000 l 325 360 q 328 268 315 307 q 375 208 342 229 q 456 187 408 187 q 582 241 532 187 q 649 380 632 294 l 772 1000 l 998 1000 l 874 373 q 728 91 838 192 q 445 -11 618 -11 m 912 856 l 928 1000 q 1041 1037 1000 1000 q 1097 1145 1082 1074 q 1101 1173 1100 1156 q 1102 1207 1102 1190 l 1255 1215 q 1256 1158 1259 1190 q 1248 1096 1254 1126 q 1204 996 1237 1041 q 1123 918 1171 950 q 1021 869 1076 885 q 912 856 966 852 z "},"Ứ":{"ha":1030,"x_min":82,"x_max":1258,"o":"m 445 -11 q 241 41 326 -11 q 119 185 157 93 q 106 398 82 277 l 226 1000 l 452 1000 l 325 360 q 328 268 315 307 q 375 208 342 229 q 456 187 408 187 q 582 241 532 187 q 649 380 632 294 l 772 1000 l 998 1000 l 874 373 q 728 91 838 192 q 445 -11 618 -11 m 912 856 l 928 1000 q 1041 1037 1000 1000 q 1097 1145 1082 1074 q 1101 1173 1100 1156 q 1102 1207 1102 1190 l 1255 1215 q 1256 1158 1259 1190 q 1248 1096 1254 1126 q 1204 996 1237 1041 q 1123 918 1171 950 q 1021 869 1076 885 q 912 856 966 852 m 629 1048 l 522 1136 l 713 1344 l 842 1213 l 629 1048 z "},"Ự":{"ha":1030,"x_min":82,"x_max":1258,"o":"m 445 -11 q 241 41 326 -11 q 119 185 157 93 q 106 398 82 277 l 226 1000 l 452 1000 l 325 360 q 328 268 315 307 q 375 208 342 229 q 456 187 408 187 q 582 241 532 187 q 649 380 632 294 l 772 1000 l 998 1000 l 874 373 q 728 91 838 192 q 445 -11 618 -11 m 912 856 l 928 1000 q 1041 1037 1000 1000 q 1097 1145 1082 1074 q 1101 1173 1100 1156 q 1102 1207 1102 1190 l 1255 1215 q 1256 1158 1259 1190 q 1248 1096 1254 1126 q 1204 996 1237 1041 q 1123 918 1171 950 q 1021 869 1076 885 q 912 856 966 852 m 420 -336 q 327 -298 365 -336 q 290 -205 290 -260 q 327 -113 290 -151 q 420 -75 365 -75 q 513 -113 475 -75 q 551 -205 551 -151 q 513 -298 551 -260 q 420 -336 475 -336 z "},"Ừ":{"ha":1030,"x_min":82,"x_max":1258,"o":"m 445 -11 q 241 41 326 -11 q 119 185 157 93 q 106 398 82 277 l 226 1000 l 452 1000 l 325 360 q 328 268 315 307 q 375 208 342 229 q 456 187 408 187 q 582 241 532 187 q 649 380 632 294 l 772 1000 l 998 1000 l 874 373 q 728 91 838 192 q 445 -11 618 -11 m 912 856 l 928 1000 q 1041 1037 1000 1000 q 1097 1145 1082 1074 q 1101 1173 1100 1156 q 1102 1207 1102 1190 l 1255 1215 q 1256 1158 1259 1190 q 1248 1096 1254 1126 q 1204 996 1237 1041 q 1123 918 1171 950 q 1021 869 1076 885 q 912 856 966 852 m 622 1048 l 401 1213 l 522 1344 l 725 1136 l 622 1048 z "},"Ử":{"ha":1030,"x_min":82,"x_max":1258,"o":"m 445 -11 q 241 41 326 -11 q 119 185 157 93 q 106 398 82 277 l 226 1000 l 452 1000 l 325 360 q 328 268 315 307 q 375 208 342 229 q 456 187 408 187 q 582 241 532 187 q 649 380 632 294 l 772 1000 l 998 1000 l 874 373 q 728 91 838 192 q 445 -11 618 -11 m 912 856 l 928 1000 q 1041 1037 1000 1000 q 1097 1145 1082 1074 q 1101 1173 1100 1156 q 1102 1207 1102 1190 l 1255 1215 q 1256 1158 1259 1190 q 1248 1096 1254 1126 q 1204 996 1237 1041 q 1123 918 1171 950 q 1021 869 1076 885 q 912 856 966 852 m 651 1047 l 586 1129 q 631 1160 614 1143 q 652 1196 648 1177 q 645 1222 656 1213 q 601 1232 634 1232 q 554 1227 580 1232 q 510 1217 529 1223 l 527 1348 q 567 1356 546 1354 q 614 1359 588 1359 q 753 1319 712 1359 q 781 1213 794 1279 q 734 1116 770 1158 q 651 1047 698 1075 z "},"Ữ":{"ha":1030,"x_min":82,"x_max":1258,"o":"m 445 -11 q 241 41 326 -11 q 119 185 157 93 q 106 398 82 277 l 226 1000 l 452 1000 l 325 360 q 328 268 315 307 q 375 208 342 229 q 456 187 408 187 q 582 241 532 187 q 649 380 632 294 l 772 1000 l 998 1000 l 874 373 q 728 91 838 192 q 445 -11 618 -11 m 912 856 l 928 1000 q 1041 1037 1000 1000 q 1097 1145 1082 1074 q 1101 1173 1100 1156 q 1102 1207 1102 1190 l 1255 1215 q 1256 1158 1259 1190 q 1248 1096 1254 1126 q 1204 996 1237 1041 q 1123 918 1171 950 q 1021 869 1076 885 q 912 856 966 852 m 490 1056 l 366 1076 q 434 1217 385 1164 q 554 1270 484 1270 q 622 1259 597 1270 q 661 1232 646 1247 q 688 1205 676 1217 q 718 1194 701 1194 q 770 1220 747 1194 q 800 1281 793 1247 l 924 1261 q 856 1120 907 1174 q 731 1066 805 1066 q 667 1078 691 1066 q 629 1106 644 1090 q 601 1134 614 1122 q 569 1145 588 1145 q 520 1121 542 1145 q 490 1056 498 1096 z "},"Ű":{"ha":972,"x_min":82,"x_max":1023,"o":"m 445 -11 q 241 41 326 -11 q 119 185 157 93 q 106 398 82 277 l 226 1000 l 452 1000 l 325 360 q 328 268 315 307 q 375 208 342 229 q 456 187 408 187 q 582 241 532 187 q 649 380 632 294 l 772 1000 l 998 1000 l 874 373 q 728 91 838 192 q 445 -11 618 -11 m 536 1059 l 435 1111 l 627 1355 l 753 1278 l 536 1059 m 807 1059 l 707 1111 l 894 1355 l 1023 1278 l 807 1059 z "},"Ȗ":{"ha":972,"x_min":82,"x_max":998,"o":"m 445 -11 q 241 41 326 -11 q 119 185 157 93 q 106 398 82 277 l 226 1000 l 452 1000 l 325 360 q 328 268 315 307 q 375 208 342 229 q 456 187 408 187 q 582 241 532 187 q 649 380 632 294 l 772 1000 l 998 1000 l 874 373 q 728 91 838 192 q 445 -11 618 -11 m 878 1045 l 753 1065 q 732 1136 762 1105 q 642 1167 702 1167 q 540 1137 581 1167 q 488 1055 499 1107 l 363 1074 q 421 1193 376 1147 q 526 1261 465 1239 q 650 1283 587 1283 q 782 1252 725 1283 q 866 1168 839 1221 q 878 1045 894 1114 z "},"Ū":{"ha":972,"x_min":82,"x_max":998,"o":"m 445 -11 q 241 41 326 -11 q 119 185 157 93 q 106 398 82 277 l 226 1000 l 452 1000 l 325 360 q 328 268 315 307 q 375 208 342 229 q 456 187 408 187 q 582 241 532 187 q 649 380 632 294 l 772 1000 l 998 1000 l 874 373 q 728 91 838 192 q 445 -11 618 -11 m 359 1097 l 386 1237 l 928 1237 l 901 1097 l 359 1097 z "},"Ṻ":{"ha":972,"x_min":82,"x_max":998,"o":"m 445 -11 q 241 41 326 -11 q 119 185 157 93 q 106 398 82 277 l 226 1000 l 452 1000 l 325 360 q 328 268 315 307 q 375 208 342 229 q 456 187 408 187 q 582 241 532 187 q 649 380 632 294 l 772 1000 l 998 1000 l 874 373 q 728 91 838 192 q 445 -11 618 -11 m 359 1097 l 386 1237 l 928 1237 l 901 1097 l 359 1097 m 863 1287 q 774 1322 810 1287 q 739 1409 739 1358 q 772 1493 739 1459 q 855 1527 806 1527 q 939 1493 904 1527 q 976 1406 975 1460 q 944 1320 977 1352 q 863 1287 910 1287 m 529 1287 q 442 1322 477 1287 q 407 1409 407 1358 q 439 1493 407 1459 q 521 1527 472 1527 q 608 1490 573 1527 q 644 1402 644 1453 q 611 1321 644 1354 q 529 1287 578 1287 z "},"Ų":{"ha":972,"x_min":82,"x_max":998,"o":"m 445 -11 q 241 41 326 -11 q 119 185 157 93 q 106 398 82 277 l 226 1000 l 452 1000 l 325 360 q 328 268 315 307 q 375 208 342 229 q 456 187 408 187 q 582 241 532 187 q 649 380 632 294 l 772 1000 l 998 1000 l 874 373 q 728 91 838 192 q 445 -11 618 -11 m 380 -292 q 270 -248 307 -292 q 246 -136 233 -203 q 304 -43 257 -84 q 428 39 351 -3 l 535 0 q 465 -43 499 -20 q 406 -89 430 -66 q 377 -133 382 -112 q 384 -161 374 -150 q 420 -172 393 -172 q 468 -165 444 -172 q 504 -151 492 -157 l 490 -277 q 434 -289 467 -286 q 380 -292 400 -292 z "},"Ů":{"ha":972,"x_min":82,"x_max":998,"o":"m 445 -11 q 241 41 326 -11 q 119 185 157 93 q 106 398 82 277 l 226 1000 l 452 1000 l 325 360 q 328 268 315 307 q 375 208 342 229 q 456 187 408 187 q 582 241 532 187 q 649 380 632 294 l 772 1000 l 998 1000 l 874 373 q 728 91 838 192 q 445 -11 618 -11 m 630 1044 q 536 1069 576 1044 q 476 1140 495 1095 q 469 1246 458 1185 q 544 1366 483 1319 q 683 1413 605 1413 q 780 1384 741 1413 q 836 1310 819 1356 q 841 1208 852 1263 q 802 1124 832 1161 q 727 1065 771 1086 q 630 1044 682 1044 m 630 1158 q 692 1184 665 1158 q 729 1248 720 1210 q 721 1282 733 1267 q 680 1297 709 1297 q 618 1271 646 1297 q 581 1206 591 1245 q 591 1172 576 1186 q 630 1158 606 1158 z "},"Ũ":{"ha":972,"x_min":82,"x_max":998,"o":"m 445 -11 q 241 41 326 -11 q 119 185 157 93 q 106 398 82 277 l 226 1000 l 452 1000 l 325 360 q 328 268 315 307 q 375 208 342 229 q 456 187 408 187 q 582 241 532 187 q 649 380 632 294 l 772 1000 l 998 1000 l 874 373 q 728 91 838 192 q 445 -11 618 -11 m 490 1056 l 366 1076 q 434 1217 385 1164 q 554 1270 484 1270 q 622 1259 597 1270 q 661 1232 646 1247 q 688 1205 676 1217 q 718 1194 701 1194 q 770 1220 747 1194 q 800 1281 793 1247 l 924 1261 q 856 1120 907 1174 q 731 1066 805 1066 q 667 1078 691 1066 q 629 1106 644 1090 q 601 1134 614 1122 q 569 1145 588 1145 q 520 1121 542 1145 q 490 1056 498 1096 z "},"Ṹ":{"ha":972,"x_min":82,"x_max":998,"o":"m 445 -11 q 241 41 326 -11 q 119 185 157 93 q 106 398 82 277 l 226 1000 l 452 1000 l 325 360 q 328 268 315 307 q 375 208 342 229 q 456 187 408 187 q 582 241 532 187 q 649 380 632 294 l 772 1000 l 998 1000 l 874 373 q 728 91 838 192 q 445 -11 618 -11 m 490 1056 l 366 1076 q 434 1217 385 1164 q 554 1270 484 1270 q 622 1259 597 1270 q 661 1232 646 1247 q 688 1205 676 1217 q 718 1194 701 1194 q 770 1220 747 1194 q 800 1281 793 1247 l 924 1261 q 856 1120 907 1174 q 731 1066 805 1066 q 667 1078 691 1066 q 629 1106 644 1090 q 601 1134 614 1122 q 569 1145 588 1145 q 520 1121 542 1145 q 490 1056 498 1096 m 684 1313 l 576 1401 l 768 1609 l 897 1478 l 684 1313 z "},"V":{"ha":993,"x_min":130,"x_max":1115,"o":"m 331 0 l 130 1000 l 367 1000 l 433 582 l 477 301 l 479 301 l 626 582 l 857 1000 l 1115 1000 l 522 0 l 331 0 z "},"W":{"ha":1369,"x_min":136,"x_max":1486,"o":"m 244 0 l 136 1000 l 360 1000 l 393 558 l 409 309 l 414 309 l 724 888 l 812 888 l 938 309 l 943 309 l 1048 558 l 1246 1000 l 1486 1000 l 1015 0 l 835 0 l 709 473 l 703 473 l 427 0 l 244 0 z "},"Ẃ":{"ha":1369,"x_min":136,"x_max":1486,"o":"m 244 0 l 136 1000 l 360 1000 l 393 558 l 409 309 l 414 309 l 724 888 l 812 888 l 938 309 l 943 309 l 1048 558 l 1246 1000 l 1486 1000 l 1015 0 l 835 0 l 709 473 l 703 473 l 427 0 l 244 0 m 828 1048 l 720 1136 l 912 1344 l 1041 1213 l 828 1048 z "},"Ŵ":{"ha":1369,"x_min":136,"x_max":1486,"o":"m 244 0 l 136 1000 l 360 1000 l 393 558 l 409 309 l 414 309 l 724 888 l 812 888 l 938 309 l 943 309 l 1048 558 l 1246 1000 l 1486 1000 l 1015 0 l 835 0 l 709 473 l 703 473 l 427 0 l 244 0 m 658 1050 l 574 1148 l 848 1316 l 889 1316 l 1103 1148 l 998 1050 l 853 1177 l 847 1177 l 658 1050 z "},"Ẅ":{"ha":1369,"x_min":136,"x_max":1486,"o":"m 244 0 l 136 1000 l 360 1000 l 393 558 l 409 309 l 414 309 l 724 888 l 812 888 l 938 309 l 943 309 l 1048 558 l 1246 1000 l 1486 1000 l 1015 0 l 835 0 l 709 473 l 703 473 l 427 0 l 244 0 m 1016 1049 q 927 1084 963 1049 q 891 1171 891 1120 q 925 1255 891 1221 q 1008 1289 958 1289 q 1092 1255 1057 1289 q 1128 1168 1127 1222 q 1096 1082 1130 1114 q 1016 1049 1063 1049 m 682 1049 q 595 1084 630 1049 q 559 1171 559 1120 q 592 1255 559 1221 q 673 1289 625 1289 q 761 1252 726 1289 q 796 1164 796 1215 q 763 1083 796 1116 q 682 1049 730 1049 z "},"Ẁ":{"ha":1369,"x_min":136,"x_max":1486,"o":"m 244 0 l 136 1000 l 360 1000 l 393 558 l 409 309 l 414 309 l 724 888 l 812 888 l 938 309 l 943 309 l 1048 558 l 1246 1000 l 1486 1000 l 1015 0 l 835 0 l 709 473 l 703 473 l 427 0 l 244 0 m 821 1048 l 600 1213 l 720 1344 l 924 1136 l 821 1048 z "},"X":{"ha":993,"x_min":-46,"x_max":1083,"o":"m 648 0 l 507 337 l 503 337 l 378 516 l 378 519 l 162 1000 l 407 1000 l 552 644 l 557 644 l 675 484 l 675 481 l 892 0 l 648 0 m -46 0 l 378 514 l 378 517 l 546 644 l 550 644 l 808 1000 l 1083 1000 l 675 486 l 675 485 l 508 337 l 504 337 l 243 0 l -46 0 z "},"Y":{"ha":901,"x_min":132,"x_max":1022,"o":"m 262 0 l 340 389 l 132 1000 l 369 1000 l 431 800 l 486 600 l 489 600 l 616 800 l 741 1000 l 1022 1000 l 564 378 l 489 0 l 262 0 z "},"Ý":{"ha":901,"x_min":132,"x_max":1022,"o":"m 262 0 l 340 389 l 132 1000 l 369 1000 l 431 800 l 486 600 l 489 600 l 616 800 l 741 1000 l 1022 1000 l 564 378 l 489 0 l 262 0 m 579 1048 l 471 1136 l 663 1344 l 792 1213 l 579 1048 z "},"Ŷ":{"ha":901,"x_min":132,"x_max":1022,"o":"m 262 0 l 340 389 l 132 1000 l 369 1000 l 431 800 l 486 600 l 489 600 l 616 800 l 741 1000 l 1022 1000 l 564 378 l 489 0 l 262 0 m 409 1050 l 326 1148 l 599 1316 l 640 1316 l 854 1148 l 749 1050 l 604 1177 l 598 1177 l 409 1050 z "},"Ÿ":{"ha":901,"x_min":132,"x_max":1022,"o":"m 262 0 l 340 389 l 132 1000 l 369 1000 l 431 800 l 486 600 l 489 600 l 616 800 l 741 1000 l 1022 1000 l 564 378 l 489 0 l 262 0 m 768 1049 q 679 1084 715 1049 q 643 1171 643 1120 q 676 1255 643 1221 q 760 1289 710 1289 q 844 1255 808 1289 q 880 1168 879 1222 q 848 1082 882 1114 q 768 1049 814 1049 m 433 1049 q 347 1084 382 1049 q 311 1171 311 1120 q 344 1255 311 1221 q 425 1289 376 1289 q 513 1252 477 1289 q 548 1164 548 1215 q 515 1083 548 1116 q 433 1049 482 1049 z "},"Ẏ":{"ha":901,"x_min":132,"x_max":1022,"o":"m 262 0 l 340 389 l 132 1000 l 369 1000 l 431 800 l 486 600 l 489 600 l 616 800 l 741 1000 l 1022 1000 l 564 378 l 489 0 l 262 0 m 606 1060 q 513 1098 551 1060 q 475 1191 475 1136 q 513 1283 475 1246 q 606 1321 551 1321 q 699 1283 661 1321 q 736 1191 736 1246 q 699 1098 736 1136 q 606 1060 661 1060 z "},"Ỵ":{"ha":901,"x_min":132,"x_max":1022,"o":"m 262 0 l 340 389 l 132 1000 l 369 1000 l 431 800 l 486 600 l 489 600 l 616 800 l 741 1000 l 1022 1000 l 564 378 l 489 0 l 262 0 m 350 -336 q 257 -298 294 -336 q 219 -205 219 -260 q 257 -113 219 -151 q 350 -75 294 -75 q 442 -113 404 -75 q 480 -205 480 -151 q 442 -298 480 -260 q 350 -336 404 -336 z "},"Ỳ":{"ha":901,"x_min":132,"x_max":1022,"o":"m 262 0 l 340 389 l 132 1000 l 369 1000 l 431 800 l 486 600 l 489 600 l 616 800 l 741 1000 l 1022 1000 l 564 378 l 489 0 l 262 0 m 572 1048 l 351 1213 l 471 1344 l 675 1136 l 572 1048 z "},"Ỷ":{"ha":901,"x_min":132,"x_max":1022,"o":"m 262 0 l 340 389 l 132 1000 l 369 1000 l 431 800 l 486 600 l 489 600 l 616 800 l 741 1000 l 1022 1000 l 564 378 l 489 0 l 262 0 m 601 1047 l 536 1129 q 581 1160 564 1143 q 602 1196 597 1177 q 595 1222 606 1213 q 551 1232 584 1232 q 504 1227 530 1232 q 460 1217 479 1223 l 477 1348 q 517 1356 496 1354 q 564 1359 538 1359 q 703 1319 662 1359 q 731 1213 744 1279 q 684 1116 720 1158 q 601 1047 648 1075 z "},"Ȳ":{"ha":901,"x_min":132,"x_max":1022,"o":"m 262 0 l 340 389 l 132 1000 l 369 1000 l 431 800 l 486 600 l 489 600 l 616 800 l 741 1000 l 1022 1000 l 564 378 l 489 0 l 262 0 m 309 1097 l 336 1237 l 878 1237 l 851 1097 l 309 1097 z "},"Ỹ":{"ha":901,"x_min":132,"x_max":1022,"o":"m 262 0 l 340 389 l 132 1000 l 369 1000 l 431 800 l 486 600 l 489 600 l 616 800 l 741 1000 l 1022 1000 l 564 378 l 489 0 l 262 0 m 440 1056 l 317 1076 q 385 1217 335 1164 q 505 1270 434 1270 q 572 1259 547 1270 q 612 1232 597 1247 q 639 1205 627 1217 q 668 1194 651 1194 q 721 1220 697 1194 q 751 1281 744 1247 l 875 1261 q 807 1120 858 1174 q 682 1066 755 1066 q 618 1078 642 1066 q 579 1106 594 1090 q 551 1134 564 1122 q 519 1145 538 1145 q 471 1121 492 1145 q 440 1056 449 1096 z "},"Z":{"ha":836,"x_min":-23,"x_max":899,"o":"m -23 0 l -17 33 l 524 800 l 524 804 l 160 804 l 199 1000 l 899 1000 l 891 965 l 350 200 l 350 195 l 753 195 l 714 0 l -23 0 z "},"Ź":{"ha":836,"x_min":-23,"x_max":899,"o":"m -23 0 l -17 33 l 524 800 l 524 804 l 160 804 l 199 1000 l 899 1000 l 891 965 l 350 200 l 350 195 l 753 195 l 714 0 l -23 0 m 566 1048 l 458 1136 l 650 1344 l 779 1213 l 566 1048 z "},"Ž":{"ha":836,"x_min":-23,"x_max":899,"o":"m -23 0 l -17 33 l 524 800 l 524 804 l 160 804 l 199 1000 l 899 1000 l 891 965 l 350 200 l 350 195 l 753 195 l 714 0 l -23 0 m 532 1050 l 317 1219 l 422 1316 l 568 1191 l 575 1191 l 764 1316 l 847 1219 l 574 1050 l 532 1050 z "},"Ż":{"ha":836,"x_min":-23,"x_max":899,"o":"m -23 0 l -17 33 l 524 800 l 524 804 l 160 804 l 199 1000 l 899 1000 l 891 965 l 350 200 l 350 195 l 753 195 l 714 0 l -23 0 m 593 1060 q 499 1098 537 1060 q 462 1191 462 1136 q 499 1283 462 1246 q 593 1321 537 1321 q 685 1283 647 1321 q 723 1191 723 1246 q 685 1098 723 1136 q 593 1060 647 1060 z "},"Ẓ":{"ha":836,"x_min":-23,"x_max":899,"o":"m -23 0 l -17 33 l 524 800 l 524 804 l 160 804 l 199 1000 l 899 1000 l 891 965 l 350 200 l 350 195 l 753 195 l 714 0 l -23 0 m 305 -336 q 212 -298 250 -336 q 174 -205 174 -260 q 212 -113 174 -151 q 305 -75 250 -75 q 397 -113 359 -75 q 435 -205 435 -151 q 397 -298 435 -260 q 305 -336 359 -336 z "},"a":{"ha":835,"x_min":41,"x_max":814,"o":"m 302 -11 q 167 26 226 -11 q 74 134 108 64 q 41 300 41 203 q 66 463 41 384 q 137 604 91 541 q 249 704 184 667 q 393 741 314 741 q 527 703 472 741 q 608 599 581 665 l 487 631 l 681 631 l 580 558 l 614 730 l 814 730 l 716 245 q 716 193 709 213 q 750 165 723 174 l 677 -11 q 588 21 628 -1 q 526 74 549 43 q 505 140 503 104 l 610 87 l 414 87 l 557 146 q 447 30 511 71 q 302 -11 383 -11 m 369 170 q 442 190 408 170 q 500 243 475 210 q 538 320 524 277 q 551 409 551 363 q 518 521 551 481 q 429 561 485 561 q 356 541 389 561 q 298 488 323 522 q 261 413 274 455 q 248 323 248 370 q 281 211 248 252 q 369 170 314 170 z "},"á":{"ha":835,"x_min":41,"x_max":814,"o":"m 302 -11 q 167 26 226 -11 q 74 134 108 64 q 41 300 41 203 q 66 463 41 384 q 137 604 91 541 q 249 704 184 667 q 393 741 314 741 q 527 703 472 741 q 608 599 581 665 l 487 631 l 681 631 l 580 558 l 614 730 l 814 730 l 716 245 q 716 193 709 213 q 750 165 723 174 l 677 -11 q 588 21 628 -1 q 526 74 549 43 q 505 140 503 104 l 610 87 l 414 87 l 557 146 q 447 30 511 71 q 302 -11 383 -11 m 369 170 q 442 190 408 170 q 500 243 475 210 q 538 320 524 277 q 551 409 551 363 q 518 521 551 481 q 429 561 485 561 q 356 541 389 561 q 298 488 323 522 q 261 413 274 455 q 248 323 248 370 q 281 211 248 252 q 369 170 314 170 m 505 784 l 408 861 l 608 1118 l 730 1003 l 505 784 z "},"ă":{"ha":835,"x_min":41,"x_max":814,"o":"m 302 -11 q 167 26 226 -11 q 74 134 108 64 q 41 300 41 203 q 66 463 41 384 q 137 604 91 541 q 249 704 184 667 q 393 741 314 741 q 527 703 472 741 q 608 599 581 665 l 487 631 l 681 631 l 580 558 l 614 730 l 814 730 l 716 245 q 716 193 709 213 q 750 165 723 174 l 677 -11 q 588 21 628 -1 q 526 74 549 43 q 505 140 503 104 l 610 87 l 414 87 l 557 146 q 447 30 511 71 q 302 -11 383 -11 m 369 170 q 442 190 408 170 q 500 243 475 210 q 538 320 524 277 q 551 409 551 363 q 518 521 551 481 q 429 561 485 561 q 356 541 389 561 q 298 488 323 522 q 261 413 274 455 q 248 323 248 370 q 281 211 248 252 q 369 170 314 170 m 513 809 q 383 843 438 809 q 302 931 328 876 q 288 1050 276 986 l 416 1031 q 436 954 408 983 q 514 924 464 924 q 589 942 553 924 q 650 989 625 960 q 681 1050 675 1019 l 809 1031 q 752 916 796 966 q 646 838 709 866 q 513 809 584 809 z "},"ắ":{"ha":835,"x_min":41,"x_max":814,"o":"m 302 -11 q 167 26 226 -11 q 74 134 108 64 q 41 300 41 203 q 66 463 41 384 q 137 604 91 541 q 249 704 184 667 q 393 741 314 741 q 527 703 472 741 q 608 599 581 665 l 487 631 l 681 631 l 580 558 l 614 730 l 814 730 l 716 245 q 716 193 709 213 q 750 165 723 174 l 677 -11 q 588 21 628 -1 q 526 74 549 43 q 505 140 503 104 l 610 87 l 414 87 l 557 146 q 447 30 511 71 q 302 -11 383 -11 m 369 170 q 442 190 408 170 q 500 243 475 210 q 538 320 524 277 q 551 409 551 363 q 518 521 551 481 q 429 561 485 561 q 356 541 389 561 q 298 488 323 522 q 261 413 274 455 q 248 323 248 370 q 281 211 248 252 q 369 170 314 170 m 505 983 l 402 1059 l 559 1284 l 692 1172 l 505 983 m 487 809 q 359 834 416 809 q 273 909 302 860 q 258 1029 245 959 l 381 1019 q 390 962 376 984 q 432 930 405 941 q 490 920 459 920 q 589 950 545 920 q 643 1034 633 980 l 773 1024 q 717 905 760 953 q 615 833 675 857 q 487 809 555 809 z "},"ặ":{"ha":835,"x_min":41,"x_max":814,"o":"m 302 -11 q 167 26 226 -11 q 74 134 108 64 q 41 300 41 203 q 66 463 41 384 q 137 604 91 541 q 249 704 184 667 q 393 741 314 741 q 527 703 472 741 q 608 599 581 665 l 487 631 l 681 631 l 580 558 l 614 730 l 814 730 l 716 245 q 716 193 709 213 q 750 165 723 174 l 677 -11 q 588 21 628 -1 q 526 74 549 43 q 505 140 503 104 l 610 87 l 414 87 l 557 146 q 447 30 511 71 q 302 -11 383 -11 m 369 170 q 442 190 408 170 q 500 243 475 210 q 538 320 524 277 q 551 409 551 363 q 518 521 551 481 q 429 561 485 561 q 356 541 389 561 q 298 488 323 522 q 261 413 274 455 q 248 323 248 370 q 281 211 248 252 q 369 170 314 170 m 300 -336 q 207 -298 244 -336 q 169 -205 169 -260 q 207 -113 169 -151 q 300 -75 244 -75 q 392 -113 354 -75 q 430 -205 430 -151 q 392 -298 430 -260 q 300 -336 354 -336 m 513 809 q 383 843 438 809 q 302 931 328 876 q 288 1050 276 986 l 416 1031 q 436 954 408 983 q 514 924 464 924 q 589 942 553 924 q 650 989 625 960 q 681 1050 675 1019 l 809 1031 q 752 916 796 966 q 646 838 709 866 q 513 809 584 809 z "},"ằ":{"ha":835,"x_min":41,"x_max":814,"o":"m 302 -11 q 167 26 226 -11 q 74 134 108 64 q 41 300 41 203 q 66 463 41 384 q 137 604 91 541 q 249 704 184 667 q 393 741 314 741 q 527 703 472 741 q 608 599 581 665 l 487 631 l 681 631 l 580 558 l 614 730 l 814 730 l 716 245 q 716 193 709 213 q 750 165 723 174 l 677 -11 q 588 21 628 -1 q 526 74 549 43 q 505 140 503 104 l 610 87 l 414 87 l 557 146 q 447 30 511 71 q 302 -11 383 -11 m 369 170 q 442 190 408 170 q 500 243 475 210 q 538 320 524 277 q 551 409 551 363 q 518 521 551 481 q 429 561 485 561 q 356 541 389 561 q 298 488 323 522 q 261 413 274 455 q 248 323 248 370 q 281 211 248 252 q 369 170 314 170 m 529 986 l 305 1149 l 422 1278 l 621 1084 l 529 986 m 493 809 q 365 834 422 809 q 279 909 308 860 q 264 1029 251 959 l 387 1019 q 396 962 382 984 q 438 930 411 941 q 496 920 465 920 q 595 950 551 920 q 649 1034 640 980 l 779 1024 q 723 905 766 953 q 621 833 681 857 q 493 809 561 809 z "},"ẳ":{"ha":835,"x_min":41,"x_max":814,"o":"m 302 -11 q 167 26 226 -11 q 74 134 108 64 q 41 300 41 203 q 66 463 41 384 q 137 604 91 541 q 249 704 184 667 q 393 741 314 741 q 527 703 472 741 q 608 599 581 665 l 487 631 l 681 631 l 580 558 l 614 730 l 814 730 l 716 245 q 716 193 709 213 q 750 165 723 174 l 677 -11 q 588 21 628 -1 q 526 74 549 43 q 505 140 503 104 l 610 87 l 414 87 l 557 146 q 447 30 511 71 q 302 -11 383 -11 m 369 170 q 442 190 408 170 q 500 243 475 210 q 538 320 524 277 q 551 409 551 363 q 518 521 551 481 q 429 561 485 561 q 356 541 389 561 q 298 488 323 522 q 261 413 274 455 q 248 323 248 370 q 281 211 248 252 q 369 170 314 170 m 513 809 q 385 834 442 809 q 299 909 328 860 q 284 1029 271 959 l 408 1019 q 416 962 401 984 q 458 930 431 941 q 516 920 485 920 q 615 950 572 920 q 669 1034 659 980 l 800 1024 q 744 905 786 953 q 641 833 701 857 q 513 809 581 809 m 522 964 l 458 1046 q 502 1077 485 1060 q 524 1113 519 1093 q 516 1139 528 1129 q 473 1148 505 1148 q 426 1144 451 1148 q 381 1134 400 1140 l 398 1265 q 438 1273 417 1270 q 486 1276 459 1276 q 625 1236 584 1276 q 652 1129 665 1196 q 605 1033 642 1074 q 522 964 569 991 z "},"ẵ":{"ha":835,"x_min":41,"x_max":846,"o":"m 302 -11 q 167 26 226 -11 q 74 134 108 64 q 41 300 41 203 q 66 463 41 384 q 137 604 91 541 q 249 704 184 667 q 393 741 314 741 q 527 703 472 741 q 608 599 581 665 l 487 631 l 681 631 l 580 558 l 614 730 l 814 730 l 716 245 q 716 193 709 213 q 750 165 723 174 l 677 -11 q 588 21 628 -1 q 526 74 549 43 q 505 140 503 104 l 610 87 l 414 87 l 557 146 q 447 30 511 71 q 302 -11 383 -11 m 369 170 q 442 190 408 170 q 500 243 475 210 q 538 320 524 277 q 551 409 551 363 q 518 521 551 481 q 429 561 485 561 q 356 541 389 561 q 298 488 323 522 q 261 413 274 455 q 248 323 248 370 q 281 211 248 252 q 369 170 314 170 m 409 1070 l 274 1084 q 345 1223 292 1171 q 469 1275 397 1275 q 530 1262 505 1275 q 573 1233 554 1250 q 608 1204 591 1217 q 643 1192 624 1192 q 686 1222 669 1192 q 711 1289 704 1252 l 846 1276 q 806 1173 835 1220 q 738 1096 778 1125 q 649 1067 697 1067 q 590 1080 614 1067 q 547 1108 566 1093 q 512 1137 529 1124 q 475 1149 495 1149 q 433 1130 450 1149 q 409 1070 416 1110 m 492 809 q 365 834 422 809 q 279 909 307 860 q 264 1029 250 959 l 387 1019 q 396 962 381 984 q 438 930 411 941 q 496 920 465 920 q 595 950 551 920 q 649 1034 639 980 l 779 1024 q 723 905 766 953 q 621 833 681 857 q 492 809 561 809 z "},"ǎ":{"ha":835,"x_min":41,"x_max":814,"o":"m 302 -11 q 167 26 226 -11 q 74 134 108 64 q 41 300 41 203 q 66 463 41 384 q 137 604 91 541 q 249 704 184 667 q 393 741 314 741 q 527 703 472 741 q 608 599 581 665 l 487 631 l 681 631 l 580 558 l 614 730 l 814 730 l 716 245 q 716 193 709 213 q 750 165 723 174 l 677 -11 q 588 21 628 -1 q 526 74 549 43 q 505 140 503 104 l 610 87 l 414 87 l 557 146 q 447 30 511 71 q 302 -11 383 -11 m 369 170 q 442 190 408 170 q 500 243 475 210 q 538 320 524 277 q 551 409 551 363 q 518 521 551 481 q 429 561 485 561 q 356 541 389 561 q 298 488 323 522 q 261 413 274 455 q 248 323 248 370 q 281 211 248 252 q 369 170 314 170 m 475 777 l 266 983 l 356 1083 l 513 926 l 518 926 l 721 1083 l 794 983 l 516 777 l 475 777 z "},"â":{"ha":835,"x_min":41,"x_max":814,"o":"m 302 -11 q 167 26 226 -11 q 74 134 108 64 q 41 300 41 203 q 66 463 41 384 q 137 604 91 541 q 249 704 184 667 q 393 741 314 741 q 527 703 472 741 q 608 599 581 665 l 487 631 l 681 631 l 580 558 l 614 730 l 814 730 l 716 245 q 716 193 709 213 q 750 165 723 174 l 677 -11 q 588 21 628 -1 q 526 74 549 43 q 505 140 503 104 l 610 87 l 414 87 l 557 146 q 447 30 511 71 q 302 -11 383 -11 m 369 170 q 442 190 408 170 q 500 243 475 210 q 538 320 524 277 q 551 409 551 363 q 518 521 551 481 q 429 561 485 561 q 356 541 389 561 q 298 488 323 522 q 261 413 274 455 q 248 323 248 370 q 281 211 248 252 q 369 170 314 170 m 325 777 l 252 876 l 530 1083 l 571 1083 l 780 876 l 690 777 l 534 933 l 528 933 l 325 777 z "},"ấ":{"ha":835,"x_min":41,"x_max":991,"o":"m 302 -11 q 167 26 226 -11 q 74 134 108 64 q 41 300 41 203 q 66 463 41 384 q 137 604 91 541 q 249 704 184 667 q 393 741 314 741 q 527 703 472 741 q 608 599 581 665 l 487 631 l 681 631 l 580 558 l 614 730 l 814 730 l 716 245 q 716 193 709 213 q 750 165 723 174 l 677 -11 q 588 21 628 -1 q 526 74 549 43 q 505 140 503 104 l 610 87 l 414 87 l 557 146 q 447 30 511 71 q 302 -11 383 -11 m 369 170 q 442 190 408 170 q 500 243 475 210 q 538 320 524 277 q 551 409 551 363 q 518 521 551 481 q 429 561 485 561 q 356 541 389 561 q 298 488 323 522 q 261 413 274 455 q 248 323 248 370 q 281 211 248 252 q 369 170 314 170 m 733 983 l 652 1050 l 914 1276 l 991 1141 l 733 983 m 333 789 l 250 886 l 523 1053 l 564 1053 l 779 886 l 674 789 l 524 914 l 525 914 l 333 789 z "},"ậ":{"ha":835,"x_min":41,"x_max":814,"o":"m 302 -11 q 167 26 226 -11 q 74 134 108 64 q 41 300 41 203 q 66 463 41 384 q 137 604 91 541 q 249 704 184 667 q 393 741 314 741 q 527 703 472 741 q 608 599 581 665 l 487 631 l 681 631 l 580 558 l 614 730 l 814 730 l 716 245 q 716 193 709 213 q 750 165 723 174 l 677 -11 q 588 21 628 -1 q 526 74 549 43 q 505 140 503 104 l 610 87 l 414 87 l 557 146 q 447 30 511 71 q 302 -11 383 -11 m 369 170 q 442 190 408 170 q 500 243 475 210 q 538 320 524 277 q 551 409 551 363 q 518 521 551 481 q 429 561 485 561 q 356 541 389 561 q 298 488 323 522 q 261 413 274 455 q 248 323 248 370 q 281 211 248 252 q 369 170 314 170 m 300 -336 q 207 -298 244 -336 q 169 -205 169 -260 q 207 -113 169 -151 q 300 -75 244 -75 q 392 -113 354 -75 q 430 -205 430 -151 q 392 -298 430 -260 q 300 -336 354 -336 m 325 777 l 252 876 l 530 1083 l 571 1083 l 780 876 l 690 777 l 534 933 l 528 933 l 325 777 z "},"ầ":{"ha":835,"x_min":41,"x_max":814,"o":"m 302 -11 q 167 26 226 -11 q 74 134 108 64 q 41 300 41 203 q 66 463 41 384 q 137 604 91 541 q 249 704 184 667 q 393 741 314 741 q 527 703 472 741 q 608 599 581 665 l 487 631 l 681 631 l 580 558 l 614 730 l 814 730 l 716 245 q 716 193 709 213 q 750 165 723 174 l 677 -11 q 588 21 628 -1 q 526 74 549 43 q 505 140 503 104 l 610 87 l 414 87 l 557 146 q 447 30 511 71 q 302 -11 383 -11 m 369 170 q 442 190 408 170 q 500 243 475 210 q 538 320 524 277 q 551 409 551 363 q 518 521 551 481 q 429 561 485 561 q 356 541 389 561 q 298 488 323 522 q 261 413 274 455 q 248 323 248 370 q 281 211 248 252 q 369 170 314 170 m 307 981 l 121 1184 l 251 1289 l 411 1047 l 307 981 m 334 789 l 252 886 l 524 1053 l 566 1053 l 781 886 l 675 789 l 525 914 l 526 914 l 334 789 z "},"ẩ":{"ha":835,"x_min":41,"x_max":865,"o":"m 302 -11 q 167 26 226 -11 q 74 134 108 64 q 41 300 41 203 q 66 463 41 384 q 137 604 91 541 q 249 704 184 667 q 393 741 314 741 q 527 703 472 741 q 608 599 581 665 l 487 631 l 681 631 l 580 558 l 614 730 l 814 730 l 716 245 q 716 193 709 213 q 750 165 723 174 l 677 -11 q 588 21 628 -1 q 526 74 549 43 q 505 140 503 104 l 610 87 l 414 87 l 557 146 q 447 30 511 71 q 302 -11 383 -11 m 369 170 q 442 190 408 170 q 500 243 475 210 q 538 320 524 277 q 551 409 551 363 q 518 521 551 481 q 429 561 485 561 q 356 541 389 561 q 298 488 323 522 q 261 413 274 455 q 248 323 248 370 q 281 211 248 252 q 369 170 314 170 m 745 973 l 653 1048 q 702 1084 684 1065 q 722 1118 719 1103 q 716 1141 726 1133 q 675 1149 707 1149 q 632 1146 656 1149 q 589 1136 608 1143 l 606 1265 q 643 1274 623 1272 q 688 1277 663 1277 q 825 1237 785 1277 q 852 1130 864 1198 q 812 1039 843 1079 q 745 973 781 998 m 333 789 l 250 886 l 523 1053 l 564 1053 l 779 886 l 674 789 l 524 914 l 525 914 l 333 789 z "},"ẫ":{"ha":835,"x_min":41,"x_max":846,"o":"m 302 -11 q 167 26 226 -11 q 74 134 108 64 q 41 300 41 203 q 66 463 41 384 q 137 604 91 541 q 249 704 184 667 q 393 741 314 741 q 527 703 472 741 q 608 599 581 665 l 487 631 l 681 631 l 580 558 l 614 730 l 814 730 l 716 245 q 716 193 709 213 q 750 165 723 174 l 677 -11 q 588 21 628 -1 q 526 74 549 43 q 505 140 503 104 l 610 87 l 414 87 l 557 146 q 447 30 511 71 q 302 -11 383 -11 m 369 170 q 442 190 408 170 q 500 243 475 210 q 538 320 524 277 q 551 409 551 363 q 518 521 551 481 q 429 561 485 561 q 356 541 389 561 q 298 488 323 522 q 261 413 274 455 q 248 323 248 370 q 281 211 248 252 q 369 170 314 170 m 408 1070 l 273 1084 q 344 1223 291 1171 q 469 1275 397 1275 q 530 1262 505 1275 q 573 1233 554 1250 q 608 1204 591 1217 q 643 1192 624 1192 q 686 1222 669 1192 q 711 1289 704 1252 l 846 1276 q 806 1173 835 1220 q 738 1096 778 1125 q 649 1067 697 1067 q 590 1080 614 1067 q 547 1108 566 1093 q 512 1137 529 1124 q 475 1149 495 1149 q 432 1130 450 1149 q 408 1070 415 1110 m 334 789 l 252 886 l 524 1053 l 566 1053 l 781 886 l 675 789 l 525 914 l 526 914 l 334 789 z "},"ȁ":{"ha":835,"x_min":41,"x_max":814,"o":"m 302 -11 q 167 26 226 -11 q 74 134 108 64 q 41 300 41 203 q 66 463 41 384 q 137 604 91 541 q 249 704 184 667 q 393 741 314 741 q 527 703 472 741 q 608 599 581 665 l 487 631 l 681 631 l 580 558 l 614 730 l 814 730 l 716 245 q 716 193 709 213 q 750 165 723 174 l 677 -11 q 588 21 628 -1 q 526 74 549 43 q 505 140 503 104 l 610 87 l 414 87 l 557 146 q 447 30 511 71 q 302 -11 383 -11 m 369 170 q 442 190 408 170 q 500 243 475 210 q 538 320 524 277 q 551 409 551 363 q 518 521 551 481 q 429 561 485 561 q 356 541 389 561 q 298 488 323 522 q 261 413 274 455 q 248 323 248 370 q 281 211 248 252 q 369 170 314 170 m 355 793 l 243 1028 l 396 1097 l 466 819 l 355 793 m 608 793 l 496 1028 l 652 1097 l 719 819 l 608 793 z "},"ä":{"ha":835,"x_min":41,"x_max":814,"o":"m 302 -11 q 167 26 226 -11 q 74 134 108 64 q 41 300 41 203 q 66 463 41 384 q 137 604 91 541 q 249 704 184 667 q 393 741 314 741 q 527 703 472 741 q 608 599 581 665 l 487 631 l 681 631 l 580 558 l 614 730 l 814 730 l 716 245 q 716 193 709 213 q 750 165 723 174 l 677 -11 q 588 21 628 -1 q 526 74 549 43 q 505 140 503 104 l 610 87 l 414 87 l 557 146 q 447 30 511 71 q 302 -11 383 -11 m 369 170 q 442 190 408 170 q 500 243 475 210 q 538 320 524 277 q 551 409 551 363 q 518 521 551 481 q 429 561 485 561 q 356 541 389 561 q 298 488 323 522 q 261 413 274 455 q 248 323 248 370 q 281 211 248 252 q 369 170 314 170 m 693 824 q 609 859 643 824 q 574 943 574 893 q 609 1027 574 993 q 693 1061 643 1061 q 777 1027 743 1061 q 811 943 811 993 q 777 859 811 893 q 693 824 743 824 m 364 824 q 280 859 315 824 q 246 943 246 893 q 280 1027 246 993 q 364 1061 315 1061 q 449 1027 414 1061 q 483 943 483 993 q 449 859 483 893 q 364 824 414 824 z "},"ȧ":{"ha":835,"x_min":41,"x_max":814,"o":"m 302 -11 q 167 26 226 -11 q 74 134 108 64 q 41 300 41 203 q 66 463 41 384 q 137 604 91 541 q 249 704 184 667 q 393 741 314 741 q 527 703 472 741 q 608 599 581 665 l 487 631 l 681 631 l 580 558 l 614 730 l 814 730 l 716 245 q 716 193 709 213 q 750 165 723 174 l 677 -11 q 588 21 628 -1 q 526 74 549 43 q 505 140 503 104 l 610 87 l 414 87 l 557 146 q 447 30 511 71 q 302 -11 383 -11 m 369 170 q 442 190 408 170 q 500 243 475 210 q 538 320 524 277 q 551 409 551 363 q 518 521 551 481 q 429 561 485 561 q 356 541 389 561 q 298 488 323 522 q 261 413 274 455 q 248 323 248 370 q 281 211 248 252 q 369 170 314 170 m 529 814 q 436 852 473 814 q 398 945 398 890 q 436 1037 398 1000 q 529 1075 473 1075 q 621 1037 583 1075 q 659 945 659 1000 q 621 852 659 890 q 529 814 583 814 z "},"ạ":{"ha":835,"x_min":41,"x_max":814,"o":"m 302 -11 q 167 26 226 -11 q 74 134 108 64 q 41 300 41 203 q 66 463 41 384 q 137 604 91 541 q 249 704 184 667 q 393 741 314 741 q 527 703 472 741 q 608 599 581 665 l 487 631 l 681 631 l 580 558 l 614 730 l 814 730 l 716 245 q 716 193 709 213 q 750 165 723 174 l 677 -11 q 588 21 628 -1 q 526 74 549 43 q 505 140 503 104 l 610 87 l 414 87 l 557 146 q 447 30 511 71 q 302 -11 383 -11 m 369 170 q 442 190 408 170 q 500 243 475 210 q 538 320 524 277 q 551 409 551 363 q 518 521 551 481 q 429 561 485 561 q 356 541 389 561 q 298 488 323 522 q 261 413 274 455 q 248 323 248 370 q 281 211 248 252 q 369 170 314 170 m 300 -336 q 207 -298 244 -336 q 169 -205 169 -260 q 207 -113 169 -151 q 300 -75 244 -75 q 392 -113 354 -75 q 430 -205 430 -151 q 392 -298 430 -260 q 300 -336 354 -336 z "},"à":{"ha":835,"x_min":41,"x_max":814,"o":"m 302 -11 q 167 26 226 -11 q 74 134 108 64 q 41 300 41 203 q 66 463 41 384 q 137 604 91 541 q 249 704 184 667 q 393 741 314 741 q 527 703 472 741 q 608 599 581 665 l 487 631 l 681 631 l 580 558 l 614 730 l 814 730 l 716 245 q 716 193 709 213 q 750 165 723 174 l 677 -11 q 588 21 628 -1 q 526 74 549 43 q 505 140 503 104 l 610 87 l 414 87 l 557 146 q 447 30 511 71 q 302 -11 383 -11 m 369 170 q 442 190 408 170 q 500 243 475 210 q 538 320 524 277 q 551 409 551 363 q 518 521 551 481 q 429 561 485 561 q 356 541 389 561 q 298 488 323 522 q 261 413 274 455 q 248 323 248 370 q 281 211 248 252 q 369 170 314 170 m 503 789 l 315 1006 l 454 1118 l 605 860 l 503 789 z "},"ả":{"ha":835,"x_min":41,"x_max":814,"o":"m 302 -11 q 167 26 226 -11 q 74 134 108 64 q 41 300 41 203 q 66 463 41 384 q 137 604 91 541 q 249 704 184 667 q 393 741 314 741 q 527 703 472 741 q 608 599 581 665 l 487 631 l 681 631 l 580 558 l 614 730 l 814 730 l 716 245 q 716 193 709 213 q 750 165 723 174 l 677 -11 q 588 21 628 -1 q 526 74 549 43 q 505 140 503 104 l 610 87 l 414 87 l 557 146 q 447 30 511 71 q 302 -11 383 -11 m 369 170 q 442 190 408 170 q 500 243 475 210 q 538 320 524 277 q 551 409 551 363 q 518 521 551 481 q 429 561 485 561 q 356 541 389 561 q 298 488 323 522 q 261 413 274 455 q 248 323 248 370 q 281 211 248 252 q 369 170 314 170 m 527 777 l 462 859 q 507 890 490 873 q 528 926 524 907 q 521 952 532 943 q 477 962 510 962 q 430 958 456 962 q 386 947 405 954 l 403 1078 q 443 1086 422 1084 q 490 1089 464 1089 q 629 1049 588 1089 q 657 943 670 1009 q 610 846 646 888 q 527 777 574 805 z "},"ȃ":{"ha":835,"x_min":41,"x_max":814,"o":"m 302 -11 q 167 26 226 -11 q 74 134 108 64 q 41 300 41 203 q 66 463 41 384 q 137 604 91 541 q 249 704 184 667 q 393 741 314 741 q 527 703 472 741 q 608 599 581 665 l 487 631 l 681 631 l 580 558 l 614 730 l 814 730 l 716 245 q 716 193 709 213 q 750 165 723 174 l 677 -11 q 588 21 628 -1 q 526 74 549 43 q 505 140 503 104 l 610 87 l 414 87 l 557 146 q 447 30 511 71 q 302 -11 383 -11 m 369 170 q 442 190 408 170 q 500 243 475 210 q 538 320 524 277 q 551 409 551 363 q 518 521 551 481 q 429 561 485 561 q 356 541 389 561 q 298 488 323 522 q 261 413 274 455 q 248 323 248 370 q 281 211 248 252 q 369 170 314 170 m 772 800 l 648 820 q 627 899 656 861 q 532 936 597 936 q 434 897 474 936 q 383 805 394 859 l 258 825 q 313 945 271 895 q 416 1024 355 996 q 545 1051 477 1051 q 677 1018 620 1051 q 761 928 734 985 q 772 800 789 871 z "},"ā":{"ha":835,"x_min":41,"x_max":823,"o":"m 302 -11 q 167 26 226 -11 q 74 134 108 64 q 41 300 41 203 q 66 463 41 384 q 137 604 91 541 q 249 704 184 667 q 393 741 314 741 q 527 703 472 741 q 608 599 581 665 l 487 631 l 681 631 l 580 558 l 614 730 l 814 730 l 716 245 q 716 193 709 213 q 750 165 723 174 l 677 -11 q 588 21 628 -1 q 526 74 549 43 q 505 140 503 104 l 610 87 l 414 87 l 557 146 q 447 30 511 71 q 302 -11 383 -11 m 369 170 q 442 190 408 170 q 500 243 475 210 q 538 320 524 277 q 551 409 551 363 q 518 521 551 481 q 429 561 485 561 q 356 541 389 561 q 298 488 323 522 q 261 413 274 455 q 248 323 248 370 q 281 211 248 252 q 369 170 314 170 m 222 849 l 248 979 l 822 979 l 796 849 l 222 849 z "},"ą":{"ha":835,"x_min":41,"x_max":814,"o":"m 302 -11 q 167 26 226 -11 q 74 134 108 64 q 41 300 41 203 q 66 463 41 384 q 137 604 91 541 q 249 704 184 667 q 393 741 314 741 q 527 703 472 741 q 608 599 581 665 l 487 631 l 681 631 l 580 558 l 614 730 l 814 730 l 716 245 q 716 193 709 213 q 750 165 723 174 l 677 -11 q 588 21 628 -1 q 526 74 549 43 q 505 140 503 104 l 610 87 l 414 87 l 557 146 q 447 30 511 71 q 302 -11 383 -11 m 369 170 q 442 190 408 170 q 500 243 475 210 q 538 320 524 277 q 551 409 551 363 q 518 521 551 481 q 429 561 485 561 q 356 541 389 561 q 298 488 323 522 q 261 413 274 455 q 248 323 248 370 q 281 211 248 252 q 369 170 314 170 m 604 -292 q 486 -248 527 -292 q 458 -137 444 -204 q 494 -53 467 -92 q 553 17 522 -14 q 604 63 584 47 l 676 -11 q 640 -48 658 -28 q 610 -89 623 -68 q 594 -126 597 -109 q 599 -152 591 -142 q 632 -163 606 -163 q 669 -158 648 -163 q 717 -144 690 -153 l 698 -278 q 653 -289 681 -285 q 604 -292 626 -292 z "},"å":{"ha":835,"x_min":41,"x_max":814,"o":"m 302 -11 q 167 26 226 -11 q 74 134 108 64 q 41 300 41 203 q 66 463 41 384 q 137 604 91 541 q 249 704 184 667 q 393 741 314 741 q 527 703 472 741 q 608 599 581 665 l 487 631 l 681 631 l 580 558 l 614 730 l 814 730 l 716 245 q 716 193 709 213 q 750 165 723 174 l 677 -11 q 588 21 628 -1 q 526 74 549 43 q 505 140 503 104 l 610 87 l 414 87 l 557 146 q 447 30 511 71 q 302 -11 383 -11 m 369 170 q 442 190 408 170 q 500 243 475 210 q 538 320 524 277 q 551 409 551 363 q 518 521 551 481 q 429 561 485 561 q 356 541 389 561 q 298 488 323 522 q 261 413 274 455 q 248 323 248 370 q 281 211 248 252 q 369 170 314 170 m 519 818 q 431 841 469 818 q 375 904 393 865 q 367 991 357 943 q 432 1097 380 1057 q 551 1137 484 1137 q 641 1114 603 1137 q 695 1050 678 1090 q 703 963 713 1010 q 641 861 691 904 q 519 818 590 818 m 527 913 q 572 930 552 913 q 598 975 593 948 q 589 1022 603 1001 q 544 1043 575 1043 q 498 1027 519 1043 q 472 985 477 1011 q 481 935 465 956 q 527 913 498 913 z "},"ǻ":{"ha":835,"x_min":41,"x_max":831,"o":"m 519 818 q 431 841 469 818 q 375 904 393 865 q 367 991 357 943 q 432 1097 380 1057 q 550 1137 484 1137 q 641 1114 603 1137 q 695 1050 678 1090 q 703 963 712 1010 q 641 861 691 904 q 519 818 590 818 m 526 913 q 572 930 552 913 q 598 975 593 948 q 589 1022 603 1001 q 544 1043 575 1043 q 498 1027 519 1043 q 471 985 477 1011 q 481 935 465 956 q 526 913 498 913 m 619 1172 l 511 1261 l 703 1469 l 831 1337 l 619 1172 m 302 -11 q 167 26 226 -11 q 74 134 108 64 q 41 300 41 203 q 66 463 41 384 q 137 604 91 541 q 249 704 184 667 q 393 741 314 741 q 527 703 472 741 q 608 599 581 665 l 487 631 l 681 631 l 580 558 l 614 730 l 814 730 l 716 245 q 716 193 709 213 q 750 165 723 174 l 677 -11 q 588 21 628 -1 q 526 74 549 43 q 505 140 503 104 l 610 87 l 414 87 l 557 146 q 447 30 511 71 q 302 -11 383 -11 m 369 170 q 442 190 408 170 q 500 243 475 210 q 538 320 524 277 q 551 409 551 363 q 518 521 551 481 q 429 561 485 561 q 356 541 389 561 q 298 488 323 522 q 261 413 274 455 q 248 323 248 370 q 281 211 248 252 q 369 170 314 170 z "},"ã":{"ha":835,"x_min":41,"x_max":819,"o":"m 302 -11 q 167 26 226 -11 q 74 134 108 64 q 41 300 41 203 q 66 463 41 384 q 137 604 91 541 q 249 704 184 667 q 393 741 314 741 q 527 703 472 741 q 608 599 581 665 l 487 631 l 681 631 l 580 558 l 614 730 l 814 730 l 716 245 q 716 193 709 213 q 750 165 723 174 l 677 -11 q 588 21 628 -1 q 526 74 549 43 q 505 140 503 104 l 610 87 l 414 87 l 557 146 q 447 30 511 71 q 302 -11 383 -11 m 369 170 q 442 190 408 170 q 500 243 475 210 q 538 320 524 277 q 551 409 551 363 q 518 521 551 481 q 429 561 485 561 q 356 541 389 561 q 298 488 323 522 q 261 413 274 455 q 248 323 248 370 q 281 211 248 252 q 369 170 314 170 m 377 814 l 242 826 q 284 934 256 887 q 353 1008 313 981 q 440 1034 393 1034 q 502 1021 477 1034 q 545 989 527 1007 q 580 958 564 972 q 615 945 596 945 q 659 971 642 945 q 684 1035 677 997 l 819 1023 q 778 916 807 964 q 708 842 749 869 q 620 814 667 814 q 559 828 583 814 q 517 859 535 842 q 483 890 499 877 q 446 904 467 904 q 403 879 420 904 q 377 814 385 854 z "},"æ":{"ha":1289,"x_min":40,"x_max":1257,"o":"m 273 -11 q 103 70 167 -11 q 40 291 40 151 q 63 454 40 374 q 129 598 85 534 q 235 702 173 663 q 376 741 298 741 q 508 701 452 741 q 589 590 563 661 l 460 636 l 652 636 l 541 551 l 576 730 l 772 730 l 674 205 q 663 101 663 151 q 673 0 662 52 l 479 0 q 475 70 475 32 q 479 142 475 109 l 486 96 l 455 96 l 495 134 q 399 26 456 63 q 273 -11 342 -11 m 358 168 q 434 188 399 168 q 493 240 468 207 q 532 315 517 273 q 547 402 546 357 q 537 486 550 450 q 498 542 525 522 q 431 562 472 562 q 353 541 387 562 q 295 482 319 519 q 259 400 271 445 q 246 310 246 355 q 274 206 246 244 q 358 168 302 168 m 921 -11 q 747 28 818 -11 q 639 137 675 67 q 602 299 602 208 q 631 464 602 385 q 713 605 661 543 q 836 704 766 667 q 985 741 905 741 q 1125 704 1063 741 q 1222 603 1186 668 q 1257 448 1257 537 q 1249 369 1257 409 q 1227 294 1241 330 l 723 294 l 745 428 l 1074 428 q 1077 446 1076 437 q 1078 466 1078 456 q 1045 546 1078 518 q 956 573 1012 573 q 866 552 904 573 q 802 495 827 530 q 765 417 777 459 q 753 332 753 374 q 777 232 753 270 q 841 175 801 193 q 928 157 881 157 q 1022 173 979 157 q 1084 203 1066 188 l 1145 41 q 1046 4 1107 19 q 921 -11 985 -11 z "},"ǽ":{"ha":1289,"x_min":40,"x_max":1257,"o":"m 273 -11 q 103 70 167 -11 q 40 291 40 151 q 63 454 40 374 q 129 598 85 534 q 235 702 173 663 q 376 741 298 741 q 508 701 452 741 q 589 590 563 661 l 460 636 l 652 636 l 541 551 l 576 730 l 772 730 l 674 205 q 663 101 663 151 q 673 0 662 52 l 479 0 q 475 70 475 32 q 479 142 475 109 l 486 96 l 455 96 l 495 134 q 399 26 456 63 q 273 -11 342 -11 m 358 168 q 434 188 399 168 q 493 240 468 207 q 532 315 517 273 q 547 402 546 357 q 537 486 550 450 q 498 542 525 522 q 431 562 472 562 q 353 541 387 562 q 295 482 319 519 q 259 400 271 445 q 246 310 246 355 q 274 206 246 244 q 358 168 302 168 m 921 -11 q 747 28 818 -11 q 639 137 675 67 q 602 299 602 208 q 631 464 602 385 q 713 605 661 543 q 836 704 766 667 q 985 741 905 741 q 1125 704 1063 741 q 1222 603 1186 668 q 1257 448 1257 537 q 1249 369 1257 409 q 1227 294 1241 330 l 723 294 l 745 428 l 1074 428 q 1077 446 1076 437 q 1078 466 1078 456 q 1045 546 1078 518 q 956 573 1012 573 q 866 552 904 573 q 802 495 827 530 q 765 417 777 459 q 753 332 753 374 q 777 232 753 270 q 841 175 801 193 q 928 157 881 157 q 1022 173 979 157 q 1084 203 1066 188 l 1145 41 q 1046 4 1107 19 q 921 -11 985 -11 m 677 784 l 581 861 l 781 1118 l 903 1003 l 677 784 z "},"b":{"ha":836,"x_min":7,"x_max":796,"o":"m 7 0 l 216 1044 l 430 1044 l 357 676 l 376 676 l 326 603 l 237 182 l 255 98 l 228 98 l 209 0 l 7 0 m 437 -11 q 302 25 360 -11 q 212 128 244 62 q 180 285 180 194 q 207 448 180 368 q 281 595 233 529 q 395 701 330 661 q 537 741 460 741 q 665 706 606 741 q 760 603 724 671 q 796 431 796 534 q 770 270 796 349 q 697 128 745 191 q 584 27 650 64 q 437 -11 518 -11 m 397 170 q 477 190 441 170 q 538 245 513 210 q 576 323 563 280 q 589 412 589 367 q 558 520 589 480 q 466 560 527 560 q 386 539 421 560 q 325 484 350 519 q 287 406 300 449 q 273 317 273 362 q 305 209 273 249 q 397 170 337 170 z "},"c":{"ha":667,"x_min":43,"x_max":675,"o":"m 370 -8 q 205 30 279 -8 q 86 141 130 68 q 43 319 43 214 q 72 481 43 405 q 156 615 102 557 q 285 707 211 673 q 448 741 359 741 q 587 716 528 741 q 675 668 646 692 l 568 507 q 510 543 548 529 q 437 557 472 557 q 361 537 396 557 q 302 484 327 517 q 264 409 277 450 q 250 326 250 368 q 266 249 250 281 q 311 199 281 216 q 384 181 341 181 q 462 196 424 181 q 529 232 500 210 l 575 47 q 481 6 537 21 q 370 -8 426 -8 z "},"ć":{"ha":667,"x_min":43,"x_max":728,"o":"m 370 -8 q 205 30 279 -8 q 86 141 130 68 q 43 319 43 214 q 72 481 43 405 q 156 615 102 557 q 285 707 211 673 q 448 741 359 741 q 587 716 528 741 q 675 668 646 692 l 568 507 q 510 543 548 529 q 437 557 472 557 q 361 537 396 557 q 302 484 327 517 q 264 409 277 450 q 250 326 250 368 q 266 249 250 281 q 311 199 281 216 q 384 181 341 181 q 462 196 424 181 q 529 232 500 210 l 575 47 q 481 6 537 21 q 370 -8 426 -8 m 503 784 l 406 861 l 606 1118 l 728 1003 l 503 784 z "},"č":{"ha":667,"x_min":43,"x_max":792,"o":"m 370 -8 q 205 30 279 -8 q 86 141 130 68 q 43 319 43 214 q 72 481 43 405 q 156 615 102 557 q 285 707 211 673 q 448 741 359 741 q 587 716 528 741 q 675 668 646 692 l 568 507 q 510 543 548 529 q 437 557 472 557 q 361 537 396 557 q 302 484 327 517 q 264 409 277 450 q 250 326 250 368 q 266 249 250 281 q 311 199 281 216 q 384 181 341 181 q 462 196 424 181 q 529 232 500 210 l 575 47 q 481 6 537 21 q 370 -8 426 -8 m 473 777 l 264 983 l 354 1083 l 511 926 l 516 926 l 719 1083 l 792 983 l 514 777 l 473 777 z "},"ç":{"ha":667,"x_min":43,"x_max":675,"o":"m 370 -8 q 205 30 279 -8 q 86 141 130 68 q 43 319 43 214 q 72 481 43 405 q 156 615 102 557 q 285 707 211 673 q 448 741 359 741 q 587 716 528 741 q 675 668 646 692 l 568 507 q 510 543 548 529 q 437 557 472 557 q 361 537 396 557 q 302 484 327 517 q 264 409 277 450 q 250 326 250 368 q 266 249 250 281 q 311 199 281 216 q 384 181 341 181 q 462 196 424 181 q 529 232 500 210 l 575 47 q 481 6 537 21 q 370 -8 426 -8 m 157 -347 l 168 -243 q 279 -226 238 -245 q 324 -182 319 -207 q 307 -150 329 -161 q 235 -136 286 -139 l 301 0 l 399 0 l 336 -111 l 328 -64 q 395 -81 365 -64 q 440 -130 425 -98 q 446 -208 456 -162 q 403 -287 437 -256 q 308 -333 369 -318 q 157 -347 248 -347 z "},"ḉ":{"ha":667,"x_min":43,"x_max":728,"o":"m 370 -8 q 205 30 279 -8 q 86 141 130 68 q 43 319 43 214 q 72 481 43 405 q 156 615 102 557 q 285 707 211 673 q 448 741 359 741 q 587 716 528 741 q 675 668 646 692 l 568 507 q 510 543 548 529 q 437 557 472 557 q 361 537 396 557 q 302 484 327 517 q 264 409 277 450 q 250 326 250 368 q 266 249 250 281 q 311 199 281 216 q 384 181 341 181 q 462 196 424 181 q 529 232 500 210 l 575 47 q 481 6 537 21 q 370 -8 426 -8 m 157 -347 l 168 -243 q 279 -226 238 -245 q 324 -182 319 -207 q 307 -150 329 -161 q 235 -136 286 -139 l 301 0 l 399 0 l 336 -111 l 328 -64 q 395 -81 365 -64 q 440 -130 425 -98 q 446 -208 456 -162 q 403 -287 437 -256 q 308 -333 369 -318 q 157 -347 248 -347 m 503 784 l 406 861 l 606 1118 l 728 1003 l 503 784 z "},"ĉ":{"ha":667,"x_min":43,"x_max":778,"o":"m 370 -8 q 205 30 279 -8 q 86 141 130 68 q 43 319 43 214 q 72 481 43 405 q 156 615 102 557 q 285 707 211 673 q 448 741 359 741 q 587 716 528 741 q 675 668 646 692 l 568 507 q 510 543 548 529 q 437 557 472 557 q 361 537 396 557 q 302 484 327 517 q 264 409 277 450 q 250 326 250 368 q 266 249 250 281 q 311 199 281 216 q 384 181 341 181 q 462 196 424 181 q 529 232 500 210 l 575 47 q 481 6 537 21 q 370 -8 426 -8 m 323 777 l 250 876 l 528 1083 l 569 1083 l 778 876 l 688 777 l 532 933 l 526 933 l 323 777 z "},"ċ":{"ha":667,"x_min":43,"x_max":675,"o":"m 370 -8 q 205 30 279 -8 q 86 141 130 68 q 43 319 43 214 q 72 481 43 405 q 156 615 102 557 q 285 707 211 673 q 448 741 359 741 q 587 716 528 741 q 675 668 646 692 l 568 507 q 510 543 548 529 q 437 557 472 557 q 361 537 396 557 q 302 484 327 517 q 264 409 277 450 q 250 326 250 368 q 266 249 250 281 q 311 199 281 216 q 384 181 341 181 q 462 196 424 181 q 529 232 500 210 l 575 47 q 481 6 537 21 q 370 -8 426 -8 m 527 814 q 434 852 471 814 q 396 945 396 890 q 434 1037 396 1000 q 527 1075 471 1075 q 619 1037 581 1075 q 657 945 657 1000 q 619 852 657 890 q 527 814 581 814 z "},"d":{"ha":867,"x_min":40,"x_max":897,"o":"m 671 -9 q 602 25 631 7 q 555 67 572 43 q 534 122 538 91 l 569 92 l 490 92 l 534 174 l 618 576 l 571 652 l 605 652 l 683 1044 l 897 1044 l 736 244 q 738 194 730 210 q 774 165 745 178 l 671 -9 m 309 -11 q 172 27 233 -11 q 75 135 111 64 q 40 302 40 205 q 67 465 40 387 q 142 605 94 543 q 257 704 191 667 q 404 741 323 741 q 547 700 487 741 q 638 588 606 659 q 670 427 670 517 q 643 266 670 344 q 568 125 616 187 q 454 26 519 62 q 309 -11 388 -11 m 374 170 q 452 190 417 170 q 511 246 486 211 q 550 323 536 281 q 563 410 563 366 q 532 519 563 477 q 440 560 500 560 q 361 539 396 560 q 301 483 326 518 q 262 406 276 448 q 249 318 249 363 q 283 208 249 247 q 374 170 317 170 z "},"ď":{"ha":867,"x_min":40,"x_max":1160,"o":"m 671 -9 q 602 25 631 7 q 555 67 572 43 q 534 122 538 91 l 569 92 l 490 92 l 534 174 l 618 576 l 571 652 l 605 652 l 683 1044 l 897 1044 l 736 244 q 738 194 730 210 q 774 165 745 178 l 671 -9 m 309 -11 q 172 27 233 -11 q 75 135 111 64 q 40 302 40 205 q 67 465 40 387 q 142 605 94 543 q 257 704 191 667 q 404 741 323 741 q 547 700 487 741 q 638 588 606 659 q 670 427 670 517 q 643 266 670 344 q 568 125 616 187 q 454 26 519 62 q 309 -11 388 -11 m 374 170 q 452 190 417 170 q 511 246 486 211 q 550 323 536 281 q 563 410 563 366 q 532 519 563 477 q 440 560 500 560 q 361 539 396 560 q 301 483 326 518 q 262 406 276 448 q 249 318 249 363 q 283 208 249 247 q 374 170 317 170 m 916 697 l 988 1044 l 1160 1044 l 1066 697 l 916 697 z "},"đ":{"ha":867,"x_min":40,"x_max":982,"o":"m 671 -9 q 602 25 631 7 q 555 67 572 43 q 534 122 538 91 l 569 92 l 490 92 l 534 174 l 618 576 l 571 652 l 605 652 l 683 1044 l 897 1044 l 736 244 q 738 194 730 210 q 774 165 745 178 l 671 -9 m 309 -11 q 172 27 233 -11 q 75 135 111 64 q 40 302 40 205 q 67 465 40 387 q 142 605 94 543 q 257 704 191 667 q 404 741 323 741 q 547 700 487 741 q 638 588 606 659 q 670 427 670 517 q 643 266 670 344 q 568 125 616 187 q 454 26 519 62 q 309 -11 388 -11 m 374 170 q 452 190 417 170 q 511 246 486 211 q 550 323 536 281 q 563 410 563 366 q 532 519 563 477 q 440 560 500 560 q 361 539 396 560 q 301 483 326 518 q 262 406 276 448 q 249 318 249 363 q 283 208 249 247 q 374 170 317 170 m 520 821 l 543 930 l 982 930 l 959 821 l 520 821 z "},"ḍ":{"ha":867,"x_min":40,"x_max":897,"o":"m 671 -9 q 602 25 631 7 q 555 67 572 43 q 534 122 538 91 l 569 92 l 490 92 l 534 174 l 618 576 l 571 652 l 605 652 l 683 1044 l 897 1044 l 736 244 q 738 194 730 210 q 774 165 745 178 l 671 -9 m 309 -11 q 172 27 233 -11 q 75 135 111 64 q 40 302 40 205 q 67 465 40 387 q 142 605 94 543 q 257 704 191 667 q 404 741 323 741 q 547 700 487 741 q 638 588 606 659 q 670 427 670 517 q 643 266 670 344 q 568 125 616 187 q 454 26 519 62 q 309 -11 388 -11 m 374 170 q 452 190 417 170 q 511 246 486 211 q 550 323 536 281 q 563 410 563 366 q 532 519 563 477 q 440 560 500 560 q 361 539 396 560 q 301 483 326 518 q 262 406 276 448 q 249 318 249 363 q 283 208 249 247 q 374 170 317 170 m 310 -336 q 217 -298 254 -336 q 179 -205 179 -260 q 217 -113 179 -151 q 310 -75 254 -75 q 402 -113 364 -75 q 440 -205 440 -151 q 402 -298 440 -260 q 310 -336 364 -336 z "},"ḏ":{"ha":867,"x_min":7,"x_max":897,"o":"m 671 -9 q 602 25 631 7 q 555 67 572 43 q 534 122 538 91 l 569 92 l 490 92 l 534 174 l 618 576 l 571 652 l 605 652 l 683 1044 l 897 1044 l 736 244 q 738 194 730 210 q 774 165 745 178 l 671 -9 m 309 -11 q 172 27 233 -11 q 75 135 111 64 q 40 302 40 205 q 67 465 40 387 q 142 605 94 543 q 257 704 191 667 q 404 741 323 741 q 547 700 487 741 q 638 588 606 659 q 670 427 670 517 q 643 266 670 344 q 568 125 616 187 q 454 26 519 62 q 309 -11 388 -11 m 374 170 q 452 190 417 170 q 511 246 486 211 q 550 323 536 281 q 563 410 563 366 q 532 519 563 477 q 440 560 500 560 q 361 539 396 560 q 301 483 326 518 q 262 406 276 448 q 249 318 249 363 q 283 208 249 247 q 374 170 317 170 m 7 -281 l 33 -152 l 608 -152 l 582 -281 l 7 -281 z "},"ǆ":{"ha":1555,"x_min":40,"x_max":1594,"o":"m 671 -9 q 602 25 631 7 q 555 67 572 43 q 534 122 538 91 l 569 92 l 490 92 l 534 174 l 618 576 l 571 652 l 605 652 l 683 1044 l 897 1044 l 736 244 q 738 194 730 210 q 774 165 745 178 l 671 -9 m 309 -11 q 172 27 233 -11 q 75 135 111 64 q 40 302 40 205 q 67 465 40 387 q 142 605 94 543 q 257 704 191 667 q 404 741 323 741 q 547 700 487 741 q 638 588 606 659 q 670 427 670 517 q 643 266 670 344 q 568 125 616 187 q 454 26 519 62 q 309 -11 388 -11 m 374 170 q 452 190 417 170 q 511 246 486 211 q 550 323 536 281 q 563 410 563 366 q 532 519 563 477 q 440 560 500 560 q 361 539 396 560 q 301 483 326 518 q 262 406 276 448 q 249 318 249 363 q 283 208 249 247 q 374 170 317 170 m 835 0 l 841 43 l 1229 538 l 1229 546 l 969 546 l 1005 730 l 1584 730 l 1575 686 l 1189 190 l 1189 184 l 1473 184 l 1436 0 l 835 0 m 1275 777 l 1065 983 l 1156 1083 l 1312 926 l 1318 926 l 1520 1083 l 1594 983 l 1316 777 l 1275 777 z "},"ð":{"ha":810,"x_min":39,"x_max":806,"o":"m 349 -11 q 183 32 252 -11 q 77 145 114 74 q 39 302 39 216 q 68 450 39 379 q 148 576 97 521 q 264 665 198 632 q 404 697 330 697 q 490 685 448 697 q 565 647 532 672 q 614 583 597 621 l 584 610 l 639 610 l 606 589 q 569 710 596 652 q 500 818 542 768 q 403 908 458 868 q 283 977 349 949 l 388 1136 q 606 977 519 1067 q 736 777 693 886 q 779 543 779 668 q 749 338 779 437 q 664 160 720 239 q 529 35 608 81 q 349 -11 449 -11 m 367 178 q 441 197 408 178 q 498 248 474 216 q 535 320 522 280 q 549 399 549 359 q 519 495 549 458 q 433 533 490 533 q 336 500 378 533 q 271 418 294 468 q 248 314 248 368 q 263 240 248 271 q 304 194 277 210 q 367 178 332 178 m 292 741 l 251 826 l 754 1136 l 806 1026 l 292 741 z "},"e":{"ha":756,"x_min":42,"x_max":727,"o":"m 379 -11 q 196 32 271 -11 q 82 150 121 75 q 42 317 42 224 q 71 476 42 400 q 153 612 100 553 q 276 706 205 671 q 430 740 347 740 q 582 704 515 740 q 688 605 649 668 q 727 459 727 541 q 722 402 727 433 q 710 343 718 372 q 693 296 702 315 l 193 296 l 218 430 l 535 430 q 538 446 537 438 q 538 461 538 454 q 508 540 538 509 q 422 572 477 572 q 340 551 376 572 q 277 495 303 530 q 237 417 251 460 q 222 332 222 374 q 267 208 222 254 q 386 161 312 161 q 474 175 429 161 q 542 208 518 189 l 610 44 q 498 3 559 17 q 379 -11 437 -11 z "},"é":{"ha":756,"x_min":42,"x_max":727,"o":"m 379 -11 q 196 32 271 -11 q 82 150 121 75 q 42 317 42 224 q 71 476 42 400 q 153 612 100 553 q 276 706 205 671 q 430 740 347 740 q 582 704 515 740 q 688 605 649 668 q 727 459 727 541 q 722 402 727 433 q 710 343 718 372 q 693 296 702 315 l 193 296 l 218 430 l 535 430 q 538 446 537 438 q 538 461 538 454 q 508 540 538 509 q 422 572 477 572 q 340 551 376 572 q 277 495 303 530 q 237 417 251 460 q 222 332 222 374 q 267 208 222 254 q 386 161 312 161 q 474 175 429 161 q 542 208 518 189 l 610 44 q 498 3 559 17 q 379 -11 437 -11 m 473 784 l 376 861 l 576 1118 l 698 1003 l 473 784 z "},"ĕ":{"ha":756,"x_min":42,"x_max":777,"o":"m 379 -11 q 196 32 271 -11 q 82 150 121 75 q 42 317 42 224 q 71 476 42 400 q 153 612 100 553 q 276 706 205 671 q 430 740 347 740 q 582 704 515 740 q 688 605 649 668 q 727 459 727 541 q 722 402 727 433 q 710 343 718 372 q 693 296 702 315 l 193 296 l 218 430 l 535 430 q 538 446 537 438 q 538 461 538 454 q 508 540 538 509 q 422 572 477 572 q 340 551 376 572 q 277 495 303 530 q 237 417 251 460 q 222 332 222 374 q 267 208 222 254 q 386 161 312 161 q 474 175 429 161 q 542 208 518 189 l 610 44 q 498 3 559 17 q 379 -11 437 -11 m 481 809 q 351 843 406 809 q 270 931 296 876 q 256 1050 244 986 l 385 1031 q 404 954 376 983 q 482 924 432 924 q 557 942 522 924 q 618 989 593 960 q 649 1050 643 1019 l 777 1031 q 721 916 764 966 q 614 838 677 866 q 481 809 552 809 z "},"ě":{"ha":756,"x_min":42,"x_max":762,"o":"m 379 -11 q 196 32 271 -11 q 82 150 121 75 q 42 317 42 224 q 71 476 42 400 q 153 612 100 553 q 276 706 205 671 q 430 740 347 740 q 582 704 515 740 q 688 605 649 668 q 727 459 727 541 q 722 402 727 433 q 710 343 718 372 q 693 296 702 315 l 193 296 l 218 430 l 535 430 q 538 446 537 438 q 538 461 538 454 q 508 540 538 509 q 422 572 477 572 q 340 551 376 572 q 277 495 303 530 q 237 417 251 460 q 222 332 222 374 q 267 208 222 254 q 386 161 312 161 q 474 175 429 161 q 542 208 518 189 l 610 44 q 498 3 559 17 q 379 -11 437 -11 m 444 777 l 234 983 l 324 1083 l 481 926 l 486 926 l 689 1083 l 762 983 l 484 777 l 444 777 z "},"ḝ":{"ha":756,"x_min":42,"x_max":777,"o":"m 379 -11 q 196 32 271 -11 q 82 150 121 75 q 42 317 42 224 q 71 476 42 400 q 153 612 100 553 q 276 706 205 671 q 430 740 347 740 q 582 704 515 740 q 688 605 649 668 q 727 459 727 541 q 722 402 727 433 q 710 343 718 372 q 693 296 702 315 l 193 296 l 218 430 l 535 430 q 538 446 537 438 q 538 461 538 454 q 508 540 538 509 q 422 572 477 572 q 340 551 376 572 q 277 495 303 530 q 237 417 251 460 q 222 332 222 374 q 267 208 222 254 q 386 161 312 161 q 474 175 429 161 q 542 208 518 189 l 610 44 q 498 3 559 17 q 379 -11 437 -11 m 153 -347 l 164 -243 q 275 -226 235 -245 q 321 -182 316 -207 q 304 -150 326 -161 q 231 -136 282 -139 l 298 0 l 395 0 l 332 -111 l 325 -64 q 392 -81 361 -64 q 437 -130 422 -98 q 443 -208 452 -162 q 399 -287 433 -256 q 305 -333 366 -318 q 153 -347 244 -347 m 481 809 q 351 843 406 809 q 270 931 296 876 q 256 1050 244 986 l 385 1031 q 404 954 376 983 q 482 924 432 924 q 557 942 522 924 q 618 989 593 960 q 649 1050 643 1019 l 777 1031 q 721 916 764 966 q 614 838 677 866 q 481 809 552 809 z "},"ê":{"ha":756,"x_min":42,"x_max":748,"o":"m 379 -11 q 196 32 271 -11 q 82 150 121 75 q 42 317 42 224 q 71 476 42 400 q 153 612 100 553 q 276 706 205 671 q 430 740 347 740 q 582 704 515 740 q 688 605 649 668 q 727 459 727 541 q 722 402 727 433 q 710 343 718 372 q 693 296 702 315 l 193 296 l 218 430 l 535 430 q 538 446 537 438 q 538 461 538 454 q 508 540 538 509 q 422 572 477 572 q 340 551 376 572 q 277 495 303 530 q 237 417 251 460 q 222 332 222 374 q 267 208 222 254 q 386 161 312 161 q 474 175 429 161 q 542 208 518 189 l 610 44 q 498 3 559 17 q 379 -11 437 -11 m 293 777 l 220 876 l 498 1083 l 539 1083 l 748 876 l 658 777 l 502 933 l 496 933 l 293 777 z "},"ế":{"ha":756,"x_min":42,"x_max":960,"o":"m 379 -11 q 196 32 271 -11 q 82 150 121 75 q 42 317 42 224 q 71 476 42 400 q 153 612 100 553 q 276 706 205 671 q 430 740 347 740 q 582 704 515 740 q 688 605 649 668 q 727 459 727 541 q 722 402 727 433 q 710 343 718 372 q 693 296 702 315 l 193 296 l 218 430 l 535 430 q 538 446 537 438 q 538 461 538 454 q 508 540 538 509 q 422 572 477 572 q 340 551 376 572 q 277 495 303 530 q 237 417 251 460 q 222 332 222 374 q 267 208 222 254 q 386 161 312 161 q 474 175 429 161 q 542 208 518 189 l 610 44 q 498 3 559 17 q 379 -11 437 -11 m 701 983 l 620 1050 l 882 1276 l 959 1141 l 701 983 m 301 789 l 218 886 l 491 1053 l 532 1053 l 747 886 l 642 789 l 492 914 l 493 914 l 301 789 z "},"ệ":{"ha":756,"x_min":42,"x_max":748,"o":"m 379 -11 q 196 32 271 -11 q 82 150 121 75 q 42 317 42 224 q 71 476 42 400 q 153 612 100 553 q 276 706 205 671 q 430 740 347 740 q 582 704 515 740 q 688 605 649 668 q 727 459 727 541 q 722 402 727 433 q 710 343 718 372 q 693 296 702 315 l 193 296 l 218 430 l 535 430 q 538 446 537 438 q 538 461 538 454 q 508 540 538 509 q 422 572 477 572 q 340 551 376 572 q 277 495 303 530 q 237 417 251 460 q 222 332 222 374 q 267 208 222 254 q 386 161 312 161 q 474 175 429 161 q 542 208 518 189 l 610 44 q 498 3 559 17 q 379 -11 437 -11 m 302 -336 q 209 -298 246 -336 q 171 -205 171 -260 q 209 -113 171 -151 q 302 -75 246 -75 q 394 -113 356 -75 q 432 -205 432 -151 q 394 -298 432 -260 q 302 -336 356 -336 m 293 777 l 220 876 l 498 1083 l 539 1083 l 748 876 l 658 777 l 502 933 l 496 933 l 293 777 z "},"ề":{"ha":756,"x_min":42,"x_max":749,"o":"m 379 -11 q 196 32 271 -11 q 82 150 121 75 q 42 317 42 224 q 71 476 42 400 q 153 612 100 553 q 276 706 205 671 q 430 740 347 740 q 582 704 515 740 q 688 605 649 668 q 727 459 727 541 q 722 402 727 433 q 710 343 718 372 q 693 296 702 315 l 193 296 l 218 430 l 535 430 q 538 446 537 438 q 538 461 538 454 q 508 540 538 509 q 422 572 477 572 q 340 551 376 572 q 277 495 303 530 q 237 417 251 460 q 222 332 222 374 q 267 208 222 254 q 386 161 312 161 q 474 175 429 161 q 542 208 518 189 l 610 44 q 498 3 559 17 q 379 -11 437 -11 m 275 981 l 89 1184 l 219 1289 l 379 1047 l 275 981 m 302 789 l 220 886 l 492 1053 l 534 1053 l 749 886 l 644 789 l 493 914 l 494 914 l 302 789 z "},"ể":{"ha":756,"x_min":42,"x_max":832,"o":"m 379 -11 q 196 32 271 -11 q 82 150 121 75 q 42 317 42 224 q 71 476 42 400 q 153 612 100 553 q 276 706 205 671 q 430 740 347 740 q 582 704 515 740 q 688 605 649 668 q 727 459 727 541 q 722 402 727 433 q 710 343 718 372 q 693 296 702 315 l 193 296 l 218 430 l 535 430 q 538 446 537 438 q 538 461 538 454 q 508 540 538 509 q 422 572 477 572 q 340 551 376 572 q 277 495 303 530 q 237 417 251 460 q 222 332 222 374 q 267 208 222 254 q 386 161 312 161 q 474 175 429 161 q 542 208 518 189 l 610 44 q 498 3 559 17 q 379 -11 437 -11 m 713 973 l 621 1048 q 670 1084 652 1065 q 690 1118 687 1103 q 684 1141 694 1133 q 644 1149 675 1149 q 600 1146 624 1149 q 557 1136 576 1143 l 574 1265 q 611 1274 591 1272 q 656 1277 631 1277 q 793 1237 753 1277 q 820 1130 832 1198 q 780 1039 811 1079 q 713 973 749 998 m 301 789 l 218 886 l 491 1053 l 532 1053 l 747 886 l 642 789 l 492 914 l 493 914 l 301 789 z "},"ễ":{"ha":756,"x_min":42,"x_max":814,"o":"m 379 -11 q 196 32 271 -11 q 82 150 121 75 q 42 317 42 224 q 71 476 42 400 q 153 612 100 553 q 276 706 205 671 q 430 740 347 740 q 582 704 515 740 q 688 605 649 668 q 727 459 727 541 q 722 402 727 433 q 710 343 718 372 q 693 296 702 315 l 193 296 l 218 430 l 535 430 q 538 446 537 438 q 538 461 538 454 q 508 540 538 509 q 422 572 477 572 q 340 551 376 572 q 277 495 303 530 q 237 417 251 460 q 222 332 222 374 q 267 208 222 254 q 386 161 312 161 q 474 175 429 161 q 542 208 518 189 l 610 44 q 498 3 559 17 q 379 -11 437 -11 m 376 1070 l 241 1084 q 312 1223 259 1171 q 437 1275 366 1275 q 498 1262 473 1275 q 541 1233 522 1250 q 576 1204 559 1217 q 611 1192 592 1192 q 654 1222 637 1192 q 679 1289 672 1252 l 814 1276 q 774 1173 803 1220 q 706 1096 746 1125 q 617 1067 665 1067 q 558 1080 582 1067 q 515 1108 534 1093 q 480 1137 497 1124 q 443 1149 463 1149 q 400 1130 418 1149 q 376 1070 383 1110 m 302 789 l 220 886 l 492 1053 l 534 1053 l 749 886 l 644 789 l 493 914 l 494 914 l 302 789 z "},"ȅ":{"ha":756,"x_min":42,"x_max":727,"o":"m 379 -11 q 196 32 271 -11 q 82 150 121 75 q 42 317 42 224 q 71 476 42 400 q 153 612 100 553 q 276 706 205 671 q 430 740 347 740 q 582 704 515 740 q 688 605 649 668 q 727 459 727 541 q 722 402 727 433 q 710 343 718 372 q 693 296 702 315 l 193 296 l 218 430 l 535 430 q 538 446 537 438 q 538 461 538 454 q 508 540 538 509 q 422 572 477 572 q 340 551 376 572 q 277 495 303 530 q 237 417 251 460 q 222 332 222 374 q 267 208 222 254 q 386 161 312 161 q 474 175 429 161 q 542 208 518 189 l 610 44 q 498 3 559 17 q 379 -11 437 -11 m 323 793 l 211 1028 l 364 1097 l 434 819 l 323 793 m 576 793 l 464 1028 l 620 1097 l 687 819 l 576 793 z "},"ë":{"ha":756,"x_min":42,"x_max":779,"o":"m 379 -11 q 196 32 271 -11 q 82 150 121 75 q 42 317 42 224 q 71 476 42 400 q 153 612 100 553 q 276 706 205 671 q 430 740 347 740 q 582 704 515 740 q 688 605 649 668 q 727 459 727 541 q 722 402 727 433 q 710 343 718 372 q 693 296 702 315 l 193 296 l 218 430 l 535 430 q 538 446 537 438 q 538 461 538 454 q 508 540 538 509 q 422 572 477 572 q 340 551 376 572 q 277 495 303 530 q 237 417 251 460 q 222 332 222 374 q 267 208 222 254 q 386 161 312 161 q 474 175 429 161 q 542 208 518 189 l 610 44 q 498 3 559 17 q 379 -11 437 -11 m 661 824 q 577 859 611 824 q 543 943 543 893 q 577 1027 543 993 q 661 1061 611 1061 q 745 1027 711 1061 q 779 943 779 993 q 745 859 779 893 q 661 824 711 824 m 332 824 q 249 859 283 824 q 214 943 214 893 q 249 1027 214 993 q 332 1061 283 1061 q 417 1027 382 1061 q 451 943 451 993 q 417 859 451 893 q 332 824 382 824 z "},"ė":{"ha":756,"x_min":42,"x_max":727,"o":"m 379 -11 q 196 32 271 -11 q 82 150 121 75 q 42 317 42 224 q 71 476 42 400 q 153 612 100 553 q 276 706 205 671 q 430 740 347 740 q 582 704 515 740 q 688 605 649 668 q 727 459 727 541 q 722 402 727 433 q 710 343 718 372 q 693 296 702 315 l 193 296 l 218 430 l 535 430 q 538 446 537 438 q 538 461 538 454 q 508 540 538 509 q 422 572 477 572 q 340 551 376 572 q 277 495 303 530 q 237 417 251 460 q 222 332 222 374 q 267 208 222 254 q 386 161 312 161 q 474 175 429 161 q 542 208 518 189 l 610 44 q 498 3 559 17 q 379 -11 437 -11 m 497 814 q 404 852 441 814 q 366 945 366 890 q 404 1037 366 1000 q 497 1075 441 1075 q 589 1037 551 1075 q 627 945 627 1000 q 589 852 627 890 q 497 814 551 814 z "},"ẹ":{"ha":756,"x_min":42,"x_max":727,"o":"m 379 -11 q 196 32 271 -11 q 82 150 121 75 q 42 317 42 224 q 71 476 42 400 q 153 612 100 553 q 276 706 205 671 q 430 740 347 740 q 582 704 515 740 q 688 605 649 668 q 727 459 727 541 q 722 402 727 433 q 710 343 718 372 q 693 296 702 315 l 193 296 l 218 430 l 535 430 q 538 446 537 438 q 538 461 538 454 q 508 540 538 509 q 422 572 477 572 q 340 551 376 572 q 277 495 303 530 q 237 417 251 460 q 222 332 222 374 q 267 208 222 254 q 386 161 312 161 q 474 175 429 161 q 542 208 518 189 l 610 44 q 498 3 559 17 q 379 -11 437 -11 m 302 -336 q 209 -298 246 -336 q 171 -205 171 -260 q 209 -113 171 -151 q 302 -75 246 -75 q 394 -113 356 -75 q 432 -205 432 -151 q 394 -298 432 -260 q 302 -336 356 -336 z "},"è":{"ha":756,"x_min":42,"x_max":727,"o":"m 379 -11 q 196 32 271 -11 q 82 150 121 75 q 42 317 42 224 q 71 476 42 400 q 153 612 100 553 q 276 706 205 671 q 430 740 347 740 q 582 704 515 740 q 688 605 649 668 q 727 459 727 541 q 722 402 727 433 q 710 343 718 372 q 693 296 702 315 l 193 296 l 218 430 l 535 430 q 538 446 537 438 q 538 461 538 454 q 508 540 538 509 q 422 572 477 572 q 340 551 376 572 q 277 495 303 530 q 237 417 251 460 q 222 332 222 374 q 267 208 222 254 q 386 161 312 161 q 474 175 429 161 q 542 208 518 189 l 610 44 q 498 3 559 17 q 379 -11 437 -11 m 471 789 l 283 1006 l 422 1118 l 573 860 l 471 789 z "},"ẻ":{"ha":756,"x_min":42,"x_max":727,"o":"m 379 -11 q 196 32 271 -11 q 82 150 121 75 q 42 317 42 224 q 71 476 42 400 q 153 612 100 553 q 276 706 205 671 q 430 740 347 740 q 582 704 515 740 q 688 605 649 668 q 727 459 727 541 q 722 402 727 433 q 710 343 718 372 q 693 296 702 315 l 193 296 l 218 430 l 535 430 q 538 446 537 438 q 538 461 538 454 q 508 540 538 509 q 422 572 477 572 q 340 551 376 572 q 277 495 303 530 q 237 417 251 460 q 222 332 222 374 q 267 208 222 254 q 386 161 312 161 q 474 175 429 161 q 542 208 518 189 l 610 44 q 498 3 559 17 q 379 -11 437 -11 m 495 777 l 430 859 q 475 890 458 873 q 496 926 492 907 q 489 952 500 943 q 445 962 478 962 q 398 958 424 962 q 354 947 373 954 l 371 1078 q 411 1086 390 1084 q 458 1089 432 1089 q 597 1049 556 1089 q 625 943 638 1009 q 578 846 614 888 q 495 777 542 805 z "},"ȇ":{"ha":756,"x_min":42,"x_max":757,"o":"m 379 -11 q 196 32 271 -11 q 82 150 121 75 q 42 317 42 224 q 71 476 42 400 q 153 612 100 553 q 276 706 205 671 q 430 740 347 740 q 582 704 515 740 q 688 605 649 668 q 727 459 727 541 q 722 402 727 433 q 710 343 718 372 q 693 296 702 315 l 193 296 l 218 430 l 535 430 q 538 446 537 438 q 538 461 538 454 q 508 540 538 509 q 422 572 477 572 q 340 551 376 572 q 277 495 303 530 q 237 417 251 460 q 222 332 222 374 q 267 208 222 254 q 386 161 312 161 q 474 175 429 161 q 542 208 518 189 l 610 44 q 498 3 559 17 q 379 -11 437 -11 m 741 800 l 616 820 q 595 899 625 861 q 500 936 566 936 q 402 897 442 936 q 351 805 362 859 l 226 825 q 281 945 239 895 q 384 1024 323 996 q 513 1051 445 1051 q 645 1018 588 1051 q 729 928 702 985 q 741 800 757 871 z "},"ē":{"ha":756,"x_min":42,"x_max":791,"o":"m 379 -11 q 196 32 271 -11 q 82 150 121 75 q 42 317 42 224 q 71 476 42 400 q 153 612 100 553 q 276 706 205 671 q 430 740 347 740 q 582 704 515 740 q 688 605 649 668 q 727 459 727 541 q 722 402 727 433 q 710 343 718 372 q 693 296 702 315 l 193 296 l 218 430 l 535 430 q 538 446 537 438 q 538 461 538 454 q 508 540 538 509 q 422 572 477 572 q 340 551 376 572 q 277 495 303 530 q 237 417 251 460 q 222 332 222 374 q 267 208 222 254 q 386 161 312 161 q 474 175 429 161 q 542 208 518 189 l 610 44 q 498 3 559 17 q 379 -11 437 -11 m 190 849 l 216 979 l 790 979 l 764 849 l 190 849 z "},"ḗ":{"ha":756,"x_min":42,"x_max":791,"o":"m 379 -11 q 196 32 271 -11 q 82 150 121 75 q 42 317 42 224 q 71 476 42 400 q 153 612 100 553 q 276 706 205 671 q 430 740 347 740 q 582 704 515 740 q 688 605 649 668 q 727 459 727 541 q 722 402 727 433 q 710 343 718 372 q 693 296 702 315 l 193 296 l 218 430 l 535 430 q 538 446 537 438 q 538 461 538 454 q 508 540 538 509 q 422 572 477 572 q 340 551 376 572 q 277 495 303 530 q 237 417 251 460 q 222 332 222 374 q 267 208 222 254 q 386 161 312 161 q 474 175 429 161 q 542 208 518 189 l 610 44 q 498 3 559 17 q 379 -11 437 -11 m 190 849 l 216 979 l 790 979 l 764 849 l 190 849 m 524 1044 l 427 1120 l 628 1378 l 749 1263 l 524 1044 z "},"ḕ":{"ha":756,"x_min":42,"x_max":791,"o":"m 379 -11 q 196 32 271 -11 q 82 150 121 75 q 42 317 42 224 q 71 476 42 400 q 153 612 100 553 q 276 706 205 671 q 430 740 347 740 q 582 704 515 740 q 688 605 649 668 q 727 459 727 541 q 722 402 727 433 q 710 343 718 372 q 693 296 702 315 l 193 296 l 218 430 l 535 430 q 538 446 537 438 q 538 461 538 454 q 508 540 538 509 q 422 572 477 572 q 340 551 376 572 q 277 495 303 530 q 237 417 251 460 q 222 332 222 374 q 267 208 222 254 q 386 161 312 161 q 474 175 429 161 q 542 208 518 189 l 610 44 q 498 3 559 17 q 379 -11 437 -11 m 190 849 l 216 979 l 790 979 l 764 849 l 190 849 m 522 1048 l 335 1265 l 474 1378 l 625 1120 l 522 1048 z "},"ę":{"ha":756,"x_min":42,"x_max":727,"o":"m 379 -11 q 196 32 271 -11 q 82 150 121 75 q 42 317 42 224 q 71 476 42 400 q 153 612 100 553 q 276 706 205 671 q 430 740 347 740 q 582 704 515 740 q 688 605 649 668 q 727 459 727 541 q 722 402 727 433 q 710 343 718 372 q 693 296 702 315 l 193 296 l 218 430 l 535 430 q 538 446 537 438 q 538 461 538 454 q 508 540 538 509 q 422 572 477 572 q 340 551 376 572 q 277 495 303 530 q 237 417 251 460 q 222 332 222 374 q 267 208 222 254 q 386 161 312 161 q 474 175 429 161 q 542 208 518 189 l 610 44 q 498 3 559 17 q 379 -11 437 -11 m 458 -248 q 347 -203 384 -248 q 323 -92 310 -159 q 381 1 334 -40 q 505 83 429 41 l 612 44 q 542 1 576 24 q 484 -45 507 -22 q 454 -89 460 -68 q 461 -117 452 -106 q 497 -128 471 -128 q 546 -121 522 -128 q 581 -106 570 -113 l 567 -233 q 511 -245 545 -241 q 458 -248 477 -248 z "},"ẽ":{"ha":756,"x_min":42,"x_max":787,"o":"m 379 -11 q 196 32 271 -11 q 82 150 121 75 q 42 317 42 224 q 71 476 42 400 q 153 612 100 553 q 276 706 205 671 q 430 740 347 740 q 582 704 515 740 q 688 605 649 668 q 727 459 727 541 q 722 402 727 433 q 710 343 718 372 q 693 296 702 315 l 193 296 l 218 430 l 535 430 q 538 446 537 438 q 538 461 538 454 q 508 540 538 509 q 422 572 477 572 q 340 551 376 572 q 277 495 303 530 q 237 417 251 460 q 222 332 222 374 q 267 208 222 254 q 386 161 312 161 q 474 175 429 161 q 542 208 518 189 l 610 44 q 498 3 559 17 q 379 -11 437 -11 m 345 814 l 210 826 q 253 934 224 887 q 321 1008 281 981 q 408 1034 361 1034 q 470 1021 446 1034 q 513 989 495 1007 q 548 958 532 972 q 583 945 564 945 q 627 971 610 945 q 652 1035 645 997 l 787 1023 q 746 916 775 964 q 676 842 717 869 q 588 814 635 814 q 527 828 551 814 q 485 859 503 842 q 451 890 467 877 q 414 904 435 904 q 371 879 389 904 q 345 814 353 854 z "},"ə":{"ha":756,"x_min":29,"x_max":714,"o":"m 375 741 q 559 696 484 741 q 675 578 635 652 q 714 412 714 504 q 685 252 714 328 q 603 116 655 176 q 479 23 550 57 q 325 -11 408 -11 q 174 25 241 -11 q 68 125 106 60 q 29 273 29 189 q 34 329 29 298 q 46 389 39 359 q 63 435 54 418 l 564 435 l 538 302 l 221 302 q 218 283 219 293 q 216 266 216 274 q 245 188 216 220 q 330 155 273 155 q 415 177 378 155 q 479 234 453 199 q 519 312 505 270 q 533 397 533 355 q 487 522 533 475 q 368 568 441 568 q 280 554 326 568 q 211 522 235 540 l 144 685 q 256 727 195 713 q 375 741 317 741 z "},"f":{"ha":563,"x_min":-81,"x_max":682,"o":"m -3 -292 q -38 -291 -18 -292 q -81 -282 -59 -289 l -57 -100 q -39 -104 -47 -103 q -26 -105 -32 -105 q 44 -76 18 -105 q 79 4 69 -47 l 238 804 q 348 1004 264 933 q 549 1075 431 1075 q 615 1069 581 1075 q 682 1049 650 1063 l 606 867 q 585 878 597 874 q 559 881 572 881 q 489 855 520 881 q 448 779 458 829 l 288 -21 q 191 -222 262 -152 q -3 -292 119 -292 m 67 553 l 102 729 l 605 729 l 570 553 l 67 553 z "},"g":{"ha":850,"x_min":-16,"x_max":838,"o":"m 280 -297 q 156 -284 214 -297 q 55 -253 99 -272 q -16 -215 10 -234 l 57 -39 q 115 -78 80 -60 q 193 -107 151 -96 q 278 -118 235 -118 q 378 -99 332 -118 q 458 -45 425 -80 q 500 39 490 -9 l 509 89 l 488 89 l 530 155 l 613 568 l 576 633 l 622 633 l 641 730 l 838 730 l 698 31 q 615 -155 675 -83 q 468 -262 555 -228 q 280 -297 382 -297 m 304 14 q 170 50 230 14 q 76 153 111 86 q 41 313 41 220 q 67 474 41 397 q 142 611 94 551 q 258 706 191 671 q 407 741 326 741 q 547 701 488 741 q 638 593 606 661 q 671 438 671 524 q 643 281 671 357 q 565 144 614 205 q 448 49 515 84 q 304 14 382 14 m 381 183 q 460 203 425 183 q 521 256 496 223 q 559 331 546 289 q 572 418 572 373 q 538 524 572 485 q 438 564 503 564 q 358 545 393 564 q 299 492 323 526 q 261 417 274 459 q 248 330 248 375 q 284 222 248 260 q 381 183 320 183 z "},"ǵ":{"ha":850,"x_min":-16,"x_max":838,"o":"m 280 -297 q 156 -284 214 -297 q 55 -253 99 -272 q -16 -215 10 -234 l 57 -39 q 115 -78 80 -60 q 193 -107 151 -96 q 278 -118 235 -118 q 378 -99 332 -118 q 458 -45 425 -80 q 500 39 490 -9 l 509 89 l 488 89 l 530 155 l 613 568 l 576 633 l 622 633 l 641 730 l 838 730 l 698 31 q 615 -155 675 -83 q 468 -262 555 -228 q 280 -297 382 -297 m 304 14 q 170 50 230 14 q 76 153 111 86 q 41 313 41 220 q 67 474 41 397 q 142 611 94 551 q 258 706 191 671 q 407 741 326 741 q 547 701 488 741 q 638 593 606 661 q 671 438 671 524 q 643 281 671 357 q 565 144 614 205 q 448 49 515 84 q 304 14 382 14 m 381 183 q 460 203 425 183 q 521 256 496 223 q 559 331 546 289 q 572 418 572 373 q 538 524 572 485 q 438 564 503 564 q 358 545 393 564 q 299 492 323 526 q 261 417 274 459 q 248 330 248 375 q 284 222 248 260 q 381 183 320 183 m 496 784 l 399 861 l 600 1118 l 722 1003 l 496 784 z "},"ğ":{"ha":850,"x_min":-16,"x_max":838,"o":"m 280 -297 q 156 -284 214 -297 q 55 -253 99 -272 q -16 -215 10 -234 l 57 -39 q 115 -78 80 -60 q 193 -107 151 -96 q 278 -118 235 -118 q 378 -99 332 -118 q 458 -45 425 -80 q 500 39 490 -9 l 509 89 l 488 89 l 530 155 l 613 568 l 576 633 l 622 633 l 641 730 l 838 730 l 698 31 q 615 -155 675 -83 q 468 -262 555 -228 q 280 -297 382 -297 m 304 14 q 170 50 230 14 q 76 153 111 86 q 41 313 41 220 q 67 474 41 397 q 142 611 94 551 q 258 706 191 671 q 407 741 326 741 q 547 701 488 741 q 638 593 606 661 q 671 438 671 524 q 643 281 671 357 q 565 144 614 205 q 448 49 515 84 q 304 14 382 14 m 381 183 q 460 203 425 183 q 521 256 496 223 q 559 331 546 289 q 572 418 572 373 q 538 524 572 485 q 438 564 503 564 q 358 545 393 564 q 299 492 323 526 q 261 417 274 459 q 248 330 248 375 q 284 222 248 260 q 381 183 320 183 m 505 809 q 375 843 430 809 q 294 931 320 876 q 280 1050 268 986 l 408 1031 q 428 954 399 983 q 506 924 456 924 q 581 942 545 924 q 642 989 617 960 q 673 1050 667 1019 l 801 1031 q 744 916 788 966 q 638 838 701 866 q 505 809 576 809 z "},"ǧ":{"ha":850,"x_min":-16,"x_max":838,"o":"m 280 -297 q 156 -284 214 -297 q 55 -253 99 -272 q -16 -215 10 -234 l 57 -39 q 115 -78 80 -60 q 193 -107 151 -96 q 278 -118 235 -118 q 378 -99 332 -118 q 458 -45 425 -80 q 500 39 490 -9 l 509 89 l 488 89 l 530 155 l 613 568 l 576 633 l 622 633 l 641 730 l 838 730 l 698 31 q 615 -155 675 -83 q 468 -262 555 -228 q 280 -297 382 -297 m 304 14 q 170 50 230 14 q 76 153 111 86 q 41 313 41 220 q 67 474 41 397 q 142 611 94 551 q 258 706 191 671 q 407 741 326 741 q 547 701 488 741 q 638 593 606 661 q 671 438 671 524 q 643 281 671 357 q 565 144 614 205 q 448 49 515 84 q 304 14 382 14 m 381 183 q 460 203 425 183 q 521 256 496 223 q 559 331 546 289 q 572 418 572 373 q 538 524 572 485 q 438 564 503 564 q 358 545 393 564 q 299 492 323 526 q 261 417 274 459 q 248 330 248 375 q 284 222 248 260 q 381 183 320 183 m 467 777 l 258 983 l 348 1083 l 505 926 l 510 926 l 713 1083 l 786 983 l 508 777 l 467 777 z "},"ĝ":{"ha":850,"x_min":-16,"x_max":838,"o":"m 280 -297 q 156 -284 214 -297 q 55 -253 99 -272 q -16 -215 10 -234 l 57 -39 q 115 -78 80 -60 q 193 -107 151 -96 q 278 -118 235 -118 q 378 -99 332 -118 q 458 -45 425 -80 q 500 39 490 -9 l 509 89 l 488 89 l 530 155 l 613 568 l 576 633 l 622 633 l 641 730 l 838 730 l 698 31 q 615 -155 675 -83 q 468 -262 555 -228 q 280 -297 382 -297 m 304 14 q 170 50 230 14 q 76 153 111 86 q 41 313 41 220 q 67 474 41 397 q 142 611 94 551 q 258 706 191 671 q 407 741 326 741 q 547 701 488 741 q 638 593 606 661 q 671 438 671 524 q 643 281 671 357 q 565 144 614 205 q 448 49 515 84 q 304 14 382 14 m 381 183 q 460 203 425 183 q 521 256 496 223 q 559 331 546 289 q 572 418 572 373 q 538 524 572 485 q 438 564 503 564 q 358 545 393 564 q 299 492 323 526 q 261 417 274 459 q 248 330 248 375 q 284 222 248 260 q 381 183 320 183 m 317 777 l 243 876 l 522 1083 l 563 1083 l 772 876 l 682 777 l 526 933 l 519 933 l 317 777 z "},"ģ":{"ha":850,"x_min":-16,"x_max":838,"o":"m 280 -297 q 156 -284 214 -297 q 55 -253 99 -272 q -16 -215 10 -234 l 57 -39 q 115 -78 80 -60 q 193 -107 151 -96 q 278 -118 235 -118 q 378 -99 332 -118 q 458 -45 425 -80 q 500 39 490 -9 l 509 89 l 488 89 l 530 155 l 613 568 l 576 633 l 622 633 l 641 730 l 838 730 l 698 31 q 615 -155 675 -83 q 468 -262 555 -228 q 280 -297 382 -297 m 304 14 q 170 50 230 14 q 76 153 111 86 q 41 313 41 220 q 67 474 41 397 q 142 611 94 551 q 258 706 191 671 q 407 741 326 741 q 547 701 488 741 q 638 593 606 661 q 671 438 671 524 q 643 281 671 357 q 565 144 614 205 q 448 49 515 84 q 304 14 382 14 m 381 183 q 460 203 425 183 q 521 256 496 223 q 559 331 546 289 q 572 418 572 373 q 538 524 572 485 q 438 564 503 564 q 358 545 393 564 q 299 492 323 526 q 261 417 274 459 q 248 330 248 375 q 284 222 248 260 q 381 183 320 183 m 606 1135 l 642 1078 l 559 1031 q 530 1013 549 1025 q 494 984 510 1002 q 479 939 478 966 l 464 939 q 472 972 461 954 q 511 990 482 990 q 573 964 544 990 q 603 897 603 937 q 575 834 603 860 q 510 809 548 809 q 441 837 472 809 q 411 920 411 865 q 442 1017 411 981 q 517 1078 473 1053 l 606 1135 z "},"ġ":{"ha":850,"x_min":-16,"x_max":838,"o":"m 280 -297 q 156 -284 214 -297 q 55 -253 99 -272 q -16 -215 10 -234 l 57 -39 q 115 -78 80 -60 q 193 -107 151 -96 q 278 -118 235 -118 q 378 -99 332 -118 q 458 -45 425 -80 q 500 39 490 -9 l 509 89 l 488 89 l 530 155 l 613 568 l 576 633 l 622 633 l 641 730 l 838 730 l 698 31 q 615 -155 675 -83 q 468 -262 555 -228 q 280 -297 382 -297 m 304 14 q 170 50 230 14 q 76 153 111 86 q 41 313 41 220 q 67 474 41 397 q 142 611 94 551 q 258 706 191 671 q 407 741 326 741 q 547 701 488 741 q 638 593 606 661 q 671 438 671 524 q 643 281 671 357 q 565 144 614 205 q 448 49 515 84 q 304 14 382 14 m 381 183 q 460 203 425 183 q 521 256 496 223 q 559 331 546 289 q 572 418 572 373 q 538 524 572 485 q 438 564 503 564 q 358 545 393 564 q 299 492 323 526 q 261 417 274 459 q 248 330 248 375 q 284 222 248 260 q 381 183 320 183 m 521 814 q 428 852 465 814 q 390 945 390 890 q 428 1037 390 1000 q 521 1075 465 1075 q 613 1037 575 1075 q 651 945 651 1000 q 613 852 651 890 q 521 814 575 814 z "},"ḡ":{"ha":850,"x_min":-16,"x_max":838,"o":"m 280 -297 q 156 -284 214 -297 q 55 -253 99 -272 q -16 -215 10 -234 l 57 -39 q 115 -78 80 -60 q 193 -107 151 -96 q 278 -118 235 -118 q 378 -99 332 -118 q 458 -45 425 -80 q 500 39 490 -9 l 509 89 l 488 89 l 530 155 l 613 568 l 576 633 l 622 633 l 641 730 l 838 730 l 698 31 q 615 -155 675 -83 q 468 -262 555 -228 q 280 -297 382 -297 m 304 14 q 170 50 230 14 q 76 153 111 86 q 41 313 41 220 q 67 474 41 397 q 142 611 94 551 q 258 706 191 671 q 407 741 326 741 q 547 701 488 741 q 638 593 606 661 q 671 438 671 524 q 643 281 671 357 q 565 144 614 205 q 448 49 515 84 q 304 14 382 14 m 381 183 q 460 203 425 183 q 521 256 496 223 q 559 331 546 289 q 572 418 572 373 q 538 524 572 485 q 438 564 503 564 q 358 545 393 564 q 299 492 323 526 q 261 417 274 459 q 248 330 248 375 q 284 222 248 260 q 381 183 320 183 m 214 849 l 239 979 l 814 979 l 788 849 l 214 849 z "},"h":{"ha":817,"x_min":7,"x_max":760,"o":"m 658 -12 q 548 18 593 -7 q 482 88 502 42 q 477 206 463 134 l 525 440 q 511 534 538 505 q 444 563 485 563 q 381 545 410 563 q 334 496 353 528 q 306 421 315 465 l 221 0 l 7 0 l 216 1044 l 429 1044 l 357 675 l 374 675 l 308 595 q 404 707 340 673 q 540 741 468 741 q 673 705 622 741 q 742 607 724 669 q 745 470 760 546 l 700 242 q 701 186 692 202 q 732 164 709 170 l 658 -12 z "},"ħ":{"ha":817,"x_min":7,"x_max":760,"o":"m 658 -12 q 548 18 593 -7 q 482 88 502 42 q 477 206 463 134 l 525 440 q 511 534 538 505 q 444 563 485 563 q 381 545 410 563 q 334 496 353 528 q 306 421 315 465 l 221 0 l 7 0 l 216 1044 l 429 1044 l 357 675 l 374 675 l 308 595 q 404 707 340 673 q 540 741 468 741 q 673 705 622 741 q 742 607 724 669 q 745 470 760 546 l 700 242 q 701 186 692 202 q 732 164 709 170 l 658 -12 m 56 821 l 79 930 l 518 930 l 495 821 l 56 821 z "},"ḫ":{"ha":817,"x_min":7,"x_max":760,"o":"m 658 -12 q 548 18 593 -7 q 482 88 502 42 q 477 206 463 134 l 525 440 q 511 534 538 505 q 444 563 485 563 q 381 545 410 563 q 334 496 353 528 q 306 421 315 465 l 221 0 l 7 0 l 216 1044 l 429 1044 l 357 675 l 374 675 l 308 595 q 404 707 340 673 q 540 741 468 741 q 673 705 622 741 q 742 607 724 669 q 745 470 760 546 l 700 242 q 701 186 692 202 q 732 164 709 170 l 658 -12 m 302 -313 q 172 -279 227 -313 q 91 -191 117 -245 q 77 -71 65 -136 l 205 -90 q 225 -168 197 -138 q 303 -197 253 -197 q 378 -179 342 -197 q 439 -132 414 -161 q 470 -71 464 -103 l 598 -90 q 542 -205 585 -155 q 435 -284 498 -256 q 302 -313 373 -313 z "},"ĥ":{"ha":817,"x_min":7,"x_max":760,"o":"m 658 -12 q 548 18 593 -7 q 482 88 502 42 q 477 206 463 134 l 525 440 q 511 534 538 505 q 444 563 485 563 q 381 545 410 563 q 334 496 353 528 q 306 421 315 465 l 221 0 l 7 0 l 216 1044 l 429 1044 l 357 675 l 374 675 l 308 595 q 404 707 340 673 q 540 741 468 741 q 673 705 622 741 q 742 607 724 669 q 745 470 760 546 l 700 242 q 701 186 692 202 q 732 164 709 170 l 658 -12 m 170 1088 l 87 1187 l 360 1355 l 401 1355 l 616 1187 l 511 1088 l 366 1215 l 359 1215 l 170 1088 z "},"ḥ":{"ha":817,"x_min":7,"x_max":760,"o":"m 658 -12 q 548 18 593 -7 q 482 88 502 42 q 477 206 463 134 l 525 440 q 511 534 538 505 q 444 563 485 563 q 381 545 410 563 q 334 496 353 528 q 306 421 315 465 l 221 0 l 7 0 l 216 1044 l 429 1044 l 357 675 l 374 675 l 308 595 q 404 707 340 673 q 540 741 468 741 q 673 705 622 741 q 742 607 724 669 q 745 470 760 546 l 700 242 q 701 186 692 202 q 732 164 709 170 l 658 -12 m 303 -336 q 210 -298 248 -336 q 172 -205 172 -260 q 210 -113 172 -151 q 303 -75 248 -75 q 395 -113 357 -75 q 433 -205 433 -151 q 395 -298 433 -260 q 303 -336 357 -336 z "},"i":{"ha":425,"x_min":47,"x_max":438,"o":"m 278 -11 q 135 28 187 -5 q 65 120 82 61 q 64 261 47 179 l 157 730 l 372 730 l 275 248 q 283 200 270 217 q 317 176 296 184 q 353 165 338 169 l 278 -11 m 308 814 q 215 852 252 814 q 177 945 177 890 q 215 1037 177 1000 q 308 1075 252 1075 q 400 1037 362 1075 q 438 945 438 1000 q 400 852 438 890 q 308 814 362 814 z "},"ı":{"ha":425,"x_min":47,"x_max":372,"o":"m 278 -11 q 135 28 187 -5 q 65 120 82 61 q 64 261 47 179 l 157 730 l 372 730 l 275 248 q 283 200 270 217 q 317 176 296 184 q 353 165 338 169 l 278 -11 z "},"í":{"ha":425,"x_min":47,"x_max":509,"o":"m 278 -11 q 135 28 187 -5 q 65 120 82 61 q 64 261 47 179 l 157 730 l 372 730 l 275 248 q 283 200 270 217 q 317 176 296 184 q 353 165 338 169 l 278 -11 m 283 784 l 186 861 l 387 1118 l 509 1003 l 283 784 z "},"ĭ":{"ha":425,"x_min":47,"x_max":588,"o":"m 278 -11 q 135 28 187 -5 q 65 120 82 61 q 64 261 47 179 l 157 730 l 372 730 l 275 248 q 283 200 270 217 q 317 176 296 184 q 353 165 338 169 l 278 -11 m 292 809 q 162 843 217 809 q 81 931 107 876 q 67 1050 55 986 l 195 1031 q 215 954 186 983 q 293 924 243 924 q 368 942 332 924 q 429 989 404 960 q 460 1050 454 1019 l 588 1031 q 531 916 575 966 q 425 838 488 866 q 292 809 363 809 z "},"ǐ":{"ha":505,"x_min":84,"x_max":613,"o":"m 318 -11 q 175 28 227 -5 q 105 120 122 61 q 104 261 87 179 l 197 730 l 412 730 l 315 248 q 323 200 310 217 q 357 176 336 184 q 393 165 378 169 l 318 -11 m 294 777 l 85 983 l 175 1083 l 332 926 l 337 926 l 540 1083 l 613 983 l 335 777 l 294 777 z "},"î":{"ha":425,"x_min":31,"x_max":559,"o":"m 278 -11 q 135 28 187 -5 q 65 120 82 61 q 64 261 47 179 l 157 730 l 372 730 l 275 248 q 283 200 270 217 q 317 176 296 184 q 353 165 338 169 l 278 -11 m 104 777 l 31 876 l 309 1083 l 350 1083 l 559 876 l 469 777 l 313 933 l 307 933 l 104 777 z "},"ȉ":{"ha":425,"x_min":22,"x_max":498,"o":"m 278 -11 q 135 28 187 -5 q 65 120 82 61 q 64 261 47 179 l 157 730 l 372 730 l 275 248 q 283 200 270 217 q 317 176 296 184 q 353 165 338 169 l 278 -11 m 134 793 l 22 1028 l 175 1097 l 245 819 l 134 793 m 387 793 l 275 1028 l 431 1097 l 498 819 l 387 793 z "},"ï":{"ha":425,"x_min":25,"x_max":590,"o":"m 278 -11 q 135 28 187 -5 q 65 120 82 61 q 64 261 47 179 l 157 730 l 372 730 l 275 248 q 283 200 270 217 q 317 176 296 184 q 353 165 338 169 l 278 -11 m 472 824 q 388 859 422 824 q 353 943 353 893 q 388 1027 353 993 q 472 1061 422 1061 q 556 1027 522 1061 q 590 943 590 993 q 556 859 590 893 q 472 824 522 824 m 143 824 q 59 859 94 824 q 25 943 25 893 q 59 1027 25 993 q 143 1061 94 1061 q 228 1027 193 1061 q 262 943 262 993 q 228 859 262 893 q 143 824 193 824 z "},"ḯ":{"ha":425,"x_min":25,"x_max":590,"o":"m 278 -11 q 135 28 187 -5 q 65 120 82 61 q 64 261 47 179 l 157 730 l 372 730 l 275 248 q 283 200 270 217 q 317 176 296 184 q 353 165 338 169 l 278 -11 m 472 824 q 388 859 422 824 q 353 943 353 893 q 388 1027 353 993 q 472 1061 422 1061 q 556 1027 522 1061 q 590 943 590 993 q 556 859 590 893 q 472 824 522 824 m 143 824 q 59 859 94 824 q 25 943 25 893 q 59 1027 25 993 q 143 1061 94 1061 q 228 1027 193 1061 q 262 943 262 993 q 228 859 262 893 q 143 824 193 824 m 340 1071 l 243 1147 l 444 1405 l 565 1290 l 340 1071 z "},"ị":{"ha":425,"x_min":-26,"x_max":438,"o":"m 278 -11 q 135 28 187 -5 q 65 120 82 61 q 64 261 47 179 l 157 730 l 372 730 l 275 248 q 283 200 270 217 q 317 176 296 184 q 353 165 338 169 l 278 -11 m 308 814 q 215 852 252 814 q 177 945 177 890 q 215 1037 177 1000 q 308 1075 252 1075 q 400 1037 362 1075 q 438 945 438 1000 q 400 852 438 890 q 308 814 362 814 m 105 -336 q 12 -298 50 -336 q -26 -205 -26 -260 q 12 -113 -26 -151 q 105 -75 50 -75 q 197 -113 159 -75 q 235 -205 235 -151 q 197 -298 235 -260 q 105 -336 159 -336 z "},"ì":{"ha":425,"x_min":47,"x_max":384,"o":"m 278 -11 q 135 28 187 -5 q 65 120 82 61 q 64 261 47 179 l 157 730 l 372 730 l 275 248 q 283 200 270 217 q 317 176 296 184 q 353 165 338 169 l 278 -11 m 281 789 l 94 1006 l 233 1118 l 384 860 l 281 789 z "},"ỉ":{"ha":425,"x_min":47,"x_max":448,"o":"m 278 -11 q 135 28 187 -5 q 65 120 82 61 q 64 261 47 179 l 157 730 l 372 730 l 275 248 q 283 200 270 217 q 317 176 296 184 q 353 165 338 169 l 278 -11 m 305 777 l 240 859 q 285 890 268 873 q 307 926 302 907 q 299 952 310 943 q 255 962 288 962 q 209 958 234 962 q 164 947 183 954 l 181 1078 q 221 1086 200 1084 q 269 1089 242 1089 q 407 1049 366 1089 q 435 943 448 1009 q 388 846 425 888 q 305 777 352 805 z "},"ȋ":{"ha":425,"x_min":37,"x_max":567,"o":"m 278 -11 q 135 28 187 -5 q 65 120 82 61 q 64 261 47 179 l 157 730 l 372 730 l 275 248 q 283 200 270 217 q 317 176 296 184 q 353 165 338 169 l 278 -11 m 551 800 l 427 820 q 406 899 435 861 q 311 936 376 936 q 213 897 253 936 q 162 805 173 859 l 37 825 q 92 945 50 895 q 195 1024 134 996 q 324 1051 256 1051 q 456 1018 399 1051 q 540 928 513 985 q 551 800 568 871 z "},"ī":{"ha":425,"x_min":40,"x_max":550,"o":"m 278 -11 q 135 28 187 -5 q 65 120 82 61 q 64 261 47 179 l 157 730 l 372 730 l 275 248 q 283 200 270 217 q 317 176 296 184 q 353 165 338 169 l 278 -11 m 40 849 l 62 979 l 550 979 l 528 849 l 40 849 z "},"į":{"ha":425,"x_min":46,"x_max":438,"o":"m 278 -11 q 135 28 187 -5 q 65 120 82 61 q 64 261 47 179 l 157 730 l 372 730 l 275 248 q 283 200 270 217 q 317 176 296 184 q 353 165 338 169 l 278 -11 m 308 814 q 215 852 252 814 q 177 945 177 890 q 215 1037 177 1000 q 308 1075 252 1075 q 400 1037 362 1075 q 438 945 438 1000 q 400 852 438 890 q 308 814 362 814 m 205 -292 q 87 -248 128 -292 q 59 -137 45 -204 q 96 -53 68 -92 q 154 17 123 -14 q 205 63 185 47 l 277 -11 q 241 -48 259 -28 q 211 -89 224 -68 q 195 -126 199 -109 q 200 -152 193 -142 q 233 -163 208 -163 q 271 -158 250 -163 q 318 -144 292 -153 l 299 -278 q 255 -289 282 -285 q 205 -292 227 -292 z "},"ĩ":{"ha":425,"x_min":21,"x_max":598,"o":"m 278 -11 q 135 28 187 -5 q 65 120 82 61 q 64 261 47 179 l 157 730 l 372 730 l 275 248 q 283 200 270 217 q 317 176 296 184 q 353 165 338 169 l 278 -11 m 155 814 l 20 826 q 63 934 34 887 q 132 1008 92 981 q 218 1034 172 1034 q 280 1021 256 1034 q 323 989 305 1007 q 358 958 342 972 q 393 945 374 945 q 437 971 420 945 q 463 1035 455 997 l 597 1023 q 556 916 585 964 q 486 842 527 869 q 398 814 446 814 q 337 828 361 814 q 295 859 313 842 q 261 890 277 877 q 224 904 245 904 q 181 879 199 904 q 155 814 163 854 z "},"j":{"ha":397,"x_min":-166,"x_max":452,"o":"m -59 -301 q -115 -297 -87 -301 q -166 -288 -142 -293 l -127 -104 q -102 -110 -118 -109 q -77 -111 -85 -111 q -10 -85 -36 -111 q 23 -27 16 -60 l 173 730 l 387 730 l 235 -37 q 181 -175 220 -115 q 83 -268 143 -234 q -59 -301 23 -301 m 321 814 q 228 852 266 814 q 191 945 191 890 q 228 1037 191 1000 q 321 1075 266 1075 q 414 1037 376 1075 q 452 945 452 1000 q 414 852 452 890 q 321 814 376 814 z "},"ȷ":{"ha":397,"x_min":-166,"x_max":387,"o":"m -59 -301 q -115 -297 -87 -301 q -166 -288 -142 -293 l -127 -104 q -102 -110 -118 -109 q -77 -111 -85 -111 q -10 -85 -36 -111 q 23 -27 16 -60 l 173 730 l 387 730 l 235 -37 q 181 -175 220 -115 q 83 -268 143 -234 q -59 -301 23 -301 z "},"ĵ":{"ha":449,"x_min":-166,"x_max":572,"o":"m -59 -301 q -115 -297 -87 -301 q -166 -288 -142 -293 l -127 -104 q -102 -110 -118 -109 q -77 -111 -85 -111 q -10 -85 -36 -111 q 23 -27 16 -60 l 173 730 l 387 730 l 235 -37 q 181 -175 220 -115 q 83 -268 143 -234 q -59 -301 23 -301 m 117 777 l 43 876 l 321 1083 l 363 1083 l 572 876 l 481 777 l 326 933 l 319 933 l 117 777 z "},"k":{"ha":793,"x_min":7,"x_max":845,"o":"m 7 0 l 216 1044 l 430 1044 l 309 435 l 374 435 l 311 408 l 588 730 l 845 730 l 463 316 l 450 434 l 709 0 l 485 0 l 285 352 l 352 306 l 283 306 l 221 0 l 7 0 z "},"ķ":{"ha":793,"x_min":7,"x_max":845,"o":"m 7 0 l 216 1044 l 430 1044 l 309 435 l 374 435 l 311 408 l 588 730 l 845 730 l 463 316 l 450 434 l 709 0 l 485 0 l 285 352 l 352 306 l 283 306 l 221 0 l 7 0 m 209 -393 l 174 -337 l 256 -289 q 286 -271 267 -282 q 321 -242 306 -260 q 336 -197 337 -224 l 351 -197 q 344 -230 355 -212 q 304 -248 334 -248 q 242 -222 272 -248 q 212 -155 212 -195 q 240 -93 212 -118 q 306 -67 267 -67 q 374 -95 343 -67 q 404 -178 404 -123 q 373 -276 404 -240 q 299 -337 342 -311 l 209 -393 z "},"ĸ":{"ha":789,"x_min":7,"x_max":844,"o":"m 7 0 l 153 730 l 368 730 l 310 439 l 357 439 l 282 405 l 583 730 l 844 730 l 425 319 l 446 442 l 705 0 l 463 0 l 272 347 l 330 314 l 285 314 l 221 0 l 7 0 z "},"l":{"ha":429,"x_min":35,"x_max":431,"o":"m 210 -11 q 107 15 149 -11 q 51 87 66 40 q 48 201 35 135 l 215 1044 l 431 1044 l 267 228 q 304 173 256 173 q 327 175 315 173 q 349 181 340 178 l 319 9 q 264 -6 296 -2 q 210 -11 233 -11 z "},"ĺ":{"ha":429,"x_min":35,"x_max":565,"o":"m 210 -11 q 107 15 149 -11 q 51 87 66 40 q 48 201 35 135 l 215 1044 l 431 1044 l 267 228 q 304 173 256 173 q 327 175 315 173 q 349 181 340 178 l 319 9 q 264 -6 296 -2 q 210 -11 233 -11 m 340 1099 l 243 1175 l 444 1433 l 565 1318 l 340 1099 z "},"ľ":{"ha":541,"x_min":35,"x_max":694,"o":"m 210 -11 q 107 15 149 -11 q 51 87 66 40 q 48 201 35 135 l 215 1044 l 431 1044 l 267 228 q 304 173 256 173 q 327 175 315 173 q 349 181 340 178 l 319 9 q 264 -6 296 -2 q 210 -11 233 -11 m 451 697 l 523 1044 l 695 1044 l 601 697 l 451 697 z "},"ļ":{"ha":429,"x_min":-17,"x_max":431,"o":"m 210 -11 q 107 15 149 -11 q 51 87 66 40 q 48 201 35 135 l 215 1044 l 431 1044 l 267 228 q 304 173 256 173 q 327 175 315 173 q 349 181 340 178 l 319 9 q 264 -6 296 -2 q 210 -11 233 -11 m 18 -393 l -17 -337 l 65 -289 q 96 -271 76 -282 q 131 -242 115 -260 q 146 -197 146 -224 l 161 -197 q 154 -230 164 -212 q 114 -248 143 -248 q 52 -222 81 -248 q 22 -155 22 -195 q 49 -93 22 -118 q 115 -67 77 -67 q 183 -95 153 -67 q 214 -178 214 -123 q 182 -276 214 -240 q 109 -337 151 -311 l 18 -393 z "}}}
